<svg xmlns="http://www.w3.org/2000/svg" xmlns:xlink="http://www.w3.org/1999/xlink" width="1152" height="768" version="1.1" viewBox="0 0 864 576"><metadata><rdf:RDF xmlns:cc="http://creativecommons.org/ns#" xmlns:dc="http://purl.org/dc/elements/1.1/" xmlns:rdf="http://www.w3.org/1999/02/22-rdf-syntax-ns#"><cc:Work><dc:type rdf:resource="http://purl.org/dc/dcmitype/StillImage"/><dc:date>2021-07-25T17:56:10.011461</dc:date><dc:format>image/svg+xml</dc:format><dc:creator><cc:Agent><dc:title>Matplotlib v3.4.2, https://matplotlib.org/</dc:title></cc:Agent></dc:creator></cc:Work></rdf:RDF></metadata><defs><style type="text/css">*{stroke-linecap:butt;stroke-linejoin:round}</style></defs><g id="figure_1"><g id="patch_1"><path d="M 0 576 L 864 576 L 864 0 L 0 0 z"/></g><g id="axes_1"><g id="patch_2"><path d="M 108 512.64 L 777.6 512.64 L 777.6 69.12 L 108 69.12 z"/></g><g id="matplotlib.axis_1"><g id="xtick_1"><g id="line2d_1"><defs><path id="m50c2108667" d="M 0 0 L 0 3.5" style="stroke:#fff;stroke-width:.8"/></defs><g><use style="fill:#fff;stroke:#fff;stroke-width:.8" x="138.436" y="512.64" xlink:href="#m50c2108667"/></g></g><g id="text_1"><g style="fill:#fff" transform="translate(128.892614 527.238438)scale(0.1 -0.1)"><defs><path id="DejaVuSans-33" d="M 2597 2516 Q 3050 2419 3304 2112 Q 3559 1806 3559 1356 Q 3559 666 3084 287 Q 2609 -91 1734 -91 Q 1441 -91 1130 -33 Q 819 25 488 141 L 488 750 Q 750 597 1062 519 Q 1375 441 1716 441 Q 2309 441 2620 675 Q 2931 909 2931 1356 Q 2931 1769 2642 2001 Q 2353 2234 1838 2234 L 1294 2234 L 1294 2753 L 1863 2753 Q 2328 2753 2575 2939 Q 2822 3125 2822 3475 Q 2822 3834 2567 4026 Q 2313 4219 1838 4219 Q 1578 4219 1281 4162 Q 984 4106 628 3988 L 628 4550 Q 988 4650 1302 4700 Q 1616 4750 1894 4750 Q 2613 4750 3031 4423 Q 3450 4097 3450 3541 Q 3450 3153 3228 2886 Q 3006 2619 2597 2516 z" transform="scale(0.015625)"/><path id="DejaVuSans-35" d="M 691 4666 L 3169 4666 L 3169 4134 L 1269 4134 L 1269 2991 Q 1406 3038 1543 3061 Q 1681 3084 1819 3084 Q 2600 3084 3056 2656 Q 3513 2228 3513 1497 Q 3513 744 3044 326 Q 2575 -91 1722 -91 Q 1428 -91 1123 -41 Q 819 9 494 109 L 494 744 Q 775 591 1075 516 Q 1375 441 1709 441 Q 2250 441 2565 725 Q 2881 1009 2881 1497 Q 2881 1984 2565 2268 Q 2250 2553 1709 2553 Q 1456 2553 1204 2497 Q 953 2441 691 2322 L 691 4666 z" transform="scale(0.015625)"/><path id="DejaVuSans-30" d="M 2034 4250 Q 1547 4250 1301 3770 Q 1056 3291 1056 2328 Q 1056 1369 1301 889 Q 1547 409 2034 409 Q 2525 409 2770 889 Q 3016 1369 3016 2328 Q 3016 3291 2770 3770 Q 2525 4250 2034 4250 z M 2034 4750 Q 2819 4750 3233 4129 Q 3647 3509 3647 2328 Q 3647 1150 3233 529 Q 2819 -91 2034 -91 Q 1250 -91 836 529 Q 422 1150 422 2328 Q 422 3509 836 4129 Q 1250 4750 2034 4750 z" transform="scale(0.015625)"/></defs><use xlink:href="#DejaVuSans-33"/><use x="63.623" xlink:href="#DejaVuSans-35"/><use x="127.246" xlink:href="#DejaVuSans-30"/></g></g></g><g id="xtick_2"><g id="line2d_2"><g><use style="fill:#fff;stroke:#fff;stroke-width:.8" x="199.309" y="512.64" xlink:href="#m50c2108667"/></g></g><g id="text_2"><g style="fill:#fff" transform="translate(189.765341 527.238438)scale(0.1 -0.1)"><defs><path id="DejaVuSans-34" d="M 2419 4116 L 825 1625 L 2419 1625 L 2419 4116 z M 2253 4666 L 3047 4666 L 3047 1625 L 3713 1625 L 3713 1100 L 3047 1100 L 3047 0 L 2419 0 L 2419 1100 L 313 1100 L 313 1709 L 2253 4666 z" transform="scale(0.015625)"/><path id="DejaVuSans-31" d="M 794 531 L 1825 531 L 1825 4091 L 703 3866 L 703 4441 L 1819 4666 L 2450 4666 L 2450 531 L 3481 531 L 3481 0 L 794 0 L 794 531 z" transform="scale(0.015625)"/></defs><use xlink:href="#DejaVuSans-34"/><use x="63.623" xlink:href="#DejaVuSans-31"/><use x="127.246" xlink:href="#DejaVuSans-35"/></g></g></g><g id="xtick_3"><g id="line2d_3"><g><use style="fill:#fff;stroke:#fff;stroke-width:.8" x="260.182" y="512.64" xlink:href="#m50c2108667"/></g></g><g id="text_3"><g style="fill:#fff" transform="translate(250.638068 527.238438)scale(0.1 -0.1)"><defs><path id="DejaVuSans-38" d="M 2034 2216 Q 1584 2216 1326 1975 Q 1069 1734 1069 1313 Q 1069 891 1326 650 Q 1584 409 2034 409 Q 2484 409 2743 651 Q 3003 894 3003 1313 Q 3003 1734 2745 1975 Q 2488 2216 2034 2216 z M 1403 2484 Q 997 2584 770 2862 Q 544 3141 544 3541 Q 544 4100 942 4425 Q 1341 4750 2034 4750 Q 2731 4750 3128 4425 Q 3525 4100 3525 3541 Q 3525 3141 3298 2862 Q 3072 2584 2669 2484 Q 3125 2378 3379 2068 Q 3634 1759 3634 1313 Q 3634 634 3220 271 Q 2806 -91 2034 -91 Q 1263 -91 848 271 Q 434 634 434 1313 Q 434 1759 690 2068 Q 947 2378 1403 2484 z M 1172 3481 Q 1172 3119 1398 2916 Q 1625 2713 2034 2713 Q 2441 2713 2670 2916 Q 2900 3119 2900 3481 Q 2900 3844 2670 4047 Q 2441 4250 2034 4250 Q 1625 4250 1398 4047 Q 1172 3844 1172 3481 z" transform="scale(0.015625)"/></defs><use xlink:href="#DejaVuSans-34"/><use x="63.623" xlink:href="#DejaVuSans-38"/><use x="127.246" xlink:href="#DejaVuSans-30"/></g></g></g><g id="xtick_4"><g id="line2d_4"><g><use style="fill:#fff;stroke:#fff;stroke-width:.8" x="321.055" y="512.64" xlink:href="#m50c2108667"/></g></g><g id="text_4"><g style="fill:#fff" transform="translate(311.510795 527.238438)scale(0.1 -0.1)"><use xlink:href="#DejaVuSans-35"/><use x="63.623" xlink:href="#DejaVuSans-34"/><use x="127.246" xlink:href="#DejaVuSans-35"/></g></g></g><g id="xtick_5"><g id="line2d_5"><g><use style="fill:#fff;stroke:#fff;stroke-width:.8" x="381.927" y="512.64" xlink:href="#m50c2108667"/></g></g><g id="text_5"><g style="fill:#fff" transform="translate(372.383523 527.238438)scale(0.1 -0.1)"><defs><path id="DejaVuSans-36" d="M 2113 2584 Q 1688 2584 1439 2293 Q 1191 2003 1191 1497 Q 1191 994 1439 701 Q 1688 409 2113 409 Q 2538 409 2786 701 Q 3034 994 3034 1497 Q 3034 2003 2786 2293 Q 2538 2584 2113 2584 z M 3366 4563 L 3366 3988 Q 3128 4100 2886 4159 Q 2644 4219 2406 4219 Q 1781 4219 1451 3797 Q 1122 3375 1075 2522 Q 1259 2794 1537 2939 Q 1816 3084 2150 3084 Q 2853 3084 3261 2657 Q 3669 2231 3669 1497 Q 3669 778 3244 343 Q 2819 -91 2113 -91 Q 1303 -91 875 529 Q 447 1150 447 2328 Q 447 3434 972 4092 Q 1497 4750 2381 4750 Q 2619 4750 2861 4703 Q 3103 4656 3366 4563 z" transform="scale(0.015625)"/></defs><use xlink:href="#DejaVuSans-36"/><use x="63.623" xlink:href="#DejaVuSans-31"/><use x="127.246" xlink:href="#DejaVuSans-30"/></g></g></g><g id="xtick_6"><g id="line2d_6"><g><use style="fill:#fff;stroke:#fff;stroke-width:.8" x="442.8" y="512.64" xlink:href="#m50c2108667"/></g></g><g id="text_6"><g style="fill:#fff" transform="translate(433.25625 527.238438)scale(0.1 -0.1)"><defs><path id="DejaVuSans-37" d="M 525 4666 L 3525 4666 L 3525 4397 L 1831 0 L 1172 0 L 2766 4134 L 525 4134 L 525 4666 z" transform="scale(0.015625)"/></defs><use xlink:href="#DejaVuSans-36"/><use x="63.623" xlink:href="#DejaVuSans-37"/><use x="127.246" xlink:href="#DejaVuSans-35"/></g></g></g><g id="xtick_7"><g id="line2d_7"><g><use style="fill:#fff;stroke:#fff;stroke-width:.8" x="503.673" y="512.64" xlink:href="#m50c2108667"/></g></g><g id="text_7"><g style="fill:#fff" transform="translate(494.128977 527.238438)scale(0.1 -0.1)"><use xlink:href="#DejaVuSans-37"/><use x="63.623" xlink:href="#DejaVuSans-34"/><use x="127.246" xlink:href="#DejaVuSans-30"/></g></g></g><g id="xtick_8"><g id="line2d_8"><g><use style="fill:#fff;stroke:#fff;stroke-width:.8" x="564.545" y="512.64" xlink:href="#m50c2108667"/></g></g><g id="text_8"><g style="fill:#fff" transform="translate(555.001705 527.238438)scale(0.1 -0.1)"><use xlink:href="#DejaVuSans-38"/><use x="63.623" xlink:href="#DejaVuSans-30"/><use x="127.246" xlink:href="#DejaVuSans-35"/></g></g></g><g id="xtick_9"><g id="line2d_9"><g><use style="fill:#fff;stroke:#fff;stroke-width:.8" x="625.418" y="512.64" xlink:href="#m50c2108667"/></g></g><g id="text_9"><g style="fill:#fff" transform="translate(615.874432 527.238438)scale(0.1 -0.1)"><use xlink:href="#DejaVuSans-38"/><use x="63.623" xlink:href="#DejaVuSans-37"/><use x="127.246" xlink:href="#DejaVuSans-30"/></g></g></g><g id="xtick_10"><g id="line2d_10"><g><use style="fill:#fff;stroke:#fff;stroke-width:.8" x="686.291" y="512.64" xlink:href="#m50c2108667"/></g></g><g id="text_10"><g style="fill:#fff" transform="translate(676.747159 527.238438)scale(0.1 -0.1)"><defs><path id="DejaVuSans-39" d="M 703 97 L 703 672 Q 941 559 1184 500 Q 1428 441 1663 441 Q 2288 441 2617 861 Q 2947 1281 2994 2138 Q 2813 1869 2534 1725 Q 2256 1581 1919 1581 Q 1219 1581 811 2004 Q 403 2428 403 3163 Q 403 3881 828 4315 Q 1253 4750 1959 4750 Q 2769 4750 3195 4129 Q 3622 3509 3622 2328 Q 3622 1225 3098 567 Q 2575 -91 1691 -91 Q 1453 -91 1209 -44 Q 966 3 703 97 z M 1959 2075 Q 2384 2075 2632 2365 Q 2881 2656 2881 3163 Q 2881 3666 2632 3958 Q 2384 4250 1959 4250 Q 1534 4250 1286 3958 Q 1038 3666 1038 3163 Q 1038 2656 1286 2365 Q 1534 2075 1959 2075 z" transform="scale(0.015625)"/></defs><use xlink:href="#DejaVuSans-39"/><use x="63.623" xlink:href="#DejaVuSans-33"/><use x="127.246" xlink:href="#DejaVuSans-35"/></g></g></g><g id="xtick_11"><g id="line2d_11"><g><use style="fill:#fff;stroke:#fff;stroke-width:.8" x="747.164" y="512.64" xlink:href="#m50c2108667"/></g></g><g id="text_11"><g style="fill:#fff" transform="translate(734.438636 527.238438)scale(0.1 -0.1)"><use xlink:href="#DejaVuSans-31"/><use x="63.623" xlink:href="#DejaVuSans-30"/><use x="127.246" xlink:href="#DejaVuSans-30"/><use x="190.869" xlink:href="#DejaVuSans-30"/></g></g></g><g id="text_12"><g style="fill:#fff" transform="translate(426.271094 540.916563)scale(0.1 -0.1)"><defs><path id="DejaVuSans-48" d="M 628 4666 L 1259 4666 L 1259 2753 L 3553 2753 L 3553 4666 L 4184 4666 L 4184 0 L 3553 0 L 3553 2222 L 1259 2222 L 1259 0 L 628 0 L 628 4666 z" transform="scale(0.015625)"/><path id="DejaVuSans-65" d="M 3597 1894 L 3597 1613 L 953 1613 Q 991 1019 1311 708 Q 1631 397 2203 397 Q 2534 397 2845 478 Q 3156 559 3463 722 L 3463 178 Q 3153 47 2828 -22 Q 2503 -91 2169 -91 Q 1331 -91 842 396 Q 353 884 353 1716 Q 353 2575 817 3079 Q 1281 3584 2069 3584 Q 2775 3584 3186 3129 Q 3597 2675 3597 1894 z M 3022 2063 Q 3016 2534 2758 2815 Q 2500 3097 2075 3097 Q 1594 3097 1305 2825 Q 1016 2553 972 2059 L 3022 2063 z" transform="scale(0.015625)"/><path id="DejaVuSans-69" d="M 603 3500 L 1178 3500 L 1178 0 L 603 0 L 603 3500 z M 603 4863 L 1178 4863 L 1178 4134 L 603 4134 L 603 4863 z" transform="scale(0.015625)"/><path id="DejaVuSans-67" d="M 2906 1791 Q 2906 2416 2648 2759 Q 2391 3103 1925 3103 Q 1463 3103 1205 2759 Q 947 2416 947 1791 Q 947 1169 1205 825 Q 1463 481 1925 481 Q 2391 481 2648 825 Q 2906 1169 2906 1791 z M 3481 434 Q 3481 -459 3084 -895 Q 2688 -1331 1869 -1331 Q 1566 -1331 1297 -1286 Q 1028 -1241 775 -1147 L 775 -588 Q 1028 -725 1275 -790 Q 1522 -856 1778 -856 Q 2344 -856 2625 -561 Q 2906 -266 2906 331 L 2906 616 Q 2728 306 2450 153 Q 2172 0 1784 0 Q 1141 0 747 490 Q 353 981 353 1791 Q 353 2603 747 3093 Q 1141 3584 1784 3584 Q 2172 3584 2450 3431 Q 2728 3278 2906 2969 L 2906 3500 L 3481 3500 L 3481 434 z" transform="scale(0.015625)"/><path id="DejaVuSans-68" d="M 3513 2113 L 3513 0 L 2938 0 L 2938 2094 Q 2938 2591 2744 2837 Q 2550 3084 2163 3084 Q 1697 3084 1428 2787 Q 1159 2491 1159 1978 L 1159 0 L 581 0 L 581 4863 L 1159 4863 L 1159 2956 Q 1366 3272 1645 3428 Q 1925 3584 2291 3584 Q 2894 3584 3203 3211 Q 3513 2838 3513 2113 z" transform="scale(0.015625)"/><path id="DejaVuSans-74" d="M 1172 4494 L 1172 3500 L 2356 3500 L 2356 3053 L 1172 3053 L 1172 1153 Q 1172 725 1289 603 Q 1406 481 1766 481 L 2356 481 L 2356 0 L 1766 0 Q 1100 0 847 248 Q 594 497 594 1153 L 594 3053 L 172 3053 L 172 3500 L 594 3500 L 594 4494 L 1172 4494 z" transform="scale(0.015625)"/></defs><use xlink:href="#DejaVuSans-48"/><use x="75.195" xlink:href="#DejaVuSans-65"/><use x="136.719" xlink:href="#DejaVuSans-69"/><use x="164.502" xlink:href="#DejaVuSans-67"/><use x="227.979" xlink:href="#DejaVuSans-68"/><use x="291.357" xlink:href="#DejaVuSans-74"/></g></g></g><g id="matplotlib.axis_2"><g id="ytick_1"><g id="line2d_12"><defs><path id="me2dc1def81" d="M 0 0 L -3.5 0" style="stroke:#fff;stroke-width:.8"/></defs><g><use style="fill:#fff;stroke:#fff;stroke-width:.8" x="108" y="491.431" xlink:href="#me2dc1def81"/></g></g><g id="text_13"><g style="fill:#fff" transform="translate(77.5 495.229823)scale(0.1 -0.1)"><defs><path id="DejaVuSans-2212" d="M 678 2272 L 4684 2272 L 4684 1741 L 678 1741 L 678 2272 z" transform="scale(0.015625)"/></defs><use transform="translate(0 0.684375)" xlink:href="#DejaVuSans-31"/><use transform="translate(63.623047 0.684375)" xlink:href="#DejaVuSans-30"/><use transform="translate(128.203125 38.965625)scale(0.7)" xlink:href="#DejaVuSans-2212"/><use transform="translate(186.855469 38.965625)scale(0.7)" xlink:href="#DejaVuSans-34"/></g></g></g><g id="ytick_2"><g id="line2d_13"><g><use style="fill:#fff;stroke:#fff;stroke-width:.8" x="108" y="187.476" xlink:href="#me2dc1def81"/></g></g><g id="text_14"><g style="fill:#fff" transform="translate(77.5 191.275356)scale(0.1 -0.1)"><use transform="translate(0 0.765625)" xlink:href="#DejaVuSans-31"/><use transform="translate(63.623047 0.765625)" xlink:href="#DejaVuSans-30"/><use transform="translate(128.203125 39.046875)scale(0.7)" xlink:href="#DejaVuSans-2212"/><use transform="translate(186.855469 39.046875)scale(0.7)" xlink:href="#DejaVuSans-33"/></g></g></g><g id="ytick_3"><g id="line2d_14"><defs><path id="m10eca1a12c" d="M 0 0 L -2 0" style="stroke:#fff;stroke-width:.6"/></defs><g><use style="fill:#fff;stroke:#fff;stroke-width:.6" x="108" y="505.339" xlink:href="#m10eca1a12c"/></g></g></g><g id="ytick_4"><g id="line2d_15"><g><use style="fill:#fff;stroke:#fff;stroke-width:.6" x="108" y="399.931" xlink:href="#m10eca1a12c"/></g></g></g><g id="ytick_5"><g id="line2d_16"><g><use style="fill:#fff;stroke:#fff;stroke-width:.6" x="108" y="346.407" xlink:href="#m10eca1a12c"/></g></g></g><g id="ytick_6"><g id="line2d_17"><g><use style="fill:#fff;stroke:#fff;stroke-width:.6" x="108" y="308.432" xlink:href="#m10eca1a12c"/></g></g></g><g id="ytick_7"><g id="line2d_18"><g><use style="fill:#fff;stroke:#fff;stroke-width:.6" x="108" y="278.976" xlink:href="#m10eca1a12c"/></g></g></g><g id="ytick_8"><g id="line2d_19"><g><use style="fill:#fff;stroke:#fff;stroke-width:.6" x="108" y="254.908" xlink:href="#m10eca1a12c"/></g></g></g><g id="ytick_9"><g id="line2d_20"><g><use style="fill:#fff;stroke:#fff;stroke-width:.6" x="108" y="234.559" xlink:href="#m10eca1a12c"/></g></g></g><g id="ytick_10"><g id="line2d_21"><g><use style="fill:#fff;stroke:#fff;stroke-width:.6" x="108" y="216.932" xlink:href="#m10eca1a12c"/></g></g></g><g id="ytick_11"><g id="line2d_22"><g><use style="fill:#fff;stroke:#fff;stroke-width:.6" x="108" y="201.384" xlink:href="#m10eca1a12c"/></g></g></g><g id="ytick_12"><g id="line2d_23"><g><use style="fill:#fff;stroke:#fff;stroke-width:.6" x="108" y="95.977" xlink:href="#m10eca1a12c"/></g></g></g><g id="text_15"><g style="fill:#fff" transform="translate(71.420312 324.735469)rotate(-90)scale(0.1 -0.1)"><defs><path id="DejaVuSans-52" d="M 2841 2188 Q 3044 2119 3236 1894 Q 3428 1669 3622 1275 L 4263 0 L 3584 0 L 2988 1197 Q 2756 1666 2539 1819 Q 2322 1972 1947 1972 L 1259 1972 L 1259 0 L 628 0 L 628 4666 L 2053 4666 Q 2853 4666 3247 4331 Q 3641 3997 3641 3322 Q 3641 2881 3436 2590 Q 3231 2300 2841 2188 z M 1259 4147 L 1259 2491 L 2053 2491 Q 2509 2491 2742 2702 Q 2975 2913 2975 3322 Q 2975 3731 2742 3939 Q 2509 4147 2053 4147 L 1259 4147 z" transform="scale(0.015625)"/><path id="DejaVuSans-6c" d="M 603 4863 L 1178 4863 L 1178 0 L 603 0 L 603 4863 z" transform="scale(0.015625)"/><path id="DejaVuSans-61" d="M 2194 1759 Q 1497 1759 1228 1600 Q 959 1441 959 1056 Q 959 750 1161 570 Q 1363 391 1709 391 Q 2188 391 2477 730 Q 2766 1069 2766 1631 L 2766 1759 L 2194 1759 z M 3341 1997 L 3341 0 L 2766 0 L 2766 531 Q 2569 213 2275 61 Q 1981 -91 1556 -91 Q 1019 -91 701 211 Q 384 513 384 1019 Q 384 1609 779 1909 Q 1175 2209 1959 2209 L 2766 2209 L 2766 2266 Q 2766 2663 2505 2880 Q 2244 3097 1772 3097 Q 1472 3097 1187 3025 Q 903 2953 641 2809 L 641 3341 Q 956 3463 1253 3523 Q 1550 3584 1831 3584 Q 2591 3584 2966 3190 Q 3341 2797 3341 1997 z" transform="scale(0.015625)"/><path id="DejaVuSans-76" d="M 191 3500 L 800 3500 L 1894 563 L 2988 3500 L 3597 3500 L 2284 0 L 1503 0 L 191 3500 z" transform="scale(0.015625)"/><path id="DejaVuSans-20" transform="scale(0.015625)"/><path id="DejaVuSans-72" d="M 2631 2963 Q 2534 3019 2420 3045 Q 2306 3072 2169 3072 Q 1681 3072 1420 2755 Q 1159 2438 1159 1844 L 1159 0 L 581 0 L 581 3500 L 1159 3500 L 1159 2956 Q 1341 3275 1631 3429 Q 1922 3584 2338 3584 Q 2397 3584 2469 3576 Q 2541 3569 2628 3553 L 2631 2963 z" transform="scale(0.015625)"/><path id="DejaVuSans-6f" d="M 1959 3097 Q 1497 3097 1228 2736 Q 959 2375 959 1747 Q 959 1119 1226 758 Q 1494 397 1959 397 Q 2419 397 2687 759 Q 2956 1122 2956 1747 Q 2956 2369 2687 2733 Q 2419 3097 1959 3097 z M 1959 3584 Q 2709 3584 3137 3096 Q 3566 2609 3566 1747 Q 3566 888 3137 398 Q 2709 -91 1959 -91 Q 1206 -91 779 398 Q 353 888 353 1747 Q 353 2609 779 3096 Q 1206 3584 1959 3584 z" transform="scale(0.015625)"/></defs><use xlink:href="#DejaVuSans-52"/><use x="64.982" xlink:href="#DejaVuSans-65"/><use x="126.506" xlink:href="#DejaVuSans-6c"/><use x="154.289" xlink:href="#DejaVuSans-61"/><use x="215.568" xlink:href="#DejaVuSans-74"/><use x="254.777" xlink:href="#DejaVuSans-69"/><use x="282.561" xlink:href="#DejaVuSans-76"/><use x="341.74" xlink:href="#DejaVuSans-65"/><use x="403.264" xlink:href="#DejaVuSans-20"/><use x="435.051" xlink:href="#DejaVuSans-65"/><use x="496.574" xlink:href="#DejaVuSans-72"/><use x="535.938" xlink:href="#DejaVuSans-72"/><use x="574.801" xlink:href="#DejaVuSans-6f"/><use x="635.982" xlink:href="#DejaVuSans-72"/></g></g></g><g id="line2d_24"><path d="M 138.436364 97.206112 L 139.372867 96.304968 L 140.309371 96.130557 L 141.245874 98.815017 L 142.182378 96.695486 L 143.118881 95.616855 L 144.055385 103.560882 L 144.991888 98.220119 L 145.928392 103.718447 L 146.864895 89.28 L 147.801399 180.895328 L 148.737902 92.915136 L 149.674406 99.707164 L 150.610909 103.366252 L 151.547413 102.157942 L 152.483916 108.4927 L 153.42042 106.094564 L 154.356923 106.54396 L 155.293427 105.448627 L 156.22993 109.93185 L 157.166434 106.756161 L 158.102937 110.134057 L 159.039441 108.836307 L 159.975944 110.105535 L 160.912448 111.779903 L 161.848951 110.500866 L 162.785455 113.104733 L 163.721958 110.089223 L 164.658462 115.60503 L 165.594965 115.494556 L 166.531469 116.136711 L 167.467972 115.372943 L 168.404476 115.540225 L 169.340979 117.092912 L 170.277483 117.078263 L 171.213986 118.060502 L 172.15049 119.832324 L 173.086993 118.506542 L 174.023497 120.559655 L 174.96 119.843368 L 175.896503 120.851083 L 176.833007 119.949166 L 177.76951 123.113428 L 178.706014 123.196924 L 179.642517 123.668175 L 180.579021 125.641504 L 181.515524 124.569316 L 182.452028 124.402467 L 183.388531 127.422431 L 184.325035 128.582086 L 185.261538 126.670619 L 186.198042 128.763938 L 187.134545 129.405295 L 188.071049 129.276272 L 189.007552 129.552748 L 189.944056 130.705288 L 190.880559 131.540173 L 191.817063 132.669522 L 192.753566 131.740489 L 193.69007 133.080168 L 194.626573 133.178645 L 195.563077 133.804477 L 196.49958 133.897364 L 197.436084 135.499628 L 198.372587 137.481772 L 199.309091 137.975472 L 200.245594 137.364219 L 201.182098 137.640801 L 202.118601 138.967849 L 203.055105 140.05202 L 203.991608 139.35645 L 204.928112 140.075825 L 205.864615 141.452259 L 206.801119 141.344554 L 207.737622 141.948231 L 208.674126 143.3621 L 209.610629 144.323743 L 210.547133 144.665046 L 211.483636 144.729012 L 212.42014 145.026942 L 213.356643 146.593328 L 214.293147 146.165804 L 215.22965 146.956127 L 216.166154 149.038389 L 217.102657 148.030739 L 218.039161 147.903376 L 218.975664 149.074131 L 219.912168 150.644015 L 220.848671 151.149027 L 221.785175 152.431548 L 222.721678 152.294013 L 223.658182 153.415146 L 224.594685 153.192223 L 225.531189 154.851907 L 226.467692 155.980588 L 227.404196 154.456941 L 228.340699 154.764735 L 229.277203 157.184769 L 230.213706 157.895807 L 231.15021 156.863487 L 232.086713 157.771032 L 233.023217 159.79061 L 233.95972 158.784878 L 234.896224 159.495374 L 235.832727 161.456008 L 236.769231 160.844922 L 237.705734 161.411342 L 238.642238 162.6029 L 239.578741 162.035025 L 241.451748 164.5511 L 242.388252 165.297957 L 243.324755 165.022176 L 244.261259 166.011672 L 245.197762 166.110765 L 246.134266 167.857335 L 247.070769 167.218627 L 248.007273 167.954209 L 249.88028 168.500317 L 250.816783 169.255273 L 251.753287 170.339721 L 252.68979 170.633373 L 253.626294 171.373935 L 255.499301 173.335433 L 256.435804 172.808077 L 257.372308 174.491512 L 258.308811 173.709032 L 259.245315 175.441727 L 260.181818 175.990412 L 261.118322 175.83353 L 262.054825 176.524681 L 263.927832 178.581624 L 264.864336 177.213441 L 265.800839 179.526101 L 266.737343 179.301081 L 267.673846 179.283267 L 268.61035 180.824539 L 269.546853 180.225452 L 270.483357 180.693834 L 271.41986 181.934645 L 272.356364 182.363743 L 273.292867 183.625355 L 274.229371 183.75417 L 275.165874 184.888084 L 276.102378 185.399459 L 277.038881 186.107728 L 277.975385 185.616476 L 278.911888 186.25461 L 279.848392 186.668032 L 280.784895 187.761793 L 281.721399 188.04705 L 282.657902 188.801198 L 283.594406 188.309743 L 284.530909 191.520428 L 286.403916 190.131779 L 287.34042 191.289724 L 288.276923 191.804962 L 289.213427 190.763721 L 290.14993 192.693014 L 291.086434 193.276801 L 292.022937 193.115519 L 292.959441 193.952712 L 293.895944 194.346453 L 294.832448 196.297842 L 295.768951 194.968226 L 296.705455 197.116335 L 298.578462 197.327154 L 299.514965 198.454065 L 301.387972 198.394429 L 302.324476 198.873764 L 303.260979 199.540665 L 304.197483 200.70743 L 305.133986 200.087374 L 306.07049 201.264407 L 307.006993 203.022429 L 307.943497 202.198637 L 308.88 202.662939 L 309.816503 203.270387 L 310.753007 204.080148 L 311.68951 203.918447 L 315.435524 206.685473 L 316.372028 206.928005 L 317.308531 208.70017 L 318.245035 208.772657 L 319.181538 208.639082 L 320.118042 208.905566 L 321.054545 210.200509 L 321.991049 209.690036 L 322.927552 210.20081 L 323.864056 211.791538 L 325.737063 211.272046 L 326.673566 212.170037 L 327.61007 212.81584 L 328.546573 212.600032 L 330.41958 214.283157 L 332.292587 215.187545 L 333.229091 215.413352 L 335.102098 217.192976 L 336.038601 216.069163 L 337.911608 218.584475 L 338.848112 217.475196 L 339.784615 219.381596 L 340.721119 219.37882 L 341.657622 217.863841 L 342.594126 220.651494 L 343.530629 220.9804 L 344.467133 220.76673 L 345.403636 220.844936 L 346.34014 221.877674 L 347.276643 222.227601 L 348.213147 221.459749 L 349.14965 223.560541 L 350.086154 223.19449 L 351.022657 224.296537 L 351.959161 224.368292 L 352.895664 225.009587 L 353.832168 225.198207 L 354.768671 225.758313 L 356.641678 225.678939 L 357.578182 227.221209 L 358.514685 228.512958 L 359.451189 227.221964 L 360.387692 228.990081 L 361.324196 228.769089 L 362.260699 228.749682 L 363.197203 229.049875 L 364.133706 229.559937 L 365.07021 229.511104 L 366.006713 230.104486 L 366.943217 230.882404 L 367.87972 232.417836 L 368.816224 231.25441 L 369.752727 231.468809 L 370.689231 232.913805 L 371.625734 233.059476 L 372.562238 234.754626 L 373.498741 233.906837 L 374.435245 234.162069 L 375.371748 234.670837 L 376.308252 234.586689 L 378.181259 233.998723 L 379.117762 236.790603 L 380.054266 235.948096 L 380.990769 236.376404 L 381.927273 237.806023 L 382.863776 238.104662 L 383.80028 237.400624 L 384.736783 238.966201 L 385.673287 238.070049 L 386.60979 238.108793 L 387.546294 239.501375 L 388.482797 238.712605 L 389.419301 240.505679 L 390.355804 238.927343 L 391.292308 240.636413 L 392.228811 241.862021 L 393.165315 241.906334 L 394.101818 242.10652 L 395.038322 243.288086 L 395.974825 241.632676 L 396.911329 242.90306 L 397.847832 243.30159 L 398.784336 242.651384 L 399.720839 243.603228 L 400.657343 245.26981 L 401.593846 245.468526 L 402.53035 243.802616 L 403.466853 244.886734 L 404.403357 245.490873 L 405.33986 246.284457 L 406.276364 247.417815 L 407.212867 246.356091 L 408.149371 248.009153 L 409.085874 245.289075 L 410.022378 248.146634 L 410.958881 248.419026 L 411.895385 247.923025 L 412.831888 249.852418 L 413.768392 249.666575 L 414.704895 249.089881 L 415.641399 251.399053 L 416.577902 249.415777 L 417.514406 250.822029 L 418.450909 252.692384 L 419.387413 250.360867 L 420.323916 251.831547 L 421.26042 251.796272 L 422.196923 252.205104 L 423.133427 250.876894 L 425.006434 254.752057 L 425.942937 255.332682 L 426.879441 252.804431 L 427.815944 254.94416 L 428.752448 255.615132 L 429.688951 253.802596 L 430.625455 257.47997 L 431.561958 257.092881 L 432.498462 256.24807 L 433.434965 256.591844 L 434.371469 257.814117 L 435.307972 257.575769 L 436.244476 260.414494 L 437.180979 260.096353 L 438.117483 257.116349 L 439.053986 257.169126 L 439.99049 259.299362 L 440.926993 259.713894 L 441.863497 259.873698 L 442.8 259.708969 L 443.736503 263.12323 L 444.673007 260.874147 L 445.60951 261.600791 L 446.546014 261.219754 L 447.482517 263.01176 L 448.419021 263.336583 L 449.355524 261.781025 L 450.292028 264.905596 L 451.228531 264.080648 L 452.165035 258.544221 L 453.101538 267.670901 L 454.038042 264.414465 L 454.974545 266.588805 L 455.911049 267.023495 L 456.847552 265.534827 L 457.784056 266.274549 L 459.657063 263.554428 L 460.593566 265.379242 L 461.53007 269.537209 L 462.466573 268.054725 L 463.403077 267.389807 L 464.33958 265.830365 L 465.276084 267.73425 L 466.212587 268.132059 L 467.149091 267.965618 L 468.085594 270.365837 L 469.022098 275.233989 L 469.958601 267.58165 L 470.895105 271.853579 L 471.831608 269.276173 L 472.768112 271.723108 L 473.704615 274.506549 L 474.641119 276.612009 L 475.577622 271.623736 L 476.514126 275.045806 L 477.450629 273.447463 L 478.387133 272.360287 L 479.323636 275.513454 L 480.26014 280.972741 L 481.196643 268.284549 L 482.133147 277.146526 L 483.06965 269.541938 L 484.006154 307.683554 L 484.942657 209.839194 L 485.879161 302.538205 L 486.815664 281.331813 L 487.752168 276.971691 L 488.688671 281.002368 L 489.625175 272.993668 L 490.561678 280.012233 L 491.498182 279.79892 L 492.434685 282.350462 L 493.371189 278.346174 L 494.307692 285.49554 L 495.244196 279.942884 L 496.180699 285.474007 L 497.117203 280.661339 L 498.053706 279.541728 L 498.99021 284.326791 L 499.926713 278.849789 L 500.863217 289.440242 L 501.79972 281.384243 L 502.736224 279.711215 L 503.672727 280.593842 L 504.609231 283.775375 L 505.545734 283.979221 L 506.482238 285.393009 L 507.418741 286.133198 L 508.355245 286.408725 L 509.291748 283.385413 L 510.228252 286.576841 L 511.164755 283.877915 L 512.101259 290.916187 L 513.037762 289.153406 L 513.974266 289.560851 L 514.910769 289.097571 L 515.847273 288.194668 L 516.783776 291.518539 L 517.72028 285.608356 L 518.656783 289.186409 L 519.593287 295.130091 L 520.52979 289.23031 L 521.466294 288.088808 L 522.402797 295.144208 L 523.339301 289.081143 L 524.275804 289.669803 L 525.212308 292.481103 L 526.148811 295.850716 L 527.085315 292.869127 L 528.021818 292.83907 L 528.958322 293.617377 L 529.894825 295.942663 L 530.831329 293.781198 L 531.767832 296.550118 L 532.704336 297.259754 L 533.640839 298.148615 L 534.577343 297.161968 L 535.513846 296.665197 L 536.45035 293.553964 L 537.386853 300.043352 L 538.323357 299.423911 L 539.25986 296.707267 L 540.196364 297.22872 L 541.132867 301.41063 L 542.069371 300.174014 L 543.005874 298.081281 L 543.942378 302.825315 L 544.878881 302.993712 L 545.815385 298.202295 L 546.751888 297.957299 L 547.688392 302.921159 L 548.624895 300.26792 L 549.561399 304.042631 L 550.497902 303.057842 L 551.434406 304.890246 L 552.370909 306.17078 L 553.307413 303.480487 L 554.243916 306.423716 L 555.18042 310.317841 L 556.116923 307.364013 L 557.053427 307.58734 L 557.98993 306.182904 L 558.926434 306.839507 L 559.862937 307.711553 L 560.799441 305.380234 L 561.735944 308.538666 L 562.672448 310.623393 L 563.608951 306.800194 L 564.545455 313.201941 L 565.481958 312.614323 L 566.418462 308.803757 L 567.354965 309.564258 L 568.291469 313.615036 L 569.227972 313.542983 L 570.164476 312.900063 L 571.100979 315.96054 L 572.037483 316.136419 L 572.973986 312.810484 L 573.91049 316.726519 L 574.846993 317.553682 L 575.783497 316.063478 L 576.72 317.782898 L 577.656503 319.853909 L 579.52951 315.379443 L 580.466014 318.887698 L 581.402517 319.301719 L 582.339021 319.524299 L 583.275524 319.989363 L 584.212028 319.313925 L 585.148531 320.042354 L 586.085035 324.383763 L 587.021538 323.514847 L 587.958042 326.860668 L 588.894545 325.416368 L 589.831049 324.97486 L 590.767552 326.329866 L 591.704056 323.354838 L 592.640559 323.244648 L 593.577063 327.161203 L 594.513566 325.515851 L 595.45007 330.010771 L 596.386573 327.361283 L 597.323077 326.513265 L 599.196084 330.254698 L 600.132587 331.306249 L 601.069091 328.454292 L 602.005594 334.757619 L 602.942098 331.454353 L 603.878601 331.737769 L 604.815105 334.597252 L 605.751608 332.035766 L 606.688112 336.223933 L 607.624615 336.72504 L 608.561119 336.594908 L 609.497622 337.703281 L 610.434126 335.872536 L 611.370629 336.025109 L 612.307133 339.807472 L 613.243636 337.686951 L 614.18014 337.473617 L 615.116643 340.04306 L 616.053147 339.545017 L 616.98965 344.104493 L 617.926154 339.59504 L 619.799161 344.11965 L 620.735664 344.644645 L 621.672168 337.966465 L 622.608671 342.604339 L 623.545175 346.519565 L 624.481678 345.173655 L 625.418182 344.717391 L 626.354685 349.95727 L 627.291189 348.344267 L 628.227692 345.916584 L 629.164196 350.865424 L 630.100699 351.702373 L 631.973706 349.985787 L 632.91021 354.370655 L 633.846713 349.023993 L 634.783217 350.915157 L 635.71972 354.721751 L 637.592727 354.031487 L 638.529231 356.925709 L 639.465734 355.795875 L 640.402238 356.577267 L 641.338741 358.167579 L 642.275245 361.681008 L 643.211748 360.071466 L 644.148252 356.320544 L 645.084755 362.415476 L 646.021259 364.374331 L 646.957762 365.274869 L 647.894266 362.114746 L 648.830769 363.742606 L 649.767273 367.641025 L 650.703776 365.283241 L 651.64028 370.75871 L 652.576783 368.529617 L 653.513287 410.154427 L 654.44979 364.320305 L 655.386294 367.481497 L 656.322797 370.109049 L 657.259301 371.476618 L 658.195804 366.125178 L 659.132308 370.306976 L 660.068811 373.741741 L 661.005315 373.989694 L 661.941818 374.008615 L 662.878322 378.505964 L 663.814825 376.733014 L 664.751329 375.546793 L 665.687832 377.90213 L 666.624336 382.394095 L 667.560839 376.263625 L 668.497343 379.992536 L 669.433846 382.550494 L 670.37035 383.838438 L 671.306853 382.206627 L 672.243357 383.534853 L 673.17986 386.94435 L 674.116364 383.061491 L 675.052867 385.004915 L 675.989371 388.780075 L 676.925874 384.948785 L 677.862378 386.137001 L 678.798881 394.831401 L 679.735385 387.775463 L 680.671888 391.269739 L 681.608392 391.102057 L 682.544895 394.309114 L 683.481399 394.183768 L 684.417902 396.741206 L 685.354406 402.906913 L 686.290909 397.743646 L 687.227413 395.96319 L 688.163916 398.950139 L 689.10042 402.91934 L 690.036923 400.807706 L 690.973427 401.522508 L 691.90993 401.667478 L 692.846434 408.946587 L 693.782937 407.802668 L 694.719441 408.9918 L 695.655944 400.983818 L 696.592448 410.853997 L 697.528951 407.22203 L 698.465455 408.021646 L 699.401958 408.546877 L 700.338462 414.349868 L 701.274965 416.414828 L 702.211469 415.12149 L 703.147972 420.105714 L 704.084476 416.640902 L 705.020979 411.979198 L 705.957483 424.846836 L 706.893986 423.008748 L 707.83049 422.226747 L 708.766993 421.660868 L 709.703497 420.146264 L 710.64 424.215267 L 711.576503 429.52406 L 712.513007 433.39173 L 713.44951 428.876479 L 714.386014 432.541829 L 715.322517 435.561161 L 716.259021 431.426991 L 717.195524 432.6327 L 718.132028 437.702399 L 719.068531 435.558723 L 720.005035 436.312143 L 721.878042 443.847031 L 722.814545 445.224806 L 723.751049 448.755643 L 724.687552 444.214347 L 725.624056 450.546014 L 726.560559 445.04921 L 727.497063 457.038356 L 728.433566 452.363979 L 729.37007 449.346536 L 730.306573 451.813278 L 731.243077 456.168626 L 732.17958 449.95497 L 733.116084 466.228513 L 734.052587 456.740947 L 734.989091 461.392517 L 735.925594 463.432122 L 736.862098 468.661011 L 737.798601 465.306281 L 738.735105 467.368407 L 739.671608 480.46862 L 741.544615 476.452824 L 742.481119 474.871902 L 743.417622 476.503256 L 744.354126 479.269739 L 745.290629 480.814016 L 746.227133 492.48 L 747.163636 487.965646 L 747.163636 487.965646" clip-path="url(#pf00084a7a9)" style="fill:none;stroke:#fff;stroke-linecap:square;stroke-width:1.5"/><defs><path id="m040989abc0" d="M 0 1.5 C 0.397805 1.5 0.77937 1.341951 1.06066 1.06066 C 1.341951 0.77937 1.5 0.397805 1.5 0 C 1.5 -0.397805 1.341951 -0.77937 1.06066 -1.06066 C 0.77937 -1.341951 0.397805 -1.5 0 -1.5 C -0.397805 -1.5 -0.77937 -1.341951 -1.06066 -1.06066 C -1.341951 -0.77937 -1.5 -0.397805 -1.5 0 C -1.5 0.397805 -1.341951 0.77937 -1.06066 1.06066 C -0.77937 1.341951 -0.397805 1.5 0 1.5 z" style="stroke:#fff"/></defs><g clip-path="url(#pf00084a7a9)"><use style="fill:#fff;stroke:#fff" x="138.436" y="97.206" xlink:href="#m040989abc0"/><use style="fill:#fff;stroke:#fff" x="139.373" y="96.305" xlink:href="#m040989abc0"/><use style="fill:#fff;stroke:#fff" x="140.309" y="96.131" xlink:href="#m040989abc0"/><use style="fill:#fff;stroke:#fff" x="141.246" y="98.815" xlink:href="#m040989abc0"/><use style="fill:#fff;stroke:#fff" x="142.182" y="96.695" xlink:href="#m040989abc0"/><use style="fill:#fff;stroke:#fff" x="143.119" y="95.617" xlink:href="#m040989abc0"/><use style="fill:#fff;stroke:#fff" x="144.055" y="103.561" xlink:href="#m040989abc0"/><use style="fill:#fff;stroke:#fff" x="144.992" y="98.22" xlink:href="#m040989abc0"/><use style="fill:#fff;stroke:#fff" x="145.928" y="103.718" xlink:href="#m040989abc0"/><use style="fill:#fff;stroke:#fff" x="146.865" y="89.28" xlink:href="#m040989abc0"/><use style="fill:#fff;stroke:#fff" x="147.801" y="180.895" xlink:href="#m040989abc0"/><use style="fill:#fff;stroke:#fff" x="148.738" y="92.915" xlink:href="#m040989abc0"/><use style="fill:#fff;stroke:#fff" x="149.674" y="99.707" xlink:href="#m040989abc0"/><use style="fill:#fff;stroke:#fff" x="150.611" y="103.366" xlink:href="#m040989abc0"/><use style="fill:#fff;stroke:#fff" x="151.547" y="102.158" xlink:href="#m040989abc0"/><use style="fill:#fff;stroke:#fff" x="152.484" y="108.493" xlink:href="#m040989abc0"/><use style="fill:#fff;stroke:#fff" x="153.42" y="106.095" xlink:href="#m040989abc0"/><use style="fill:#fff;stroke:#fff" x="154.357" y="106.544" xlink:href="#m040989abc0"/><use style="fill:#fff;stroke:#fff" x="155.293" y="105.449" xlink:href="#m040989abc0"/><use style="fill:#fff;stroke:#fff" x="156.23" y="109.932" xlink:href="#m040989abc0"/><use style="fill:#fff;stroke:#fff" x="157.166" y="106.756" xlink:href="#m040989abc0"/><use style="fill:#fff;stroke:#fff" x="158.103" y="110.134" xlink:href="#m040989abc0"/><use style="fill:#fff;stroke:#fff" x="159.039" y="108.836" xlink:href="#m040989abc0"/><use style="fill:#fff;stroke:#fff" x="159.976" y="110.106" xlink:href="#m040989abc0"/><use style="fill:#fff;stroke:#fff" x="160.912" y="111.78" xlink:href="#m040989abc0"/><use style="fill:#fff;stroke:#fff" x="161.849" y="110.501" xlink:href="#m040989abc0"/><use style="fill:#fff;stroke:#fff" x="162.785" y="113.105" xlink:href="#m040989abc0"/><use style="fill:#fff;stroke:#fff" x="163.722" y="110.089" xlink:href="#m040989abc0"/><use style="fill:#fff;stroke:#fff" x="164.658" y="115.605" xlink:href="#m040989abc0"/><use style="fill:#fff;stroke:#fff" x="165.595" y="115.495" xlink:href="#m040989abc0"/><use style="fill:#fff;stroke:#fff" x="166.531" y="116.137" xlink:href="#m040989abc0"/><use style="fill:#fff;stroke:#fff" x="167.468" y="115.373" xlink:href="#m040989abc0"/><use style="fill:#fff;stroke:#fff" x="168.404" y="115.54" xlink:href="#m040989abc0"/><use style="fill:#fff;stroke:#fff" x="169.341" y="117.093" xlink:href="#m040989abc0"/><use style="fill:#fff;stroke:#fff" x="170.277" y="117.078" xlink:href="#m040989abc0"/><use style="fill:#fff;stroke:#fff" x="171.214" y="118.061" xlink:href="#m040989abc0"/><use style="fill:#fff;stroke:#fff" x="172.15" y="119.832" xlink:href="#m040989abc0"/><use style="fill:#fff;stroke:#fff" x="173.087" y="118.507" xlink:href="#m040989abc0"/><use style="fill:#fff;stroke:#fff" x="174.023" y="120.56" xlink:href="#m040989abc0"/><use style="fill:#fff;stroke:#fff" x="174.96" y="119.843" xlink:href="#m040989abc0"/><use style="fill:#fff;stroke:#fff" x="175.897" y="120.851" xlink:href="#m040989abc0"/><use style="fill:#fff;stroke:#fff" x="176.833" y="119.949" xlink:href="#m040989abc0"/><use style="fill:#fff;stroke:#fff" x="177.77" y="123.113" xlink:href="#m040989abc0"/><use style="fill:#fff;stroke:#fff" x="178.706" y="123.197" xlink:href="#m040989abc0"/><use style="fill:#fff;stroke:#fff" x="179.643" y="123.668" xlink:href="#m040989abc0"/><use style="fill:#fff;stroke:#fff" x="180.579" y="125.642" xlink:href="#m040989abc0"/><use style="fill:#fff;stroke:#fff" x="181.516" y="124.569" xlink:href="#m040989abc0"/><use style="fill:#fff;stroke:#fff" x="182.452" y="124.402" xlink:href="#m040989abc0"/><use style="fill:#fff;stroke:#fff" x="183.389" y="127.422" xlink:href="#m040989abc0"/><use style="fill:#fff;stroke:#fff" x="184.325" y="128.582" xlink:href="#m040989abc0"/><use style="fill:#fff;stroke:#fff" x="185.262" y="126.671" xlink:href="#m040989abc0"/><use style="fill:#fff;stroke:#fff" x="186.198" y="128.764" xlink:href="#m040989abc0"/><use style="fill:#fff;stroke:#fff" x="187.135" y="129.405" xlink:href="#m040989abc0"/><use style="fill:#fff;stroke:#fff" x="188.071" y="129.276" xlink:href="#m040989abc0"/><use style="fill:#fff;stroke:#fff" x="189.008" y="129.553" xlink:href="#m040989abc0"/><use style="fill:#fff;stroke:#fff" x="189.944" y="130.705" xlink:href="#m040989abc0"/><use style="fill:#fff;stroke:#fff" x="190.881" y="131.54" xlink:href="#m040989abc0"/><use style="fill:#fff;stroke:#fff" x="191.817" y="132.67" xlink:href="#m040989abc0"/><use style="fill:#fff;stroke:#fff" x="192.754" y="131.74" xlink:href="#m040989abc0"/><use style="fill:#fff;stroke:#fff" x="193.69" y="133.08" xlink:href="#m040989abc0"/><use style="fill:#fff;stroke:#fff" x="194.627" y="133.179" xlink:href="#m040989abc0"/><use style="fill:#fff;stroke:#fff" x="195.563" y="133.804" xlink:href="#m040989abc0"/><use style="fill:#fff;stroke:#fff" x="196.5" y="133.897" xlink:href="#m040989abc0"/><use style="fill:#fff;stroke:#fff" x="197.436" y="135.5" xlink:href="#m040989abc0"/><use style="fill:#fff;stroke:#fff" x="198.373" y="137.482" xlink:href="#m040989abc0"/><use style="fill:#fff;stroke:#fff" x="199.309" y="137.975" xlink:href="#m040989abc0"/><use style="fill:#fff;stroke:#fff" x="200.246" y="137.364" xlink:href="#m040989abc0"/><use style="fill:#fff;stroke:#fff" x="201.182" y="137.641" xlink:href="#m040989abc0"/><use style="fill:#fff;stroke:#fff" x="202.119" y="138.968" xlink:href="#m040989abc0"/><use style="fill:#fff;stroke:#fff" x="203.055" y="140.052" xlink:href="#m040989abc0"/><use style="fill:#fff;stroke:#fff" x="203.992" y="139.356" xlink:href="#m040989abc0"/><use style="fill:#fff;stroke:#fff" x="204.928" y="140.076" xlink:href="#m040989abc0"/><use style="fill:#fff;stroke:#fff" x="205.865" y="141.452" xlink:href="#m040989abc0"/><use style="fill:#fff;stroke:#fff" x="206.801" y="141.345" xlink:href="#m040989abc0"/><use style="fill:#fff;stroke:#fff" x="207.738" y="141.948" xlink:href="#m040989abc0"/><use style="fill:#fff;stroke:#fff" x="208.674" y="143.362" xlink:href="#m040989abc0"/><use style="fill:#fff;stroke:#fff" x="209.611" y="144.324" xlink:href="#m040989abc0"/><use style="fill:#fff;stroke:#fff" x="210.547" y="144.665" xlink:href="#m040989abc0"/><use style="fill:#fff;stroke:#fff" x="211.484" y="144.729" xlink:href="#m040989abc0"/><use style="fill:#fff;stroke:#fff" x="212.42" y="145.027" xlink:href="#m040989abc0"/><use style="fill:#fff;stroke:#fff" x="213.357" y="146.593" xlink:href="#m040989abc0"/><use style="fill:#fff;stroke:#fff" x="214.293" y="146.166" xlink:href="#m040989abc0"/><use style="fill:#fff;stroke:#fff" x="215.23" y="146.956" xlink:href="#m040989abc0"/><use style="fill:#fff;stroke:#fff" x="216.166" y="149.038" xlink:href="#m040989abc0"/><use style="fill:#fff;stroke:#fff" x="217.103" y="148.031" xlink:href="#m040989abc0"/><use style="fill:#fff;stroke:#fff" x="218.039" y="147.903" xlink:href="#m040989abc0"/><use style="fill:#fff;stroke:#fff" x="218.976" y="149.074" xlink:href="#m040989abc0"/><use style="fill:#fff;stroke:#fff" x="219.912" y="150.644" xlink:href="#m040989abc0"/><use style="fill:#fff;stroke:#fff" x="220.849" y="151.149" xlink:href="#m040989abc0"/><use style="fill:#fff;stroke:#fff" x="221.785" y="152.432" xlink:href="#m040989abc0"/><use style="fill:#fff;stroke:#fff" x="222.722" y="152.294" xlink:href="#m040989abc0"/><use style="fill:#fff;stroke:#fff" x="223.658" y="153.415" xlink:href="#m040989abc0"/><use style="fill:#fff;stroke:#fff" x="224.595" y="153.192" xlink:href="#m040989abc0"/><use style="fill:#fff;stroke:#fff" x="225.531" y="154.852" xlink:href="#m040989abc0"/><use style="fill:#fff;stroke:#fff" x="226.468" y="155.981" xlink:href="#m040989abc0"/><use style="fill:#fff;stroke:#fff" x="227.404" y="154.457" xlink:href="#m040989abc0"/><use style="fill:#fff;stroke:#fff" x="228.341" y="154.765" xlink:href="#m040989abc0"/><use style="fill:#fff;stroke:#fff" x="229.277" y="157.185" xlink:href="#m040989abc0"/><use style="fill:#fff;stroke:#fff" x="230.214" y="157.896" xlink:href="#m040989abc0"/><use style="fill:#fff;stroke:#fff" x="231.15" y="156.863" xlink:href="#m040989abc0"/><use style="fill:#fff;stroke:#fff" x="232.087" y="157.771" xlink:href="#m040989abc0"/><use style="fill:#fff;stroke:#fff" x="233.023" y="159.791" xlink:href="#m040989abc0"/><use style="fill:#fff;stroke:#fff" x="233.96" y="158.785" xlink:href="#m040989abc0"/><use style="fill:#fff;stroke:#fff" x="234.896" y="159.495" xlink:href="#m040989abc0"/><use style="fill:#fff;stroke:#fff" x="235.833" y="161.456" xlink:href="#m040989abc0"/><use style="fill:#fff;stroke:#fff" x="236.769" y="160.845" xlink:href="#m040989abc0"/><use style="fill:#fff;stroke:#fff" x="237.706" y="161.411" xlink:href="#m040989abc0"/><use style="fill:#fff;stroke:#fff" x="238.642" y="162.603" xlink:href="#m040989abc0"/><use style="fill:#fff;stroke:#fff" x="239.579" y="162.035" xlink:href="#m040989abc0"/><use style="fill:#fff;stroke:#fff" x="240.515" y="163.365" xlink:href="#m040989abc0"/><use style="fill:#fff;stroke:#fff" x="241.452" y="164.551" xlink:href="#m040989abc0"/><use style="fill:#fff;stroke:#fff" x="242.388" y="165.298" xlink:href="#m040989abc0"/><use style="fill:#fff;stroke:#fff" x="243.325" y="165.022" xlink:href="#m040989abc0"/><use style="fill:#fff;stroke:#fff" x="244.261" y="166.012" xlink:href="#m040989abc0"/><use style="fill:#fff;stroke:#fff" x="245.198" y="166.111" xlink:href="#m040989abc0"/><use style="fill:#fff;stroke:#fff" x="246.134" y="167.857" xlink:href="#m040989abc0"/><use style="fill:#fff;stroke:#fff" x="247.071" y="167.219" xlink:href="#m040989abc0"/><use style="fill:#fff;stroke:#fff" x="248.007" y="167.954" xlink:href="#m040989abc0"/><use style="fill:#fff;stroke:#fff" x="248.944" y="168.262" xlink:href="#m040989abc0"/><use style="fill:#fff;stroke:#fff" x="249.88" y="168.5" xlink:href="#m040989abc0"/><use style="fill:#fff;stroke:#fff" x="250.817" y="169.255" xlink:href="#m040989abc0"/><use style="fill:#fff;stroke:#fff" x="251.753" y="170.34" xlink:href="#m040989abc0"/><use style="fill:#fff;stroke:#fff" x="252.69" y="170.633" xlink:href="#m040989abc0"/><use style="fill:#fff;stroke:#fff" x="253.626" y="171.374" xlink:href="#m040989abc0"/><use style="fill:#fff;stroke:#fff" x="254.563" y="172.438" xlink:href="#m040989abc0"/><use style="fill:#fff;stroke:#fff" x="255.499" y="173.335" xlink:href="#m040989abc0"/><use style="fill:#fff;stroke:#fff" x="256.436" y="172.808" xlink:href="#m040989abc0"/><use style="fill:#fff;stroke:#fff" x="257.372" y="174.492" xlink:href="#m040989abc0"/><use style="fill:#fff;stroke:#fff" x="258.309" y="173.709" xlink:href="#m040989abc0"/><use style="fill:#fff;stroke:#fff" x="259.245" y="175.442" xlink:href="#m040989abc0"/><use style="fill:#fff;stroke:#fff" x="260.182" y="175.99" xlink:href="#m040989abc0"/><use style="fill:#fff;stroke:#fff" x="261.118" y="175.834" xlink:href="#m040989abc0"/><use style="fill:#fff;stroke:#fff" x="262.055" y="176.525" xlink:href="#m040989abc0"/><use style="fill:#fff;stroke:#fff" x="262.991" y="177.544" xlink:href="#m040989abc0"/><use style="fill:#fff;stroke:#fff" x="263.928" y="178.582" xlink:href="#m040989abc0"/><use style="fill:#fff;stroke:#fff" x="264.864" y="177.213" xlink:href="#m040989abc0"/><use style="fill:#fff;stroke:#fff" x="265.801" y="179.526" xlink:href="#m040989abc0"/><use style="fill:#fff;stroke:#fff" x="266.737" y="179.301" xlink:href="#m040989abc0"/><use style="fill:#fff;stroke:#fff" x="267.674" y="179.283" xlink:href="#m040989abc0"/><use style="fill:#fff;stroke:#fff" x="268.61" y="180.825" xlink:href="#m040989abc0"/><use style="fill:#fff;stroke:#fff" x="269.547" y="180.225" xlink:href="#m040989abc0"/><use style="fill:#fff;stroke:#fff" x="270.483" y="180.694" xlink:href="#m040989abc0"/><use style="fill:#fff;stroke:#fff" x="271.42" y="181.935" xlink:href="#m040989abc0"/><use style="fill:#fff;stroke:#fff" x="272.356" y="182.364" xlink:href="#m040989abc0"/><use style="fill:#fff;stroke:#fff" x="273.293" y="183.625" xlink:href="#m040989abc0"/><use style="fill:#fff;stroke:#fff" x="274.229" y="183.754" xlink:href="#m040989abc0"/><use style="fill:#fff;stroke:#fff" x="275.166" y="184.888" xlink:href="#m040989abc0"/><use style="fill:#fff;stroke:#fff" x="276.102" y="185.399" xlink:href="#m040989abc0"/><use style="fill:#fff;stroke:#fff" x="277.039" y="186.108" xlink:href="#m040989abc0"/><use style="fill:#fff;stroke:#fff" x="277.975" y="185.616" xlink:href="#m040989abc0"/><use style="fill:#fff;stroke:#fff" x="278.912" y="186.255" xlink:href="#m040989abc0"/><use style="fill:#fff;stroke:#fff" x="279.848" y="186.668" xlink:href="#m040989abc0"/><use style="fill:#fff;stroke:#fff" x="280.785" y="187.762" xlink:href="#m040989abc0"/><use style="fill:#fff;stroke:#fff" x="281.721" y="188.047" xlink:href="#m040989abc0"/><use style="fill:#fff;stroke:#fff" x="282.658" y="188.801" xlink:href="#m040989abc0"/><use style="fill:#fff;stroke:#fff" x="283.594" y="188.31" xlink:href="#m040989abc0"/><use style="fill:#fff;stroke:#fff" x="284.531" y="191.52" xlink:href="#m040989abc0"/><use style="fill:#fff;stroke:#fff" x="285.467" y="190.767" xlink:href="#m040989abc0"/><use style="fill:#fff;stroke:#fff" x="286.404" y="190.132" xlink:href="#m040989abc0"/><use style="fill:#fff;stroke:#fff" x="287.34" y="191.29" xlink:href="#m040989abc0"/><use style="fill:#fff;stroke:#fff" x="288.277" y="191.805" xlink:href="#m040989abc0"/><use style="fill:#fff;stroke:#fff" x="289.213" y="190.764" xlink:href="#m040989abc0"/><use style="fill:#fff;stroke:#fff" x="290.15" y="192.693" xlink:href="#m040989abc0"/><use style="fill:#fff;stroke:#fff" x="291.086" y="193.277" xlink:href="#m040989abc0"/><use style="fill:#fff;stroke:#fff" x="292.023" y="193.116" xlink:href="#m040989abc0"/><use style="fill:#fff;stroke:#fff" x="292.959" y="193.953" xlink:href="#m040989abc0"/><use style="fill:#fff;stroke:#fff" x="293.896" y="194.346" xlink:href="#m040989abc0"/><use style="fill:#fff;stroke:#fff" x="294.832" y="196.298" xlink:href="#m040989abc0"/><use style="fill:#fff;stroke:#fff" x="295.769" y="194.968" xlink:href="#m040989abc0"/><use style="fill:#fff;stroke:#fff" x="296.705" y="197.116" xlink:href="#m040989abc0"/><use style="fill:#fff;stroke:#fff" x="297.642" y="197.262" xlink:href="#m040989abc0"/><use style="fill:#fff;stroke:#fff" x="298.578" y="197.327" xlink:href="#m040989abc0"/><use style="fill:#fff;stroke:#fff" x="299.515" y="198.454" xlink:href="#m040989abc0"/><use style="fill:#fff;stroke:#fff" x="300.451" y="198.378" xlink:href="#m040989abc0"/><use style="fill:#fff;stroke:#fff" x="301.388" y="198.394" xlink:href="#m040989abc0"/><use style="fill:#fff;stroke:#fff" x="302.324" y="198.874" xlink:href="#m040989abc0"/><use style="fill:#fff;stroke:#fff" x="303.261" y="199.541" xlink:href="#m040989abc0"/><use style="fill:#fff;stroke:#fff" x="304.197" y="200.707" xlink:href="#m040989abc0"/><use style="fill:#fff;stroke:#fff" x="305.134" y="200.087" xlink:href="#m040989abc0"/><use style="fill:#fff;stroke:#fff" x="306.07" y="201.264" xlink:href="#m040989abc0"/><use style="fill:#fff;stroke:#fff" x="307.007" y="203.022" xlink:href="#m040989abc0"/><use style="fill:#fff;stroke:#fff" x="307.943" y="202.199" xlink:href="#m040989abc0"/><use style="fill:#fff;stroke:#fff" x="308.88" y="202.663" xlink:href="#m040989abc0"/><use style="fill:#fff;stroke:#fff" x="309.817" y="203.27" xlink:href="#m040989abc0"/><use style="fill:#fff;stroke:#fff" x="310.753" y="204.08" xlink:href="#m040989abc0"/><use style="fill:#fff;stroke:#fff" x="311.69" y="203.918" xlink:href="#m040989abc0"/><use style="fill:#fff;stroke:#fff" x="312.626" y="204.602" xlink:href="#m040989abc0"/><use style="fill:#fff;stroke:#fff" x="313.563" y="205.372" xlink:href="#m040989abc0"/><use style="fill:#fff;stroke:#fff" x="314.499" y="205.989" xlink:href="#m040989abc0"/><use style="fill:#fff;stroke:#fff" x="315.436" y="206.685" xlink:href="#m040989abc0"/><use style="fill:#fff;stroke:#fff" x="316.372" y="206.928" xlink:href="#m040989abc0"/><use style="fill:#fff;stroke:#fff" x="317.309" y="208.7" xlink:href="#m040989abc0"/><use style="fill:#fff;stroke:#fff" x="318.245" y="208.773" xlink:href="#m040989abc0"/><use style="fill:#fff;stroke:#fff" x="319.182" y="208.639" xlink:href="#m040989abc0"/><use style="fill:#fff;stroke:#fff" x="320.118" y="208.906" xlink:href="#m040989abc0"/><use style="fill:#fff;stroke:#fff" x="321.055" y="210.201" xlink:href="#m040989abc0"/><use style="fill:#fff;stroke:#fff" x="321.991" y="209.69" xlink:href="#m040989abc0"/><use style="fill:#fff;stroke:#fff" x="322.928" y="210.201" xlink:href="#m040989abc0"/><use style="fill:#fff;stroke:#fff" x="323.864" y="211.792" xlink:href="#m040989abc0"/><use style="fill:#fff;stroke:#fff" x="324.801" y="211.502" xlink:href="#m040989abc0"/><use style="fill:#fff;stroke:#fff" x="325.737" y="211.272" xlink:href="#m040989abc0"/><use style="fill:#fff;stroke:#fff" x="326.674" y="212.17" xlink:href="#m040989abc0"/><use style="fill:#fff;stroke:#fff" x="327.61" y="212.816" xlink:href="#m040989abc0"/><use style="fill:#fff;stroke:#fff" x="328.547" y="212.6" xlink:href="#m040989abc0"/><use style="fill:#fff;stroke:#fff" x="329.483" y="213.46" xlink:href="#m040989abc0"/><use style="fill:#fff;stroke:#fff" x="330.42" y="214.283" xlink:href="#m040989abc0"/><use style="fill:#fff;stroke:#fff" x="331.356" y="214.728" xlink:href="#m040989abc0"/><use style="fill:#fff;stroke:#fff" x="332.293" y="215.188" xlink:href="#m040989abc0"/><use style="fill:#fff;stroke:#fff" x="333.229" y="215.413" xlink:href="#m040989abc0"/><use style="fill:#fff;stroke:#fff" x="334.166" y="216.32" xlink:href="#m040989abc0"/><use style="fill:#fff;stroke:#fff" x="335.102" y="217.193" xlink:href="#m040989abc0"/><use style="fill:#fff;stroke:#fff" x="336.039" y="216.069" xlink:href="#m040989abc0"/><use style="fill:#fff;stroke:#fff" x="336.975" y="217.335" xlink:href="#m040989abc0"/><use style="fill:#fff;stroke:#fff" x="337.912" y="218.584" xlink:href="#m040989abc0"/><use style="fill:#fff;stroke:#fff" x="338.848" y="217.475" xlink:href="#m040989abc0"/><use style="fill:#fff;stroke:#fff" x="339.785" y="219.382" xlink:href="#m040989abc0"/><use style="fill:#fff;stroke:#fff" x="340.721" y="219.379" xlink:href="#m040989abc0"/><use style="fill:#fff;stroke:#fff" x="341.658" y="217.864" xlink:href="#m040989abc0"/><use style="fill:#fff;stroke:#fff" x="342.594" y="220.651" xlink:href="#m040989abc0"/><use style="fill:#fff;stroke:#fff" x="343.531" y="220.98" xlink:href="#m040989abc0"/><use style="fill:#fff;stroke:#fff" x="344.467" y="220.767" xlink:href="#m040989abc0"/><use style="fill:#fff;stroke:#fff" x="345.404" y="220.845" xlink:href="#m040989abc0"/><use style="fill:#fff;stroke:#fff" x="346.34" y="221.878" xlink:href="#m040989abc0"/><use style="fill:#fff;stroke:#fff" x="347.277" y="222.228" xlink:href="#m040989abc0"/><use style="fill:#fff;stroke:#fff" x="348.213" y="221.46" xlink:href="#m040989abc0"/><use style="fill:#fff;stroke:#fff" x="349.15" y="223.561" xlink:href="#m040989abc0"/><use style="fill:#fff;stroke:#fff" x="350.086" y="223.194" xlink:href="#m040989abc0"/><use style="fill:#fff;stroke:#fff" x="351.023" y="224.297" xlink:href="#m040989abc0"/><use style="fill:#fff;stroke:#fff" x="351.959" y="224.368" xlink:href="#m040989abc0"/><use style="fill:#fff;stroke:#fff" x="352.896" y="225.01" xlink:href="#m040989abc0"/><use style="fill:#fff;stroke:#fff" x="353.832" y="225.198" xlink:href="#m040989abc0"/><use style="fill:#fff;stroke:#fff" x="354.769" y="225.758" xlink:href="#m040989abc0"/><use style="fill:#fff;stroke:#fff" x="355.705" y="225.756" xlink:href="#m040989abc0"/><use style="fill:#fff;stroke:#fff" x="356.642" y="225.679" xlink:href="#m040989abc0"/><use style="fill:#fff;stroke:#fff" x="357.578" y="227.221" xlink:href="#m040989abc0"/><use style="fill:#fff;stroke:#fff" x="358.515" y="228.513" xlink:href="#m040989abc0"/><use style="fill:#fff;stroke:#fff" x="359.451" y="227.222" xlink:href="#m040989abc0"/><use style="fill:#fff;stroke:#fff" x="360.388" y="228.99" xlink:href="#m040989abc0"/><use style="fill:#fff;stroke:#fff" x="361.324" y="228.769" xlink:href="#m040989abc0"/><use style="fill:#fff;stroke:#fff" x="362.261" y="228.75" xlink:href="#m040989abc0"/><use style="fill:#fff;stroke:#fff" x="363.197" y="229.05" xlink:href="#m040989abc0"/><use style="fill:#fff;stroke:#fff" x="364.134" y="229.56" xlink:href="#m040989abc0"/><use style="fill:#fff;stroke:#fff" x="365.07" y="229.511" xlink:href="#m040989abc0"/><use style="fill:#fff;stroke:#fff" x="366.007" y="230.104" xlink:href="#m040989abc0"/><use style="fill:#fff;stroke:#fff" x="366.943" y="230.882" xlink:href="#m040989abc0"/><use style="fill:#fff;stroke:#fff" x="367.88" y="232.418" xlink:href="#m040989abc0"/><use style="fill:#fff;stroke:#fff" x="368.816" y="231.254" xlink:href="#m040989abc0"/><use style="fill:#fff;stroke:#fff" x="369.753" y="231.469" xlink:href="#m040989abc0"/><use style="fill:#fff;stroke:#fff" x="370.689" y="232.914" xlink:href="#m040989abc0"/><use style="fill:#fff;stroke:#fff" x="371.626" y="233.059" xlink:href="#m040989abc0"/><use style="fill:#fff;stroke:#fff" x="372.562" y="234.755" xlink:href="#m040989abc0"/><use style="fill:#fff;stroke:#fff" x="373.499" y="233.907" xlink:href="#m040989abc0"/><use style="fill:#fff;stroke:#fff" x="374.435" y="234.162" xlink:href="#m040989abc0"/><use style="fill:#fff;stroke:#fff" x="375.372" y="234.671" xlink:href="#m040989abc0"/><use style="fill:#fff;stroke:#fff" x="376.308" y="234.587" xlink:href="#m040989abc0"/><use style="fill:#fff;stroke:#fff" x="377.245" y="234.331" xlink:href="#m040989abc0"/><use style="fill:#fff;stroke:#fff" x="378.181" y="233.999" xlink:href="#m040989abc0"/><use style="fill:#fff;stroke:#fff" x="379.118" y="236.791" xlink:href="#m040989abc0"/><use style="fill:#fff;stroke:#fff" x="380.054" y="235.948" xlink:href="#m040989abc0"/><use style="fill:#fff;stroke:#fff" x="380.991" y="236.376" xlink:href="#m040989abc0"/><use style="fill:#fff;stroke:#fff" x="381.927" y="237.806" xlink:href="#m040989abc0"/><use style="fill:#fff;stroke:#fff" x="382.864" y="238.105" xlink:href="#m040989abc0"/><use style="fill:#fff;stroke:#fff" x="383.8" y="237.401" xlink:href="#m040989abc0"/><use style="fill:#fff;stroke:#fff" x="384.737" y="238.966" xlink:href="#m040989abc0"/><use style="fill:#fff;stroke:#fff" x="385.673" y="238.07" xlink:href="#m040989abc0"/><use style="fill:#fff;stroke:#fff" x="386.61" y="238.109" xlink:href="#m040989abc0"/><use style="fill:#fff;stroke:#fff" x="387.546" y="239.501" xlink:href="#m040989abc0"/><use style="fill:#fff;stroke:#fff" x="388.483" y="238.713" xlink:href="#m040989abc0"/><use style="fill:#fff;stroke:#fff" x="389.419" y="240.506" xlink:href="#m040989abc0"/><use style="fill:#fff;stroke:#fff" x="390.356" y="238.927" xlink:href="#m040989abc0"/><use style="fill:#fff;stroke:#fff" x="391.292" y="240.636" xlink:href="#m040989abc0"/><use style="fill:#fff;stroke:#fff" x="392.229" y="241.862" xlink:href="#m040989abc0"/><use style="fill:#fff;stroke:#fff" x="393.165" y="241.906" xlink:href="#m040989abc0"/><use style="fill:#fff;stroke:#fff" x="394.102" y="242.107" xlink:href="#m040989abc0"/><use style="fill:#fff;stroke:#fff" x="395.038" y="243.288" xlink:href="#m040989abc0"/><use style="fill:#fff;stroke:#fff" x="395.975" y="241.633" xlink:href="#m040989abc0"/><use style="fill:#fff;stroke:#fff" x="396.911" y="242.903" xlink:href="#m040989abc0"/><use style="fill:#fff;stroke:#fff" x="397.848" y="243.302" xlink:href="#m040989abc0"/><use style="fill:#fff;stroke:#fff" x="398.784" y="242.651" xlink:href="#m040989abc0"/><use style="fill:#fff;stroke:#fff" x="399.721" y="243.603" xlink:href="#m040989abc0"/><use style="fill:#fff;stroke:#fff" x="400.657" y="245.27" xlink:href="#m040989abc0"/><use style="fill:#fff;stroke:#fff" x="401.594" y="245.469" xlink:href="#m040989abc0"/><use style="fill:#fff;stroke:#fff" x="402.53" y="243.803" xlink:href="#m040989abc0"/><use style="fill:#fff;stroke:#fff" x="403.467" y="244.887" xlink:href="#m040989abc0"/><use style="fill:#fff;stroke:#fff" x="404.403" y="245.491" xlink:href="#m040989abc0"/><use style="fill:#fff;stroke:#fff" x="405.34" y="246.284" xlink:href="#m040989abc0"/><use style="fill:#fff;stroke:#fff" x="406.276" y="247.418" xlink:href="#m040989abc0"/><use style="fill:#fff;stroke:#fff" x="407.213" y="246.356" xlink:href="#m040989abc0"/><use style="fill:#fff;stroke:#fff" x="408.149" y="248.009" xlink:href="#m040989abc0"/><use style="fill:#fff;stroke:#fff" x="409.086" y="245.289" xlink:href="#m040989abc0"/><use style="fill:#fff;stroke:#fff" x="410.022" y="248.147" xlink:href="#m040989abc0"/><use style="fill:#fff;stroke:#fff" x="410.959" y="248.419" xlink:href="#m040989abc0"/><use style="fill:#fff;stroke:#fff" x="411.895" y="247.923" xlink:href="#m040989abc0"/><use style="fill:#fff;stroke:#fff" x="412.832" y="249.852" xlink:href="#m040989abc0"/><use style="fill:#fff;stroke:#fff" x="413.768" y="249.667" xlink:href="#m040989abc0"/><use style="fill:#fff;stroke:#fff" x="414.705" y="249.09" xlink:href="#m040989abc0"/><use style="fill:#fff;stroke:#fff" x="415.641" y="251.399" xlink:href="#m040989abc0"/><use style="fill:#fff;stroke:#fff" x="416.578" y="249.416" xlink:href="#m040989abc0"/><use style="fill:#fff;stroke:#fff" x="417.514" y="250.822" xlink:href="#m040989abc0"/><use style="fill:#fff;stroke:#fff" x="418.451" y="252.692" xlink:href="#m040989abc0"/><use style="fill:#fff;stroke:#fff" x="419.387" y="250.361" xlink:href="#m040989abc0"/><use style="fill:#fff;stroke:#fff" x="420.324" y="251.832" xlink:href="#m040989abc0"/><use style="fill:#fff;stroke:#fff" x="421.26" y="251.796" xlink:href="#m040989abc0"/><use style="fill:#fff;stroke:#fff" x="422.197" y="252.205" xlink:href="#m040989abc0"/><use style="fill:#fff;stroke:#fff" x="423.133" y="250.877" xlink:href="#m040989abc0"/><use style="fill:#fff;stroke:#fff" x="424.07" y="252.81" xlink:href="#m040989abc0"/><use style="fill:#fff;stroke:#fff" x="425.006" y="254.752" xlink:href="#m040989abc0"/><use style="fill:#fff;stroke:#fff" x="425.943" y="255.333" xlink:href="#m040989abc0"/><use style="fill:#fff;stroke:#fff" x="426.879" y="252.804" xlink:href="#m040989abc0"/><use style="fill:#fff;stroke:#fff" x="427.816" y="254.944" xlink:href="#m040989abc0"/><use style="fill:#fff;stroke:#fff" x="428.752" y="255.615" xlink:href="#m040989abc0"/><use style="fill:#fff;stroke:#fff" x="429.689" y="253.803" xlink:href="#m040989abc0"/><use style="fill:#fff;stroke:#fff" x="430.625" y="257.48" xlink:href="#m040989abc0"/><use style="fill:#fff;stroke:#fff" x="431.562" y="257.093" xlink:href="#m040989abc0"/><use style="fill:#fff;stroke:#fff" x="432.498" y="256.248" xlink:href="#m040989abc0"/><use style="fill:#fff;stroke:#fff" x="433.435" y="256.592" xlink:href="#m040989abc0"/><use style="fill:#fff;stroke:#fff" x="434.371" y="257.814" xlink:href="#m040989abc0"/><use style="fill:#fff;stroke:#fff" x="435.308" y="257.576" xlink:href="#m040989abc0"/><use style="fill:#fff;stroke:#fff" x="436.244" y="260.414" xlink:href="#m040989abc0"/><use style="fill:#fff;stroke:#fff" x="437.181" y="260.096" xlink:href="#m040989abc0"/><use style="fill:#fff;stroke:#fff" x="438.117" y="257.116" xlink:href="#m040989abc0"/><use style="fill:#fff;stroke:#fff" x="439.054" y="257.169" xlink:href="#m040989abc0"/><use style="fill:#fff;stroke:#fff" x="439.99" y="259.299" xlink:href="#m040989abc0"/><use style="fill:#fff;stroke:#fff" x="440.927" y="259.714" xlink:href="#m040989abc0"/><use style="fill:#fff;stroke:#fff" x="441.863" y="259.874" xlink:href="#m040989abc0"/><use style="fill:#fff;stroke:#fff" x="442.8" y="259.709" xlink:href="#m040989abc0"/><use style="fill:#fff;stroke:#fff" x="443.737" y="263.123" xlink:href="#m040989abc0"/><use style="fill:#fff;stroke:#fff" x="444.673" y="260.874" xlink:href="#m040989abc0"/><use style="fill:#fff;stroke:#fff" x="445.61" y="261.601" xlink:href="#m040989abc0"/><use style="fill:#fff;stroke:#fff" x="446.546" y="261.22" xlink:href="#m040989abc0"/><use style="fill:#fff;stroke:#fff" x="447.483" y="263.012" xlink:href="#m040989abc0"/><use style="fill:#fff;stroke:#fff" x="448.419" y="263.337" xlink:href="#m040989abc0"/><use style="fill:#fff;stroke:#fff" x="449.356" y="261.781" xlink:href="#m040989abc0"/><use style="fill:#fff;stroke:#fff" x="450.292" y="264.906" xlink:href="#m040989abc0"/><use style="fill:#fff;stroke:#fff" x="451.229" y="264.081" xlink:href="#m040989abc0"/><use style="fill:#fff;stroke:#fff" x="452.165" y="258.544" xlink:href="#m040989abc0"/><use style="fill:#fff;stroke:#fff" x="453.102" y="267.671" xlink:href="#m040989abc0"/><use style="fill:#fff;stroke:#fff" x="454.038" y="264.414" xlink:href="#m040989abc0"/><use style="fill:#fff;stroke:#fff" x="454.975" y="266.589" xlink:href="#m040989abc0"/><use style="fill:#fff;stroke:#fff" x="455.911" y="267.023" xlink:href="#m040989abc0"/><use style="fill:#fff;stroke:#fff" x="456.848" y="265.535" xlink:href="#m040989abc0"/><use style="fill:#fff;stroke:#fff" x="457.784" y="266.275" xlink:href="#m040989abc0"/><use style="fill:#fff;stroke:#fff" x="458.721" y="264.998" xlink:href="#m040989abc0"/><use style="fill:#fff;stroke:#fff" x="459.657" y="263.554" xlink:href="#m040989abc0"/><use style="fill:#fff;stroke:#fff" x="460.594" y="265.379" xlink:href="#m040989abc0"/><use style="fill:#fff;stroke:#fff" x="461.53" y="269.537" xlink:href="#m040989abc0"/><use style="fill:#fff;stroke:#fff" x="462.467" y="268.055" xlink:href="#m040989abc0"/><use style="fill:#fff;stroke:#fff" x="463.403" y="267.39" xlink:href="#m040989abc0"/><use style="fill:#fff;stroke:#fff" x="464.34" y="265.83" xlink:href="#m040989abc0"/><use style="fill:#fff;stroke:#fff" x="465.276" y="267.734" xlink:href="#m040989abc0"/><use style="fill:#fff;stroke:#fff" x="466.213" y="268.132" xlink:href="#m040989abc0"/><use style="fill:#fff;stroke:#fff" x="467.149" y="267.966" xlink:href="#m040989abc0"/><use style="fill:#fff;stroke:#fff" x="468.086" y="270.366" xlink:href="#m040989abc0"/><use style="fill:#fff;stroke:#fff" x="469.022" y="275.234" xlink:href="#m040989abc0"/><use style="fill:#fff;stroke:#fff" x="469.959" y="267.582" xlink:href="#m040989abc0"/><use style="fill:#fff;stroke:#fff" x="470.895" y="271.854" xlink:href="#m040989abc0"/><use style="fill:#fff;stroke:#fff" x="471.832" y="269.276" xlink:href="#m040989abc0"/><use style="fill:#fff;stroke:#fff" x="472.768" y="271.723" xlink:href="#m040989abc0"/><use style="fill:#fff;stroke:#fff" x="473.705" y="274.507" xlink:href="#m040989abc0"/><use style="fill:#fff;stroke:#fff" x="474.641" y="276.612" xlink:href="#m040989abc0"/><use style="fill:#fff;stroke:#fff" x="475.578" y="271.624" xlink:href="#m040989abc0"/><use style="fill:#fff;stroke:#fff" x="476.514" y="275.046" xlink:href="#m040989abc0"/><use style="fill:#fff;stroke:#fff" x="477.451" y="273.447" xlink:href="#m040989abc0"/><use style="fill:#fff;stroke:#fff" x="478.387" y="272.36" xlink:href="#m040989abc0"/><use style="fill:#fff;stroke:#fff" x="479.324" y="275.513" xlink:href="#m040989abc0"/><use style="fill:#fff;stroke:#fff" x="480.26" y="280.973" xlink:href="#m040989abc0"/><use style="fill:#fff;stroke:#fff" x="481.197" y="268.285" xlink:href="#m040989abc0"/><use style="fill:#fff;stroke:#fff" x="482.133" y="277.147" xlink:href="#m040989abc0"/><use style="fill:#fff;stroke:#fff" x="483.07" y="269.542" xlink:href="#m040989abc0"/><use style="fill:#fff;stroke:#fff" x="484.006" y="307.684" xlink:href="#m040989abc0"/><use style="fill:#fff;stroke:#fff" x="484.943" y="209.839" xlink:href="#m040989abc0"/><use style="fill:#fff;stroke:#fff" x="485.879" y="302.538" xlink:href="#m040989abc0"/><use style="fill:#fff;stroke:#fff" x="486.816" y="281.332" xlink:href="#m040989abc0"/><use style="fill:#fff;stroke:#fff" x="487.752" y="276.972" xlink:href="#m040989abc0"/><use style="fill:#fff;stroke:#fff" x="488.689" y="281.002" xlink:href="#m040989abc0"/><use style="fill:#fff;stroke:#fff" x="489.625" y="272.994" xlink:href="#m040989abc0"/><use style="fill:#fff;stroke:#fff" x="490.562" y="280.012" xlink:href="#m040989abc0"/><use style="fill:#fff;stroke:#fff" x="491.498" y="279.799" xlink:href="#m040989abc0"/><use style="fill:#fff;stroke:#fff" x="492.435" y="282.35" xlink:href="#m040989abc0"/><use style="fill:#fff;stroke:#fff" x="493.371" y="278.346" xlink:href="#m040989abc0"/><use style="fill:#fff;stroke:#fff" x="494.308" y="285.496" xlink:href="#m040989abc0"/><use style="fill:#fff;stroke:#fff" x="495.244" y="279.943" xlink:href="#m040989abc0"/><use style="fill:#fff;stroke:#fff" x="496.181" y="285.474" xlink:href="#m040989abc0"/><use style="fill:#fff;stroke:#fff" x="497.117" y="280.661" xlink:href="#m040989abc0"/><use style="fill:#fff;stroke:#fff" x="498.054" y="279.542" xlink:href="#m040989abc0"/><use style="fill:#fff;stroke:#fff" x="498.99" y="284.327" xlink:href="#m040989abc0"/><use style="fill:#fff;stroke:#fff" x="499.927" y="278.85" xlink:href="#m040989abc0"/><use style="fill:#fff;stroke:#fff" x="500.863" y="289.44" xlink:href="#m040989abc0"/><use style="fill:#fff;stroke:#fff" x="501.8" y="281.384" xlink:href="#m040989abc0"/><use style="fill:#fff;stroke:#fff" x="502.736" y="279.711" xlink:href="#m040989abc0"/><use style="fill:#fff;stroke:#fff" x="503.673" y="280.594" xlink:href="#m040989abc0"/><use style="fill:#fff;stroke:#fff" x="504.609" y="283.775" xlink:href="#m040989abc0"/><use style="fill:#fff;stroke:#fff" x="505.546" y="283.979" xlink:href="#m040989abc0"/><use style="fill:#fff;stroke:#fff" x="506.482" y="285.393" xlink:href="#m040989abc0"/><use style="fill:#fff;stroke:#fff" x="507.419" y="286.133" xlink:href="#m040989abc0"/><use style="fill:#fff;stroke:#fff" x="508.355" y="286.409" xlink:href="#m040989abc0"/><use style="fill:#fff;stroke:#fff" x="509.292" y="283.385" xlink:href="#m040989abc0"/><use style="fill:#fff;stroke:#fff" x="510.228" y="286.577" xlink:href="#m040989abc0"/><use style="fill:#fff;stroke:#fff" x="511.165" y="283.878" xlink:href="#m040989abc0"/><use style="fill:#fff;stroke:#fff" x="512.101" y="290.916" xlink:href="#m040989abc0"/><use style="fill:#fff;stroke:#fff" x="513.038" y="289.153" xlink:href="#m040989abc0"/><use style="fill:#fff;stroke:#fff" x="513.974" y="289.561" xlink:href="#m040989abc0"/><use style="fill:#fff;stroke:#fff" x="514.911" y="289.098" xlink:href="#m040989abc0"/><use style="fill:#fff;stroke:#fff" x="515.847" y="288.195" xlink:href="#m040989abc0"/><use style="fill:#fff;stroke:#fff" x="516.784" y="291.519" xlink:href="#m040989abc0"/><use style="fill:#fff;stroke:#fff" x="517.72" y="285.608" xlink:href="#m040989abc0"/><use style="fill:#fff;stroke:#fff" x="518.657" y="289.186" xlink:href="#m040989abc0"/><use style="fill:#fff;stroke:#fff" x="519.593" y="295.13" xlink:href="#m040989abc0"/><use style="fill:#fff;stroke:#fff" x="520.53" y="289.23" xlink:href="#m040989abc0"/><use style="fill:#fff;stroke:#fff" x="521.466" y="288.089" xlink:href="#m040989abc0"/><use style="fill:#fff;stroke:#fff" x="522.403" y="295.144" xlink:href="#m040989abc0"/><use style="fill:#fff;stroke:#fff" x="523.339" y="289.081" xlink:href="#m040989abc0"/><use style="fill:#fff;stroke:#fff" x="524.276" y="289.67" xlink:href="#m040989abc0"/><use style="fill:#fff;stroke:#fff" x="525.212" y="292.481" xlink:href="#m040989abc0"/><use style="fill:#fff;stroke:#fff" x="526.149" y="295.851" xlink:href="#m040989abc0"/><use style="fill:#fff;stroke:#fff" x="527.085" y="292.869" xlink:href="#m040989abc0"/><use style="fill:#fff;stroke:#fff" x="528.022" y="292.839" xlink:href="#m040989abc0"/><use style="fill:#fff;stroke:#fff" x="528.958" y="293.617" xlink:href="#m040989abc0"/><use style="fill:#fff;stroke:#fff" x="529.895" y="295.943" xlink:href="#m040989abc0"/><use style="fill:#fff;stroke:#fff" x="530.831" y="293.781" xlink:href="#m040989abc0"/><use style="fill:#fff;stroke:#fff" x="531.768" y="296.55" xlink:href="#m040989abc0"/><use style="fill:#fff;stroke:#fff" x="532.704" y="297.26" xlink:href="#m040989abc0"/><use style="fill:#fff;stroke:#fff" x="533.641" y="298.149" xlink:href="#m040989abc0"/><use style="fill:#fff;stroke:#fff" x="534.577" y="297.162" xlink:href="#m040989abc0"/><use style="fill:#fff;stroke:#fff" x="535.514" y="296.665" xlink:href="#m040989abc0"/><use style="fill:#fff;stroke:#fff" x="536.45" y="293.554" xlink:href="#m040989abc0"/><use style="fill:#fff;stroke:#fff" x="537.387" y="300.043" xlink:href="#m040989abc0"/><use style="fill:#fff;stroke:#fff" x="538.323" y="299.424" xlink:href="#m040989abc0"/><use style="fill:#fff;stroke:#fff" x="539.26" y="296.707" xlink:href="#m040989abc0"/><use style="fill:#fff;stroke:#fff" x="540.196" y="297.229" xlink:href="#m040989abc0"/><use style="fill:#fff;stroke:#fff" x="541.133" y="301.411" xlink:href="#m040989abc0"/><use style="fill:#fff;stroke:#fff" x="542.069" y="300.174" xlink:href="#m040989abc0"/><use style="fill:#fff;stroke:#fff" x="543.006" y="298.081" xlink:href="#m040989abc0"/><use style="fill:#fff;stroke:#fff" x="543.942" y="302.825" xlink:href="#m040989abc0"/><use style="fill:#fff;stroke:#fff" x="544.879" y="302.994" xlink:href="#m040989abc0"/><use style="fill:#fff;stroke:#fff" x="545.815" y="298.202" xlink:href="#m040989abc0"/><use style="fill:#fff;stroke:#fff" x="546.752" y="297.957" xlink:href="#m040989abc0"/><use style="fill:#fff;stroke:#fff" x="547.688" y="302.921" xlink:href="#m040989abc0"/><use style="fill:#fff;stroke:#fff" x="548.625" y="300.268" xlink:href="#m040989abc0"/><use style="fill:#fff;stroke:#fff" x="549.561" y="304.043" xlink:href="#m040989abc0"/><use style="fill:#fff;stroke:#fff" x="550.498" y="303.058" xlink:href="#m040989abc0"/><use style="fill:#fff;stroke:#fff" x="551.434" y="304.89" xlink:href="#m040989abc0"/><use style="fill:#fff;stroke:#fff" x="552.371" y="306.171" xlink:href="#m040989abc0"/><use style="fill:#fff;stroke:#fff" x="553.307" y="303.48" xlink:href="#m040989abc0"/><use style="fill:#fff;stroke:#fff" x="554.244" y="306.424" xlink:href="#m040989abc0"/><use style="fill:#fff;stroke:#fff" x="555.18" y="310.318" xlink:href="#m040989abc0"/><use style="fill:#fff;stroke:#fff" x="556.117" y="307.364" xlink:href="#m040989abc0"/><use style="fill:#fff;stroke:#fff" x="557.053" y="307.587" xlink:href="#m040989abc0"/><use style="fill:#fff;stroke:#fff" x="557.99" y="306.183" xlink:href="#m040989abc0"/><use style="fill:#fff;stroke:#fff" x="558.926" y="306.84" xlink:href="#m040989abc0"/><use style="fill:#fff;stroke:#fff" x="559.863" y="307.712" xlink:href="#m040989abc0"/><use style="fill:#fff;stroke:#fff" x="560.799" y="305.38" xlink:href="#m040989abc0"/><use style="fill:#fff;stroke:#fff" x="561.736" y="308.539" xlink:href="#m040989abc0"/><use style="fill:#fff;stroke:#fff" x="562.672" y="310.623" xlink:href="#m040989abc0"/><use style="fill:#fff;stroke:#fff" x="563.609" y="306.8" xlink:href="#m040989abc0"/><use style="fill:#fff;stroke:#fff" x="564.545" y="313.202" xlink:href="#m040989abc0"/><use style="fill:#fff;stroke:#fff" x="565.482" y="312.614" xlink:href="#m040989abc0"/><use style="fill:#fff;stroke:#fff" x="566.418" y="308.804" xlink:href="#m040989abc0"/><use style="fill:#fff;stroke:#fff" x="567.355" y="309.564" xlink:href="#m040989abc0"/><use style="fill:#fff;stroke:#fff" x="568.291" y="313.615" xlink:href="#m040989abc0"/><use style="fill:#fff;stroke:#fff" x="569.228" y="313.543" xlink:href="#m040989abc0"/><use style="fill:#fff;stroke:#fff" x="570.164" y="312.9" xlink:href="#m040989abc0"/><use style="fill:#fff;stroke:#fff" x="571.101" y="315.961" xlink:href="#m040989abc0"/><use style="fill:#fff;stroke:#fff" x="572.037" y="316.136" xlink:href="#m040989abc0"/><use style="fill:#fff;stroke:#fff" x="572.974" y="312.81" xlink:href="#m040989abc0"/><use style="fill:#fff;stroke:#fff" x="573.91" y="316.727" xlink:href="#m040989abc0"/><use style="fill:#fff;stroke:#fff" x="574.847" y="317.554" xlink:href="#m040989abc0"/><use style="fill:#fff;stroke:#fff" x="575.783" y="316.063" xlink:href="#m040989abc0"/><use style="fill:#fff;stroke:#fff" x="576.72" y="317.783" xlink:href="#m040989abc0"/><use style="fill:#fff;stroke:#fff" x="577.657" y="319.854" xlink:href="#m040989abc0"/><use style="fill:#fff;stroke:#fff" x="578.593" y="317.5" xlink:href="#m040989abc0"/><use style="fill:#fff;stroke:#fff" x="579.53" y="315.379" xlink:href="#m040989abc0"/><use style="fill:#fff;stroke:#fff" x="580.466" y="318.888" xlink:href="#m040989abc0"/><use style="fill:#fff;stroke:#fff" x="581.403" y="319.302" xlink:href="#m040989abc0"/><use style="fill:#fff;stroke:#fff" x="582.339" y="319.524" xlink:href="#m040989abc0"/><use style="fill:#fff;stroke:#fff" x="583.276" y="319.989" xlink:href="#m040989abc0"/><use style="fill:#fff;stroke:#fff" x="584.212" y="319.314" xlink:href="#m040989abc0"/><use style="fill:#fff;stroke:#fff" x="585.149" y="320.042" xlink:href="#m040989abc0"/><use style="fill:#fff;stroke:#fff" x="586.085" y="324.384" xlink:href="#m040989abc0"/><use style="fill:#fff;stroke:#fff" x="587.022" y="323.515" xlink:href="#m040989abc0"/><use style="fill:#fff;stroke:#fff" x="587.958" y="326.861" xlink:href="#m040989abc0"/><use style="fill:#fff;stroke:#fff" x="588.895" y="325.416" xlink:href="#m040989abc0"/><use style="fill:#fff;stroke:#fff" x="589.831" y="324.975" xlink:href="#m040989abc0"/><use style="fill:#fff;stroke:#fff" x="590.768" y="326.33" xlink:href="#m040989abc0"/><use style="fill:#fff;stroke:#fff" x="591.704" y="323.355" xlink:href="#m040989abc0"/><use style="fill:#fff;stroke:#fff" x="592.641" y="323.245" xlink:href="#m040989abc0"/><use style="fill:#fff;stroke:#fff" x="593.577" y="327.161" xlink:href="#m040989abc0"/><use style="fill:#fff;stroke:#fff" x="594.514" y="325.516" xlink:href="#m040989abc0"/><use style="fill:#fff;stroke:#fff" x="595.45" y="330.011" xlink:href="#m040989abc0"/><use style="fill:#fff;stroke:#fff" x="596.387" y="327.361" xlink:href="#m040989abc0"/><use style="fill:#fff;stroke:#fff" x="597.323" y="326.513" xlink:href="#m040989abc0"/><use style="fill:#fff;stroke:#fff" x="598.26" y="328.451" xlink:href="#m040989abc0"/><use style="fill:#fff;stroke:#fff" x="599.196" y="330.255" xlink:href="#m040989abc0"/><use style="fill:#fff;stroke:#fff" x="600.133" y="331.306" xlink:href="#m040989abc0"/><use style="fill:#fff;stroke:#fff" x="601.069" y="328.454" xlink:href="#m040989abc0"/><use style="fill:#fff;stroke:#fff" x="602.006" y="334.758" xlink:href="#m040989abc0"/><use style="fill:#fff;stroke:#fff" x="602.942" y="331.454" xlink:href="#m040989abc0"/><use style="fill:#fff;stroke:#fff" x="603.879" y="331.738" xlink:href="#m040989abc0"/><use style="fill:#fff;stroke:#fff" x="604.815" y="334.597" xlink:href="#m040989abc0"/><use style="fill:#fff;stroke:#fff" x="605.752" y="332.036" xlink:href="#m040989abc0"/><use style="fill:#fff;stroke:#fff" x="606.688" y="336.224" xlink:href="#m040989abc0"/><use style="fill:#fff;stroke:#fff" x="607.625" y="336.725" xlink:href="#m040989abc0"/><use style="fill:#fff;stroke:#fff" x="608.561" y="336.595" xlink:href="#m040989abc0"/><use style="fill:#fff;stroke:#fff" x="609.498" y="337.703" xlink:href="#m040989abc0"/><use style="fill:#fff;stroke:#fff" x="610.434" y="335.873" xlink:href="#m040989abc0"/><use style="fill:#fff;stroke:#fff" x="611.371" y="336.025" xlink:href="#m040989abc0"/><use style="fill:#fff;stroke:#fff" x="612.307" y="339.807" xlink:href="#m040989abc0"/><use style="fill:#fff;stroke:#fff" x="613.244" y="337.687" xlink:href="#m040989abc0"/><use style="fill:#fff;stroke:#fff" x="614.18" y="337.474" xlink:href="#m040989abc0"/><use style="fill:#fff;stroke:#fff" x="615.117" y="340.043" xlink:href="#m040989abc0"/><use style="fill:#fff;stroke:#fff" x="616.053" y="339.545" xlink:href="#m040989abc0"/><use style="fill:#fff;stroke:#fff" x="616.99" y="344.104" xlink:href="#m040989abc0"/><use style="fill:#fff;stroke:#fff" x="617.926" y="339.595" xlink:href="#m040989abc0"/><use style="fill:#fff;stroke:#fff" x="618.863" y="341.902" xlink:href="#m040989abc0"/><use style="fill:#fff;stroke:#fff" x="619.799" y="344.12" xlink:href="#m040989abc0"/><use style="fill:#fff;stroke:#fff" x="620.736" y="344.645" xlink:href="#m040989abc0"/><use style="fill:#fff;stroke:#fff" x="621.672" y="337.966" xlink:href="#m040989abc0"/><use style="fill:#fff;stroke:#fff" x="622.609" y="342.604" xlink:href="#m040989abc0"/><use style="fill:#fff;stroke:#fff" x="623.545" y="346.52" xlink:href="#m040989abc0"/><use style="fill:#fff;stroke:#fff" x="624.482" y="345.174" xlink:href="#m040989abc0"/><use style="fill:#fff;stroke:#fff" x="625.418" y="344.717" xlink:href="#m040989abc0"/><use style="fill:#fff;stroke:#fff" x="626.355" y="349.957" xlink:href="#m040989abc0"/><use style="fill:#fff;stroke:#fff" x="627.291" y="348.344" xlink:href="#m040989abc0"/><use style="fill:#fff;stroke:#fff" x="628.228" y="345.917" xlink:href="#m040989abc0"/><use style="fill:#fff;stroke:#fff" x="629.164" y="350.865" xlink:href="#m040989abc0"/><use style="fill:#fff;stroke:#fff" x="630.101" y="351.702" xlink:href="#m040989abc0"/><use style="fill:#fff;stroke:#fff" x="631.037" y="350.767" xlink:href="#m040989abc0"/><use style="fill:#fff;stroke:#fff" x="631.974" y="349.986" xlink:href="#m040989abc0"/><use style="fill:#fff;stroke:#fff" x="632.91" y="354.371" xlink:href="#m040989abc0"/><use style="fill:#fff;stroke:#fff" x="633.847" y="349.024" xlink:href="#m040989abc0"/><use style="fill:#fff;stroke:#fff" x="634.783" y="350.915" xlink:href="#m040989abc0"/><use style="fill:#fff;stroke:#fff" x="635.72" y="354.722" xlink:href="#m040989abc0"/><use style="fill:#fff;stroke:#fff" x="636.656" y="354.34" xlink:href="#m040989abc0"/><use style="fill:#fff;stroke:#fff" x="637.593" y="354.031" xlink:href="#m040989abc0"/><use style="fill:#fff;stroke:#fff" x="638.529" y="356.926" xlink:href="#m040989abc0"/><use style="fill:#fff;stroke:#fff" x="639.466" y="355.796" xlink:href="#m040989abc0"/><use style="fill:#fff;stroke:#fff" x="640.402" y="356.577" xlink:href="#m040989abc0"/><use style="fill:#fff;stroke:#fff" x="641.339" y="358.168" xlink:href="#m040989abc0"/><use style="fill:#fff;stroke:#fff" x="642.275" y="361.681" xlink:href="#m040989abc0"/><use style="fill:#fff;stroke:#fff" x="643.212" y="360.071" xlink:href="#m040989abc0"/><use style="fill:#fff;stroke:#fff" x="644.148" y="356.321" xlink:href="#m040989abc0"/><use style="fill:#fff;stroke:#fff" x="645.085" y="362.415" xlink:href="#m040989abc0"/><use style="fill:#fff;stroke:#fff" x="646.021" y="364.374" xlink:href="#m040989abc0"/><use style="fill:#fff;stroke:#fff" x="646.958" y="365.275" xlink:href="#m040989abc0"/><use style="fill:#fff;stroke:#fff" x="647.894" y="362.115" xlink:href="#m040989abc0"/><use style="fill:#fff;stroke:#fff" x="648.831" y="363.743" xlink:href="#m040989abc0"/><use style="fill:#fff;stroke:#fff" x="649.767" y="367.641" xlink:href="#m040989abc0"/><use style="fill:#fff;stroke:#fff" x="650.704" y="365.283" xlink:href="#m040989abc0"/><use style="fill:#fff;stroke:#fff" x="651.64" y="370.759" xlink:href="#m040989abc0"/><use style="fill:#fff;stroke:#fff" x="652.577" y="368.53" xlink:href="#m040989abc0"/><use style="fill:#fff;stroke:#fff" x="653.513" y="410.154" xlink:href="#m040989abc0"/><use style="fill:#fff;stroke:#fff" x="654.45" y="364.32" xlink:href="#m040989abc0"/><use style="fill:#fff;stroke:#fff" x="655.386" y="367.481" xlink:href="#m040989abc0"/><use style="fill:#fff;stroke:#fff" x="656.323" y="370.109" xlink:href="#m040989abc0"/><use style="fill:#fff;stroke:#fff" x="657.259" y="371.477" xlink:href="#m040989abc0"/><use style="fill:#fff;stroke:#fff" x="658.196" y="366.125" xlink:href="#m040989abc0"/><use style="fill:#fff;stroke:#fff" x="659.132" y="370.307" xlink:href="#m040989abc0"/><use style="fill:#fff;stroke:#fff" x="660.069" y="373.742" xlink:href="#m040989abc0"/><use style="fill:#fff;stroke:#fff" x="661.005" y="373.99" xlink:href="#m040989abc0"/><use style="fill:#fff;stroke:#fff" x="661.942" y="374.009" xlink:href="#m040989abc0"/><use style="fill:#fff;stroke:#fff" x="662.878" y="378.506" xlink:href="#m040989abc0"/><use style="fill:#fff;stroke:#fff" x="663.815" y="376.733" xlink:href="#m040989abc0"/><use style="fill:#fff;stroke:#fff" x="664.751" y="375.547" xlink:href="#m040989abc0"/><use style="fill:#fff;stroke:#fff" x="665.688" y="377.902" xlink:href="#m040989abc0"/><use style="fill:#fff;stroke:#fff" x="666.624" y="382.394" xlink:href="#m040989abc0"/><use style="fill:#fff;stroke:#fff" x="667.561" y="376.264" xlink:href="#m040989abc0"/><use style="fill:#fff;stroke:#fff" x="668.497" y="379.993" xlink:href="#m040989abc0"/><use style="fill:#fff;stroke:#fff" x="669.434" y="382.55" xlink:href="#m040989abc0"/><use style="fill:#fff;stroke:#fff" x="670.37" y="383.838" xlink:href="#m040989abc0"/><use style="fill:#fff;stroke:#fff" x="671.307" y="382.207" xlink:href="#m040989abc0"/><use style="fill:#fff;stroke:#fff" x="672.243" y="383.535" xlink:href="#m040989abc0"/><use style="fill:#fff;stroke:#fff" x="673.18" y="386.944" xlink:href="#m040989abc0"/><use style="fill:#fff;stroke:#fff" x="674.116" y="383.061" xlink:href="#m040989abc0"/><use style="fill:#fff;stroke:#fff" x="675.053" y="385.005" xlink:href="#m040989abc0"/><use style="fill:#fff;stroke:#fff" x="675.989" y="388.78" xlink:href="#m040989abc0"/><use style="fill:#fff;stroke:#fff" x="676.926" y="384.949" xlink:href="#m040989abc0"/><use style="fill:#fff;stroke:#fff" x="677.862" y="386.137" xlink:href="#m040989abc0"/><use style="fill:#fff;stroke:#fff" x="678.799" y="394.831" xlink:href="#m040989abc0"/><use style="fill:#fff;stroke:#fff" x="679.735" y="387.775" xlink:href="#m040989abc0"/><use style="fill:#fff;stroke:#fff" x="680.672" y="391.27" xlink:href="#m040989abc0"/><use style="fill:#fff;stroke:#fff" x="681.608" y="391.102" xlink:href="#m040989abc0"/><use style="fill:#fff;stroke:#fff" x="682.545" y="394.309" xlink:href="#m040989abc0"/><use style="fill:#fff;stroke:#fff" x="683.481" y="394.184" xlink:href="#m040989abc0"/><use style="fill:#fff;stroke:#fff" x="684.418" y="396.741" xlink:href="#m040989abc0"/><use style="fill:#fff;stroke:#fff" x="685.354" y="402.907" xlink:href="#m040989abc0"/><use style="fill:#fff;stroke:#fff" x="686.291" y="397.744" xlink:href="#m040989abc0"/><use style="fill:#fff;stroke:#fff" x="687.227" y="395.963" xlink:href="#m040989abc0"/><use style="fill:#fff;stroke:#fff" x="688.164" y="398.95" xlink:href="#m040989abc0"/><use style="fill:#fff;stroke:#fff" x="689.1" y="402.919" xlink:href="#m040989abc0"/><use style="fill:#fff;stroke:#fff" x="690.037" y="400.808" xlink:href="#m040989abc0"/><use style="fill:#fff;stroke:#fff" x="690.973" y="401.523" xlink:href="#m040989abc0"/><use style="fill:#fff;stroke:#fff" x="691.91" y="401.667" xlink:href="#m040989abc0"/><use style="fill:#fff;stroke:#fff" x="692.846" y="408.947" xlink:href="#m040989abc0"/><use style="fill:#fff;stroke:#fff" x="693.783" y="407.803" xlink:href="#m040989abc0"/><use style="fill:#fff;stroke:#fff" x="694.719" y="408.992" xlink:href="#m040989abc0"/><use style="fill:#fff;stroke:#fff" x="695.656" y="400.984" xlink:href="#m040989abc0"/><use style="fill:#fff;stroke:#fff" x="696.592" y="410.854" xlink:href="#m040989abc0"/><use style="fill:#fff;stroke:#fff" x="697.529" y="407.222" xlink:href="#m040989abc0"/><use style="fill:#fff;stroke:#fff" x="698.465" y="408.022" xlink:href="#m040989abc0"/><use style="fill:#fff;stroke:#fff" x="699.402" y="408.547" xlink:href="#m040989abc0"/><use style="fill:#fff;stroke:#fff" x="700.338" y="414.35" xlink:href="#m040989abc0"/><use style="fill:#fff;stroke:#fff" x="701.275" y="416.415" xlink:href="#m040989abc0"/><use style="fill:#fff;stroke:#fff" x="702.211" y="415.121" xlink:href="#m040989abc0"/><use style="fill:#fff;stroke:#fff" x="703.148" y="420.106" xlink:href="#m040989abc0"/><use style="fill:#fff;stroke:#fff" x="704.084" y="416.641" xlink:href="#m040989abc0"/><use style="fill:#fff;stroke:#fff" x="705.021" y="411.979" xlink:href="#m040989abc0"/><use style="fill:#fff;stroke:#fff" x="705.957" y="424.847" xlink:href="#m040989abc0"/><use style="fill:#fff;stroke:#fff" x="706.894" y="423.009" xlink:href="#m040989abc0"/><use style="fill:#fff;stroke:#fff" x="707.83" y="422.227" xlink:href="#m040989abc0"/><use style="fill:#fff;stroke:#fff" x="708.767" y="421.661" xlink:href="#m040989abc0"/><use style="fill:#fff;stroke:#fff" x="709.703" y="420.146" xlink:href="#m040989abc0"/><use style="fill:#fff;stroke:#fff" x="710.64" y="424.215" xlink:href="#m040989abc0"/><use style="fill:#fff;stroke:#fff" x="711.577" y="429.524" xlink:href="#m040989abc0"/><use style="fill:#fff;stroke:#fff" x="712.513" y="433.392" xlink:href="#m040989abc0"/><use style="fill:#fff;stroke:#fff" x="713.45" y="428.876" xlink:href="#m040989abc0"/><use style="fill:#fff;stroke:#fff" x="714.386" y="432.542" xlink:href="#m040989abc0"/><use style="fill:#fff;stroke:#fff" x="715.323" y="435.561" xlink:href="#m040989abc0"/><use style="fill:#fff;stroke:#fff" x="716.259" y="431.427" xlink:href="#m040989abc0"/><use style="fill:#fff;stroke:#fff" x="717.196" y="432.633" xlink:href="#m040989abc0"/><use style="fill:#fff;stroke:#fff" x="718.132" y="437.702" xlink:href="#m040989abc0"/><use style="fill:#fff;stroke:#fff" x="719.069" y="435.559" xlink:href="#m040989abc0"/><use style="fill:#fff;stroke:#fff" x="720.005" y="436.312" xlink:href="#m040989abc0"/><use style="fill:#fff;stroke:#fff" x="720.942" y="440.124" xlink:href="#m040989abc0"/><use style="fill:#fff;stroke:#fff" x="721.878" y="443.847" xlink:href="#m040989abc0"/><use style="fill:#fff;stroke:#fff" x="722.815" y="445.225" xlink:href="#m040989abc0"/><use style="fill:#fff;stroke:#fff" x="723.751" y="448.756" xlink:href="#m040989abc0"/><use style="fill:#fff;stroke:#fff" x="724.688" y="444.214" xlink:href="#m040989abc0"/><use style="fill:#fff;stroke:#fff" x="725.624" y="450.546" xlink:href="#m040989abc0"/><use style="fill:#fff;stroke:#fff" x="726.561" y="445.049" xlink:href="#m040989abc0"/><use style="fill:#fff;stroke:#fff" x="727.497" y="457.038" xlink:href="#m040989abc0"/><use style="fill:#fff;stroke:#fff" x="728.434" y="452.364" xlink:href="#m040989abc0"/><use style="fill:#fff;stroke:#fff" x="729.37" y="449.347" xlink:href="#m040989abc0"/><use style="fill:#fff;stroke:#fff" x="730.307" y="451.813" xlink:href="#m040989abc0"/><use style="fill:#fff;stroke:#fff" x="731.243" y="456.169" xlink:href="#m040989abc0"/><use style="fill:#fff;stroke:#fff" x="732.18" y="449.955" xlink:href="#m040989abc0"/><use style="fill:#fff;stroke:#fff" x="733.116" y="466.229" xlink:href="#m040989abc0"/><use style="fill:#fff;stroke:#fff" x="734.053" y="456.741" xlink:href="#m040989abc0"/><use style="fill:#fff;stroke:#fff" x="734.989" y="461.393" xlink:href="#m040989abc0"/><use style="fill:#fff;stroke:#fff" x="735.926" y="463.432" xlink:href="#m040989abc0"/><use style="fill:#fff;stroke:#fff" x="736.862" y="468.661" xlink:href="#m040989abc0"/><use style="fill:#fff;stroke:#fff" x="737.799" y="465.306" xlink:href="#m040989abc0"/><use style="fill:#fff;stroke:#fff" x="738.735" y="467.368" xlink:href="#m040989abc0"/><use style="fill:#fff;stroke:#fff" x="739.672" y="480.469" xlink:href="#m040989abc0"/><use style="fill:#fff;stroke:#fff" x="740.608" y="478.45" xlink:href="#m040989abc0"/><use style="fill:#fff;stroke:#fff" x="741.545" y="476.453" xlink:href="#m040989abc0"/><use style="fill:#fff;stroke:#fff" x="742.481" y="474.872" xlink:href="#m040989abc0"/><use style="fill:#fff;stroke:#fff" x="743.418" y="476.503" xlink:href="#m040989abc0"/><use style="fill:#fff;stroke:#fff" x="744.354" y="479.27" xlink:href="#m040989abc0"/><use style="fill:#fff;stroke:#fff" x="745.291" y="480.814" xlink:href="#m040989abc0"/><use style="fill:#fff;stroke:#fff" x="746.227" y="492.48" xlink:href="#m040989abc0"/><use style="fill:#fff;stroke:#fff" x="747.164" y="487.966" xlink:href="#m040989abc0"/></g></g><g id="patch_3"><path d="M 108 512.64 L 108 69.12" style="fill:none;stroke:#fff;stroke-linecap:square;stroke-linejoin:miter;stroke-width:.8"/></g><g id="patch_4"><path d="M 777.6 512.64 L 777.6 69.12" style="fill:none;stroke:#fff;stroke-linecap:square;stroke-linejoin:miter;stroke-width:.8"/></g><g id="patch_5"><path d="M 108 512.64 L 777.6 512.64" style="fill:none;stroke:#fff;stroke-linecap:square;stroke-linejoin:miter;stroke-width:.8"/></g><g id="patch_6"><path d="M 108 69.12 L 777.6 69.12" style="fill:none;stroke:#fff;stroke-linecap:square;stroke-linejoin:miter;stroke-width:.8"/></g><g id="text_16"><g style="fill:#fff" transform="translate(311.95875 63.12)scale(0.12 -0.12)"><defs><path id="DejaVuSans-66" d="M 2375 4863 L 2375 4384 L 1825 4384 Q 1516 4384 1395 4259 Q 1275 4134 1275 3809 L 1275 3500 L 2222 3500 L 2222 3053 L 1275 3053 L 1275 0 L 697 0 L 697 3053 L 147 3053 L 147 3500 L 697 3500 L 697 3744 Q 697 4328 969 4595 Q 1241 4863 1831 4863 L 2375 4863 z" transform="scale(0.015625)"/><path id="DejaVuSans-5f" d="M 3263 -1063 L 3263 -1509 L -63 -1509 L -63 -1063 L 3263 -1063 z" transform="scale(0.015625)"/><path id="DejaVuSans-42" d="M 1259 2228 L 1259 519 L 2272 519 Q 2781 519 3026 730 Q 3272 941 3272 1375 Q 3272 1813 3026 2020 Q 2781 2228 2272 2228 L 1259 2228 z M 1259 4147 L 1259 2741 L 2194 2741 Q 2656 2741 2882 2914 Q 3109 3088 3109 3444 Q 3109 3797 2882 3972 Q 2656 4147 2194 4147 L 1259 4147 z M 628 4666 L 2241 4666 Q 2963 4666 3353 4366 Q 3744 4066 3744 3513 Q 3744 3084 3544 2831 Q 3344 2578 2956 2516 Q 3422 2416 3680 2098 Q 3938 1781 3938 1306 Q 3938 681 3513 340 Q 3088 0 2303 0 L 628 0 L 628 4666 z" transform="scale(0.015625)"/><path id="DejaVuSans-63" d="M 3122 3366 L 3122 2828 Q 2878 2963 2633 3030 Q 2388 3097 2138 3097 Q 1578 3097 1268 2742 Q 959 2388 959 1747 Q 959 1106 1268 751 Q 1578 397 2138 397 Q 2388 397 2633 464 Q 2878 531 3122 666 L 3122 134 Q 2881 22 2623 -34 Q 2366 -91 2075 -91 Q 1284 -91 818 406 Q 353 903 353 1747 Q 353 2603 823 3093 Q 1294 3584 2113 3584 Q 2378 3584 2631 3529 Q 2884 3475 3122 3366 z" transform="scale(0.015625)"/><path id="DejaVuSans-75" d="M 544 1381 L 544 3500 L 1119 3500 L 1119 1403 Q 1119 906 1312 657 Q 1506 409 1894 409 Q 2359 409 2629 706 Q 2900 1003 2900 1516 L 2900 3500 L 3475 3500 L 3475 0 L 2900 0 L 2900 538 Q 2691 219 2414 64 Q 2138 -91 1772 -91 Q 1169 -91 856 284 Q 544 659 544 1381 z M 1991 3584 L 1991 3584 z" transform="scale(0.015625)"/><path id="DejaVuSans-62" d="M 3116 1747 Q 3116 2381 2855 2742 Q 2594 3103 2138 3103 Q 1681 3103 1420 2742 Q 1159 2381 1159 1747 Q 1159 1113 1420 752 Q 1681 391 2138 391 Q 2594 391 2855 752 Q 3116 1113 3116 1747 z M 1159 2969 Q 1341 3281 1617 3432 Q 1894 3584 2278 3584 Q 2916 3584 3314 3078 Q 3713 2572 3713 1747 Q 3713 922 3314 415 Q 2916 -91 2278 -91 Q 1894 -91 1617 61 Q 1341 213 1159 525 L 1159 0 L 581 0 L 581 4863 L 1159 4863 L 1159 2969 z" transform="scale(0.015625)"/><path id="DejaVuSans-2e" d="M 684 794 L 1344 794 L 1344 0 L 684 0 L 684 794 z" transform="scale(0.015625)"/><path id="DejaVuSans-73" d="M 2834 3397 L 2834 2853 Q 2591 2978 2328 3040 Q 2066 3103 1784 3103 Q 1356 3103 1142 2972 Q 928 2841 928 2578 Q 928 2378 1081 2264 Q 1234 2150 1697 2047 L 1894 2003 Q 2506 1872 2764 1633 Q 3022 1394 3022 966 Q 3022 478 2636 193 Q 2250 -91 1575 -91 Q 1294 -91 989 -36 Q 684 19 347 128 L 347 722 Q 666 556 975 473 Q 1284 391 1588 391 Q 1994 391 2212 530 Q 2431 669 2431 922 Q 2431 1156 2273 1281 Q 2116 1406 1581 1522 L 1381 1569 Q 847 1681 609 1914 Q 372 2147 372 2553 Q 372 3047 722 3315 Q 1072 3584 1716 3584 Q 2034 3584 2315 3537 Q 2597 3491 2834 3397 z" transform="scale(0.015625)"/><path id="DejaVuSans-70" d="M 1159 525 L 1159 -1331 L 581 -1331 L 581 3500 L 1159 3500 L 1159 2969 Q 1341 3281 1617 3432 Q 1894 3584 2278 3584 Q 2916 3584 3314 3078 Q 3713 2572 3713 1747 Q 3713 922 3314 415 Q 2916 -91 2278 -91 Q 1894 -91 1617 61 Q 1341 213 1159 525 z M 3116 1747 Q 3116 2381 2855 2742 Q 2594 3103 2138 3103 Q 1681 3103 1420 2742 Q 1159 2381 1159 1747 Q 1159 1113 1420 752 Q 1681 391 2138 391 Q 2594 391 2855 752 Q 3116 1113 3116 1747 z" transform="scale(0.015625)"/></defs><use xlink:href="#DejaVuSans-66"/><use x="35.205" xlink:href="#DejaVuSans-5f"/><use x="85.205" xlink:href="#DejaVuSans-30"/><use x="148.828" xlink:href="#DejaVuSans-5f"/><use x="198.828" xlink:href="#DejaVuSans-42"/><use x="267.432" xlink:href="#DejaVuSans-69"/><use x="295.215" xlink:href="#DejaVuSans-63"/><use x="350.195" xlink:href="#DejaVuSans-75"/><use x="413.574" xlink:href="#DejaVuSans-62"/><use x="477.051" xlink:href="#DejaVuSans-69"/><use x="504.834" xlink:href="#DejaVuSans-63"/><use x="559.814" xlink:href="#DejaVuSans-5f"/><use x="609.814" xlink:href="#DejaVuSans-62"/><use x="673.291" xlink:href="#DejaVuSans-5f"/><use x="723.291" xlink:href="#DejaVuSans-30"/><use x="786.914" xlink:href="#DejaVuSans-2e"/><use x="818.701" xlink:href="#DejaVuSans-33"/><use x="882.324" xlink:href="#DejaVuSans-33"/><use x="945.947" xlink:href="#DejaVuSans-5f"/><use x="995.947" xlink:href="#DejaVuSans-63"/><use x="1050.928" xlink:href="#DejaVuSans-5f"/><use x="1100.928" xlink:href="#DejaVuSans-30"/><use x="1164.551" xlink:href="#DejaVuSans-2e"/><use x="1196.338" xlink:href="#DejaVuSans-33"/><use x="1259.961" xlink:href="#DejaVuSans-33"/><use x="1323.584" xlink:href="#DejaVuSans-5f"/><use x="1373.584" xlink:href="#DejaVuSans-61"/><use x="1434.863" xlink:href="#DejaVuSans-72"/><use x="1475.977" xlink:href="#DejaVuSans-5f"/><use x="1525.977" xlink:href="#DejaVuSans-31"/><use x="1589.6" xlink:href="#DejaVuSans-2e"/><use x="1621.387" xlink:href="#DejaVuSans-37"/><use x="1685.01" xlink:href="#DejaVuSans-38"/><use x="1748.633" xlink:href="#DejaVuSans-5f"/><use x="1798.633" xlink:href="#DejaVuSans-73"/><use x="1850.732" xlink:href="#DejaVuSans-74"/><use x="1889.941" xlink:href="#DejaVuSans-65"/><use x="1951.465" xlink:href="#DejaVuSans-70"/><use x="2014.941" xlink:href="#DejaVuSans-73"/><use x="2067.041" xlink:href="#DejaVuSans-5f"/><use x="2117.041" xlink:href="#DejaVuSans-31"/></g></g></g></g><defs><clipPath id="pf00084a7a9"><rect width="669.6" height="443.52" x="108" y="69.12"/></clipPath></defs></svg>