<svg xmlns="http://www.w3.org/2000/svg" xmlns:xlink="http://www.w3.org/1999/xlink" width="1152" height="768" version="1.1" viewBox="0 0 864 576"><metadata><rdf:RDF xmlns:cc="http://creativecommons.org/ns#" xmlns:dc="http://purl.org/dc/elements/1.1/" xmlns:rdf="http://www.w3.org/1999/02/22-rdf-syntax-ns#"><cc:Work><dc:type rdf:resource="http://purl.org/dc/dcmitype/StillImage"/><dc:date>2021-07-25T17:57:54.021261</dc:date><dc:format>image/svg+xml</dc:format><dc:creator><cc:Agent><dc:title>Matplotlib v3.4.2, https://matplotlib.org/</dc:title></cc:Agent></dc:creator></cc:Work></rdf:RDF></metadata><defs><style type="text/css">*{stroke-linecap:butt;stroke-linejoin:round}</style></defs><g id="figure_1"><g id="patch_1"><path d="M 0 576 L 864 576 L 864 0 L 0 0 z"/></g><g id="axes_1"><g id="patch_2"><path d="M 108 512.64 L 777.6 512.64 L 777.6 69.12 L 108 69.12 z"/></g><g id="matplotlib.axis_1"><g id="xtick_1"><g id="line2d_1"><defs><path id="m6eff8d5f8a" d="M 0 0 L 0 3.5" style="stroke:#fff;stroke-width:.8"/></defs><g><use style="fill:#fff;stroke:#fff;stroke-width:.8" x="138.436" y="512.64" xlink:href="#m6eff8d5f8a"/></g></g><g id="text_1"><g style="fill:#fff" transform="translate(128.892614 527.238438)scale(0.1 -0.1)"><defs><path id="DejaVuSans-33" d="M 2597 2516 Q 3050 2419 3304 2112 Q 3559 1806 3559 1356 Q 3559 666 3084 287 Q 2609 -91 1734 -91 Q 1441 -91 1130 -33 Q 819 25 488 141 L 488 750 Q 750 597 1062 519 Q 1375 441 1716 441 Q 2309 441 2620 675 Q 2931 909 2931 1356 Q 2931 1769 2642 2001 Q 2353 2234 1838 2234 L 1294 2234 L 1294 2753 L 1863 2753 Q 2328 2753 2575 2939 Q 2822 3125 2822 3475 Q 2822 3834 2567 4026 Q 2313 4219 1838 4219 Q 1578 4219 1281 4162 Q 984 4106 628 3988 L 628 4550 Q 988 4650 1302 4700 Q 1616 4750 1894 4750 Q 2613 4750 3031 4423 Q 3450 4097 3450 3541 Q 3450 3153 3228 2886 Q 3006 2619 2597 2516 z" transform="scale(0.015625)"/><path id="DejaVuSans-36" d="M 2113 2584 Q 1688 2584 1439 2293 Q 1191 2003 1191 1497 Q 1191 994 1439 701 Q 1688 409 2113 409 Q 2538 409 2786 701 Q 3034 994 3034 1497 Q 3034 2003 2786 2293 Q 2538 2584 2113 2584 z M 3366 4563 L 3366 3988 Q 3128 4100 2886 4159 Q 2644 4219 2406 4219 Q 1781 4219 1451 3797 Q 1122 3375 1075 2522 Q 1259 2794 1537 2939 Q 1816 3084 2150 3084 Q 2853 3084 3261 2657 Q 3669 2231 3669 1497 Q 3669 778 3244 343 Q 2819 -91 2113 -91 Q 1303 -91 875 529 Q 447 1150 447 2328 Q 447 3434 972 4092 Q 1497 4750 2381 4750 Q 2619 4750 2861 4703 Q 3103 4656 3366 4563 z" transform="scale(0.015625)"/><path id="DejaVuSans-30" d="M 2034 4250 Q 1547 4250 1301 3770 Q 1056 3291 1056 2328 Q 1056 1369 1301 889 Q 1547 409 2034 409 Q 2525 409 2770 889 Q 3016 1369 3016 2328 Q 3016 3291 2770 3770 Q 2525 4250 2034 4250 z M 2034 4750 Q 2819 4750 3233 4129 Q 3647 3509 3647 2328 Q 3647 1150 3233 529 Q 2819 -91 2034 -91 Q 1250 -91 836 529 Q 422 1150 422 2328 Q 422 3509 836 4129 Q 1250 4750 2034 4750 z" transform="scale(0.015625)"/></defs><use xlink:href="#DejaVuSans-33"/><use x="63.623" xlink:href="#DejaVuSans-36"/><use x="127.246" xlink:href="#DejaVuSans-30"/></g></g></g><g id="xtick_2"><g id="line2d_2"><g><use style="fill:#fff;stroke:#fff;stroke-width:.8" x="199.309" y="512.64" xlink:href="#m6eff8d5f8a"/></g></g><g id="text_2"><g style="fill:#fff" transform="translate(189.765341 527.238438)scale(0.1 -0.1)"><defs><path id="DejaVuSans-34" d="M 2419 4116 L 825 1625 L 2419 1625 L 2419 4116 z M 2253 4666 L 3047 4666 L 3047 1625 L 3713 1625 L 3713 1100 L 3047 1100 L 3047 0 L 2419 0 L 2419 1100 L 313 1100 L 313 1709 L 2253 4666 z" transform="scale(0.015625)"/><path id="DejaVuSans-32" d="M 1228 531 L 3431 531 L 3431 0 L 469 0 L 469 531 Q 828 903 1448 1529 Q 2069 2156 2228 2338 Q 2531 2678 2651 2914 Q 2772 3150 2772 3378 Q 2772 3750 2511 3984 Q 2250 4219 1831 4219 Q 1534 4219 1204 4116 Q 875 4013 500 3803 L 500 4441 Q 881 4594 1212 4672 Q 1544 4750 1819 4750 Q 2544 4750 2975 4387 Q 3406 4025 3406 3419 Q 3406 3131 3298 2873 Q 3191 2616 2906 2266 Q 2828 2175 2409 1742 Q 1991 1309 1228 531 z" transform="scale(0.015625)"/></defs><use xlink:href="#DejaVuSans-34"/><use x="63.623" xlink:href="#DejaVuSans-32"/><use x="127.246" xlink:href="#DejaVuSans-34"/></g></g></g><g id="xtick_3"><g id="line2d_3"><g><use style="fill:#fff;stroke:#fff;stroke-width:.8" x="260.182" y="512.64" xlink:href="#m6eff8d5f8a"/></g></g><g id="text_3"><g style="fill:#fff" transform="translate(250.638068 527.238438)scale(0.1 -0.1)"><defs><path id="DejaVuSans-38" d="M 2034 2216 Q 1584 2216 1326 1975 Q 1069 1734 1069 1313 Q 1069 891 1326 650 Q 1584 409 2034 409 Q 2484 409 2743 651 Q 3003 894 3003 1313 Q 3003 1734 2745 1975 Q 2488 2216 2034 2216 z M 1403 2484 Q 997 2584 770 2862 Q 544 3141 544 3541 Q 544 4100 942 4425 Q 1341 4750 2034 4750 Q 2731 4750 3128 4425 Q 3525 4100 3525 3541 Q 3525 3141 3298 2862 Q 3072 2584 2669 2484 Q 3125 2378 3379 2068 Q 3634 1759 3634 1313 Q 3634 634 3220 271 Q 2806 -91 2034 -91 Q 1263 -91 848 271 Q 434 634 434 1313 Q 434 1759 690 2068 Q 947 2378 1403 2484 z M 1172 3481 Q 1172 3119 1398 2916 Q 1625 2713 2034 2713 Q 2441 2713 2670 2916 Q 2900 3119 2900 3481 Q 2900 3844 2670 4047 Q 2441 4250 2034 4250 Q 1625 4250 1398 4047 Q 1172 3844 1172 3481 z" transform="scale(0.015625)"/></defs><use xlink:href="#DejaVuSans-34"/><use x="63.623" xlink:href="#DejaVuSans-38"/><use x="127.246" xlink:href="#DejaVuSans-38"/></g></g></g><g id="xtick_4"><g id="line2d_4"><g><use style="fill:#fff;stroke:#fff;stroke-width:.8" x="321.055" y="512.64" xlink:href="#m6eff8d5f8a"/></g></g><g id="text_4"><g style="fill:#fff" transform="translate(311.510795 527.238438)scale(0.1 -0.1)"><defs><path id="DejaVuSans-35" d="M 691 4666 L 3169 4666 L 3169 4134 L 1269 4134 L 1269 2991 Q 1406 3038 1543 3061 Q 1681 3084 1819 3084 Q 2600 3084 3056 2656 Q 3513 2228 3513 1497 Q 3513 744 3044 326 Q 2575 -91 1722 -91 Q 1428 -91 1123 -41 Q 819 9 494 109 L 494 744 Q 775 591 1075 516 Q 1375 441 1709 441 Q 2250 441 2565 725 Q 2881 1009 2881 1497 Q 2881 1984 2565 2268 Q 2250 2553 1709 2553 Q 1456 2553 1204 2497 Q 953 2441 691 2322 L 691 4666 z" transform="scale(0.015625)"/></defs><use xlink:href="#DejaVuSans-35"/><use x="63.623" xlink:href="#DejaVuSans-35"/><use x="127.246" xlink:href="#DejaVuSans-32"/></g></g></g><g id="xtick_5"><g id="line2d_5"><g><use style="fill:#fff;stroke:#fff;stroke-width:.8" x="381.927" y="512.64" xlink:href="#m6eff8d5f8a"/></g></g><g id="text_5"><g style="fill:#fff" transform="translate(372.383523 527.238438)scale(0.1 -0.1)"><defs><path id="DejaVuSans-31" d="M 794 531 L 1825 531 L 1825 4091 L 703 3866 L 703 4441 L 1819 4666 L 2450 4666 L 2450 531 L 3481 531 L 3481 0 L 794 0 L 794 531 z" transform="scale(0.015625)"/></defs><use xlink:href="#DejaVuSans-36"/><use x="63.623" xlink:href="#DejaVuSans-31"/><use x="127.246" xlink:href="#DejaVuSans-36"/></g></g></g><g id="xtick_6"><g id="line2d_6"><g><use style="fill:#fff;stroke:#fff;stroke-width:.8" x="442.8" y="512.64" xlink:href="#m6eff8d5f8a"/></g></g><g id="text_6"><g style="fill:#fff" transform="translate(433.25625 527.238438)scale(0.1 -0.1)"><use xlink:href="#DejaVuSans-36"/><use x="63.623" xlink:href="#DejaVuSans-38"/><use x="127.246" xlink:href="#DejaVuSans-30"/></g></g></g><g id="xtick_7"><g id="line2d_7"><g><use style="fill:#fff;stroke:#fff;stroke-width:.8" x="503.673" y="512.64" xlink:href="#m6eff8d5f8a"/></g></g><g id="text_7"><g style="fill:#fff" transform="translate(494.128977 527.238438)scale(0.1 -0.1)"><defs><path id="DejaVuSans-37" d="M 525 4666 L 3525 4666 L 3525 4397 L 1831 0 L 1172 0 L 2766 4134 L 525 4134 L 525 4666 z" transform="scale(0.015625)"/></defs><use xlink:href="#DejaVuSans-37"/><use x="63.623" xlink:href="#DejaVuSans-34"/><use x="127.246" xlink:href="#DejaVuSans-34"/></g></g></g><g id="xtick_8"><g id="line2d_8"><g><use style="fill:#fff;stroke:#fff;stroke-width:.8" x="564.545" y="512.64" xlink:href="#m6eff8d5f8a"/></g></g><g id="text_8"><g style="fill:#fff" transform="translate(555.001705 527.238438)scale(0.1 -0.1)"><use xlink:href="#DejaVuSans-38"/><use x="63.623" xlink:href="#DejaVuSans-30"/><use x="127.246" xlink:href="#DejaVuSans-38"/></g></g></g><g id="xtick_9"><g id="line2d_9"><g><use style="fill:#fff;stroke:#fff;stroke-width:.8" x="625.418" y="512.64" xlink:href="#m6eff8d5f8a"/></g></g><g id="text_9"><g style="fill:#fff" transform="translate(615.874432 527.238438)scale(0.1 -0.1)"><use xlink:href="#DejaVuSans-38"/><use x="63.623" xlink:href="#DejaVuSans-37"/><use x="127.246" xlink:href="#DejaVuSans-32"/></g></g></g><g id="xtick_10"><g id="line2d_10"><g><use style="fill:#fff;stroke:#fff;stroke-width:.8" x="686.291" y="512.64" xlink:href="#m6eff8d5f8a"/></g></g><g id="text_10"><g style="fill:#fff" transform="translate(676.747159 527.238438)scale(0.1 -0.1)"><defs><path id="DejaVuSans-39" d="M 703 97 L 703 672 Q 941 559 1184 500 Q 1428 441 1663 441 Q 2288 441 2617 861 Q 2947 1281 2994 2138 Q 2813 1869 2534 1725 Q 2256 1581 1919 1581 Q 1219 1581 811 2004 Q 403 2428 403 3163 Q 403 3881 828 4315 Q 1253 4750 1959 4750 Q 2769 4750 3195 4129 Q 3622 3509 3622 2328 Q 3622 1225 3098 567 Q 2575 -91 1691 -91 Q 1453 -91 1209 -44 Q 966 3 703 97 z M 1959 2075 Q 2384 2075 2632 2365 Q 2881 2656 2881 3163 Q 2881 3666 2632 3958 Q 2384 4250 1959 4250 Q 1534 4250 1286 3958 Q 1038 3666 1038 3163 Q 1038 2656 1286 2365 Q 1534 2075 1959 2075 z" transform="scale(0.015625)"/></defs><use xlink:href="#DejaVuSans-39"/><use x="63.623" xlink:href="#DejaVuSans-33"/><use x="127.246" xlink:href="#DejaVuSans-36"/></g></g></g><g id="xtick_11"><g id="line2d_11"><g><use style="fill:#fff;stroke:#fff;stroke-width:.8" x="747.164" y="512.64" xlink:href="#m6eff8d5f8a"/></g></g><g id="text_11"><g style="fill:#fff" transform="translate(734.438636 527.238438)scale(0.1 -0.1)"><use xlink:href="#DejaVuSans-31"/><use x="63.623" xlink:href="#DejaVuSans-30"/><use x="127.246" xlink:href="#DejaVuSans-30"/><use x="190.869" xlink:href="#DejaVuSans-30"/></g></g></g><g id="text_12"><g style="fill:#fff" transform="translate(426.271094 540.916563)scale(0.1 -0.1)"><defs><path id="DejaVuSans-48" d="M 628 4666 L 1259 4666 L 1259 2753 L 3553 2753 L 3553 4666 L 4184 4666 L 4184 0 L 3553 0 L 3553 2222 L 1259 2222 L 1259 0 L 628 0 L 628 4666 z" transform="scale(0.015625)"/><path id="DejaVuSans-65" d="M 3597 1894 L 3597 1613 L 953 1613 Q 991 1019 1311 708 Q 1631 397 2203 397 Q 2534 397 2845 478 Q 3156 559 3463 722 L 3463 178 Q 3153 47 2828 -22 Q 2503 -91 2169 -91 Q 1331 -91 842 396 Q 353 884 353 1716 Q 353 2575 817 3079 Q 1281 3584 2069 3584 Q 2775 3584 3186 3129 Q 3597 2675 3597 1894 z M 3022 2063 Q 3016 2534 2758 2815 Q 2500 3097 2075 3097 Q 1594 3097 1305 2825 Q 1016 2553 972 2059 L 3022 2063 z" transform="scale(0.015625)"/><path id="DejaVuSans-69" d="M 603 3500 L 1178 3500 L 1178 0 L 603 0 L 603 3500 z M 603 4863 L 1178 4863 L 1178 4134 L 603 4134 L 603 4863 z" transform="scale(0.015625)"/><path id="DejaVuSans-67" d="M 2906 1791 Q 2906 2416 2648 2759 Q 2391 3103 1925 3103 Q 1463 3103 1205 2759 Q 947 2416 947 1791 Q 947 1169 1205 825 Q 1463 481 1925 481 Q 2391 481 2648 825 Q 2906 1169 2906 1791 z M 3481 434 Q 3481 -459 3084 -895 Q 2688 -1331 1869 -1331 Q 1566 -1331 1297 -1286 Q 1028 -1241 775 -1147 L 775 -588 Q 1028 -725 1275 -790 Q 1522 -856 1778 -856 Q 2344 -856 2625 -561 Q 2906 -266 2906 331 L 2906 616 Q 2728 306 2450 153 Q 2172 0 1784 0 Q 1141 0 747 490 Q 353 981 353 1791 Q 353 2603 747 3093 Q 1141 3584 1784 3584 Q 2172 3584 2450 3431 Q 2728 3278 2906 2969 L 2906 3500 L 3481 3500 L 3481 434 z" transform="scale(0.015625)"/><path id="DejaVuSans-68" d="M 3513 2113 L 3513 0 L 2938 0 L 2938 2094 Q 2938 2591 2744 2837 Q 2550 3084 2163 3084 Q 1697 3084 1428 2787 Q 1159 2491 1159 1978 L 1159 0 L 581 0 L 581 4863 L 1159 4863 L 1159 2956 Q 1366 3272 1645 3428 Q 1925 3584 2291 3584 Q 2894 3584 3203 3211 Q 3513 2838 3513 2113 z" transform="scale(0.015625)"/><path id="DejaVuSans-74" d="M 1172 4494 L 1172 3500 L 2356 3500 L 2356 3053 L 1172 3053 L 1172 1153 Q 1172 725 1289 603 Q 1406 481 1766 481 L 2356 481 L 2356 0 L 1766 0 Q 1100 0 847 248 Q 594 497 594 1153 L 594 3053 L 172 3053 L 172 3500 L 594 3500 L 594 4494 L 1172 4494 z" transform="scale(0.015625)"/></defs><use xlink:href="#DejaVuSans-48"/><use x="75.195" xlink:href="#DejaVuSans-65"/><use x="136.719" xlink:href="#DejaVuSans-69"/><use x="164.502" xlink:href="#DejaVuSans-67"/><use x="227.979" xlink:href="#DejaVuSans-68"/><use x="291.357" xlink:href="#DejaVuSans-74"/></g></g></g><g id="matplotlib.axis_2"><g id="ytick_1"><g id="line2d_12"><defs><path id="m96da7d1f2d" d="M 0 0 L -3.5 0" style="stroke:#fff;stroke-width:.8"/></defs><g><use style="fill:#fff;stroke:#fff;stroke-width:.8" x="108" y="430.975" xlink:href="#m96da7d1f2d"/></g></g><g id="text_13"><g style="fill:#fff" transform="translate(77.5 434.774529)scale(0.1 -0.1)"><defs><path id="DejaVuSans-2212" d="M 678 2272 L 4684 2272 L 4684 1741 L 678 1741 L 678 2272 z" transform="scale(0.015625)"/></defs><use transform="translate(0 0.684375)" xlink:href="#DejaVuSans-31"/><use transform="translate(63.623047 0.684375)" xlink:href="#DejaVuSans-30"/><use transform="translate(128.203125 38.965625)scale(0.7)" xlink:href="#DejaVuSans-2212"/><use transform="translate(186.855469 38.965625)scale(0.7)" xlink:href="#DejaVuSans-34"/></g></g></g><g id="ytick_2"><g id="line2d_13"><g><use style="fill:#fff;stroke:#fff;stroke-width:.8" x="108" y="202.057" xlink:href="#m96da7d1f2d"/></g></g><g id="text_14"><g style="fill:#fff" transform="translate(77.5 205.856677)scale(0.1 -0.1)"><use transform="translate(0 0.765625)" xlink:href="#DejaVuSans-31"/><use transform="translate(63.623047 0.765625)" xlink:href="#DejaVuSans-30"/><use transform="translate(128.203125 39.046875)scale(0.7)" xlink:href="#DejaVuSans-2212"/><use transform="translate(186.855469 39.046875)scale(0.7)" xlink:href="#DejaVuSans-33"/></g></g></g><g id="ytick_3"><g id="line2d_14"><defs><path id="m6610dc86aa" d="M 0 0 L -2 0" style="stroke:#fff;stroke-width:.6"/></defs><g><use style="fill:#fff;stroke:#fff;stroke-width:.6" x="108" y="499.886" xlink:href="#m6610dc86aa"/></g></g></g><g id="ytick_4"><g id="line2d_15"><g><use style="fill:#fff;stroke:#fff;stroke-width:.6" x="108" y="481.76" xlink:href="#m6610dc86aa"/></g></g></g><g id="ytick_5"><g id="line2d_16"><g><use style="fill:#fff;stroke:#fff;stroke-width:.6" x="108" y="466.435" xlink:href="#m6610dc86aa"/></g></g></g><g id="ytick_6"><g id="line2d_17"><g><use style="fill:#fff;stroke:#fff;stroke-width:.6" x="108" y="453.16" xlink:href="#m6610dc86aa"/></g></g></g><g id="ytick_7"><g id="line2d_18"><g><use style="fill:#fff;stroke:#fff;stroke-width:.6" x="108" y="441.45" xlink:href="#m6610dc86aa"/></g></g></g><g id="ytick_8"><g id="line2d_19"><g><use style="fill:#fff;stroke:#fff;stroke-width:.6" x="108" y="362.064" xlink:href="#m6610dc86aa"/></g></g></g><g id="ytick_9"><g id="line2d_20"><g><use style="fill:#fff;stroke:#fff;stroke-width:.6" x="108" y="321.754" xlink:href="#m6610dc86aa"/></g></g></g><g id="ytick_10"><g id="line2d_21"><g><use style="fill:#fff;stroke:#fff;stroke-width:.6" x="108" y="293.153" xlink:href="#m6610dc86aa"/></g></g></g><g id="ytick_11"><g id="line2d_22"><g><use style="fill:#fff;stroke:#fff;stroke-width:.6" x="108" y="270.969" xlink:href="#m6610dc86aa"/></g></g></g><g id="ytick_12"><g id="line2d_23"><g><use style="fill:#fff;stroke:#fff;stroke-width:.6" x="108" y="252.843" xlink:href="#m6610dc86aa"/></g></g></g><g id="ytick_13"><g id="line2d_24"><g><use style="fill:#fff;stroke:#fff;stroke-width:.6" x="108" y="237.517" xlink:href="#m6610dc86aa"/></g></g></g><g id="ytick_14"><g id="line2d_25"><g><use style="fill:#fff;stroke:#fff;stroke-width:.6" x="108" y="224.242" xlink:href="#m6610dc86aa"/></g></g></g><g id="ytick_15"><g id="line2d_26"><g><use style="fill:#fff;stroke:#fff;stroke-width:.6" x="108" y="212.532" xlink:href="#m6610dc86aa"/></g></g></g><g id="ytick_16"><g id="line2d_27"><g><use style="fill:#fff;stroke:#fff;stroke-width:.6" x="108" y="133.146" xlink:href="#m6610dc86aa"/></g></g></g><g id="ytick_17"><g id="line2d_28"><g><use style="fill:#fff;stroke:#fff;stroke-width:.6" x="108" y="92.836" xlink:href="#m6610dc86aa"/></g></g></g><g id="text_15"><g style="fill:#fff" transform="translate(71.420312 324.735469)rotate(-90)scale(0.1 -0.1)"><defs><path id="DejaVuSans-52" d="M 2841 2188 Q 3044 2119 3236 1894 Q 3428 1669 3622 1275 L 4263 0 L 3584 0 L 2988 1197 Q 2756 1666 2539 1819 Q 2322 1972 1947 1972 L 1259 1972 L 1259 0 L 628 0 L 628 4666 L 2053 4666 Q 2853 4666 3247 4331 Q 3641 3997 3641 3322 Q 3641 2881 3436 2590 Q 3231 2300 2841 2188 z M 1259 4147 L 1259 2491 L 2053 2491 Q 2509 2491 2742 2702 Q 2975 2913 2975 3322 Q 2975 3731 2742 3939 Q 2509 4147 2053 4147 L 1259 4147 z" transform="scale(0.015625)"/><path id="DejaVuSans-6c" d="M 603 4863 L 1178 4863 L 1178 0 L 603 0 L 603 4863 z" transform="scale(0.015625)"/><path id="DejaVuSans-61" d="M 2194 1759 Q 1497 1759 1228 1600 Q 959 1441 959 1056 Q 959 750 1161 570 Q 1363 391 1709 391 Q 2188 391 2477 730 Q 2766 1069 2766 1631 L 2766 1759 L 2194 1759 z M 3341 1997 L 3341 0 L 2766 0 L 2766 531 Q 2569 213 2275 61 Q 1981 -91 1556 -91 Q 1019 -91 701 211 Q 384 513 384 1019 Q 384 1609 779 1909 Q 1175 2209 1959 2209 L 2766 2209 L 2766 2266 Q 2766 2663 2505 2880 Q 2244 3097 1772 3097 Q 1472 3097 1187 3025 Q 903 2953 641 2809 L 641 3341 Q 956 3463 1253 3523 Q 1550 3584 1831 3584 Q 2591 3584 2966 3190 Q 3341 2797 3341 1997 z" transform="scale(0.015625)"/><path id="DejaVuSans-76" d="M 191 3500 L 800 3500 L 1894 563 L 2988 3500 L 3597 3500 L 2284 0 L 1503 0 L 191 3500 z" transform="scale(0.015625)"/><path id="DejaVuSans-20" transform="scale(0.015625)"/><path id="DejaVuSans-72" d="M 2631 2963 Q 2534 3019 2420 3045 Q 2306 3072 2169 3072 Q 1681 3072 1420 2755 Q 1159 2438 1159 1844 L 1159 0 L 581 0 L 581 3500 L 1159 3500 L 1159 2956 Q 1341 3275 1631 3429 Q 1922 3584 2338 3584 Q 2397 3584 2469 3576 Q 2541 3569 2628 3553 L 2631 2963 z" transform="scale(0.015625)"/><path id="DejaVuSans-6f" d="M 1959 3097 Q 1497 3097 1228 2736 Q 959 2375 959 1747 Q 959 1119 1226 758 Q 1494 397 1959 397 Q 2419 397 2687 759 Q 2956 1122 2956 1747 Q 2956 2369 2687 2733 Q 2419 3097 1959 3097 z M 1959 3584 Q 2709 3584 3137 3096 Q 3566 2609 3566 1747 Q 3566 888 3137 398 Q 2709 -91 1959 -91 Q 1206 -91 779 398 Q 353 888 353 1747 Q 353 2609 779 3096 Q 1206 3584 1959 3584 z" transform="scale(0.015625)"/></defs><use xlink:href="#DejaVuSans-52"/><use x="64.982" xlink:href="#DejaVuSans-65"/><use x="126.506" xlink:href="#DejaVuSans-6c"/><use x="154.289" xlink:href="#DejaVuSans-61"/><use x="215.568" xlink:href="#DejaVuSans-74"/><use x="254.777" xlink:href="#DejaVuSans-69"/><use x="282.561" xlink:href="#DejaVuSans-76"/><use x="341.74" xlink:href="#DejaVuSans-65"/><use x="403.264" xlink:href="#DejaVuSans-20"/><use x="435.051" xlink:href="#DejaVuSans-65"/><use x="496.574" xlink:href="#DejaVuSans-72"/><use x="535.938" xlink:href="#DejaVuSans-72"/><use x="574.801" xlink:href="#DejaVuSans-6f"/><use x="635.982" xlink:href="#DejaVuSans-72"/></g></g></g><g id="line2d_29"><path d="M 138.436364 89.28 L 139.3875 91.950223 L 140.338636 93.660046 L 141.289773 93.51541 L 142.240909 93.655672 L 143.192045 94.337941 L 144.143182 95.452975 L 146.996591 97.371343 L 147.947727 98.515835 L 148.898864 98.532112 L 149.85 99.234418 L 150.801136 101.06758 L 151.752273 100.162869 L 152.703409 101.888342 L 153.654545 102.729413 L 154.605682 103.049546 L 155.556818 104.147247 L 156.507955 104.491026 L 157.459091 105.098335 L 160.3125 108.199125 L 161.263636 108.189812 L 162.214773 108.914374 L 163.165909 109.172037 L 164.117045 110.807946 L 165.068182 111.158361 L 166.019318 111.972426 L 166.970455 112.217452 L 167.921591 113.726845 L 169.823864 114.125449 L 171.726136 116.622529 L 172.677273 116.991604 L 173.628409 118.047888 L 174.579545 117.966867 L 175.530682 118.00101 L 176.481818 120.6472 L 177.432955 120.332513 L 178.384091 121.704515 L 180.286364 122.185037 L 181.2375 124.072562 L 182.188636 124.973796 L 183.139773 124.045887 L 184.090909 124.901157 L 185.042045 127.065978 L 185.993182 126.477733 L 187.895455 127.444922 L 188.846591 129.427023 L 189.797727 130.576793 L 190.748864 129.666325 L 191.7 131.804961 L 192.651136 132.3217 L 193.602273 132.170204 L 194.553409 133.404506 L 195.504545 134.203882 L 196.455682 135.216339 L 197.406818 135.024535 L 198.357955 136.422241 L 199.309091 137.091124 L 201.211364 137.665619 L 202.1625 138.95723 L 203.113636 138.89295 L 204.064773 141.220593 L 205.015909 140.880924 L 205.967045 142.262618 L 206.918182 141.958901 L 207.869318 143.532882 L 208.820455 143.501957 L 209.771591 143.930964 L 210.722727 144.777366 L 211.673864 145.830053 L 212.625 147.15534 L 213.576136 146.175744 L 214.527273 148.865343 L 215.478409 148.898312 L 216.429545 149.725652 L 217.380682 150.023177 L 218.331818 150.513654 L 219.282955 151.765058 L 220.234091 152.758823 L 221.185227 153.262427 L 222.136364 152.69264 L 223.0875 153.687262 L 224.038636 155.26878 L 224.989773 155.765278 L 225.940909 156.97587 L 226.892045 156.943638 L 227.843182 157.894424 L 229.745455 159.441985 L 230.696591 159.085463 L 231.647727 159.895855 L 232.598864 161.109482 L 233.55 161.818851 L 235.452273 162.693392 L 237.354545 164.671991 L 238.305682 164.896389 L 240.207955 166.400494 L 241.159091 166.671548 L 243.061364 170.010897 L 244.0125 169.302709 L 244.963636 169.263915 L 245.914773 170.633744 L 246.865909 171.747229 L 247.817045 172.417602 L 248.768182 172.832352 L 249.719318 172.965257 L 250.670455 174.13365 L 251.621591 174.860463 L 252.572727 174.75791 L 253.523864 176.106091 L 256.377273 177.55723 L 257.328409 178.578351 L 258.279545 178.92488 L 259.230682 180.160675 L 260.181818 180.277705 L 261.132955 181.535505 L 262.084091 181.48771 L 263.035227 182.551384 L 264.9375 183.212058 L 265.888636 184.192706 L 266.839773 185.667088 L 267.790909 186.384913 L 268.742045 186.597201 L 269.693182 187.052214 L 270.644318 186.621029 L 271.595455 188.273546 L 272.546591 189.364665 L 273.497727 190.003676 L 274.448864 189.683382 L 275.4 191.144925 L 276.351136 191.615821 L 277.302273 192.413043 L 278.253409 192.508861 L 279.204545 192.980542 L 280.155682 193.580081 L 281.106818 194.927935 L 282.057955 194.468529 L 283.009091 196.640518 L 283.960227 195.188162 L 284.911364 197.189626 L 286.813636 197.114945 L 287.764773 198.670558 L 288.715909 199.281366 L 289.667045 200.072896 L 290.618182 201.188232 L 291.569318 201.377863 L 292.520455 202.051861 L 293.471591 202.521944 L 294.422727 202.622193 L 295.373864 203.007468 L 296.325 203.941879 L 297.276136 204.280862 L 298.227273 204.942393 L 299.178409 205.931775 L 300.129545 207.118881 L 301.080682 207.253112 L 302.031818 207.670708 L 302.982955 207.377896 L 303.934091 208.426656 L 304.885227 209.240391 L 305.836364 209.069802 L 306.7875 210.224047 L 307.738636 210.098164 L 308.689773 210.856869 L 309.640909 214.087036 L 310.592045 212.399498 L 311.543182 213.293309 L 312.494318 213.887079 L 313.445455 214.705242 L 315.347727 215.726312 L 316.298864 217.105076 L 317.25 216.645219 L 318.201136 217.31122 L 319.152273 217.83558 L 320.103409 218.585147 L 322.005682 219.152313 L 322.956818 219.315686 L 323.907955 219.929615 L 324.859091 221.88768 L 325.810227 221.96312 L 326.761364 221.448642 L 327.7125 222.825217 L 328.663636 222.933337 L 329.614773 222.769007 L 330.565909 223.728907 L 331.517045 224.077618 L 332.468182 225.512332 L 333.419318 226.00882 L 334.370455 226.935951 L 335.321591 225.495885 L 336.272727 227.995436 L 337.223864 227.908313 L 338.175 228.480768 L 339.126136 228.673358 L 341.028409 229.556742 L 341.979545 228.501832 L 342.930682 231.099204 L 344.832955 232.340291 L 345.784091 231.124821 L 347.686364 234.405393 L 348.6375 233.547518 L 349.588636 234.746496 L 350.539773 233.936062 L 351.490909 236.087088 L 352.442045 235.612955 L 353.393182 235.988448 L 354.344318 236.959727 L 355.295455 236.287141 L 356.246591 237.400034 L 357.197727 238.909324 L 358.148864 238.74289 L 359.1 239.02901 L 360.051136 238.904427 L 361.002273 239.60067 L 361.953409 241.456268 L 362.904545 239.230513 L 363.855682 240.7028 L 364.806818 242.400142 L 365.757955 240.571619 L 366.709091 242.145434 L 367.660227 244.059335 L 368.611364 243.05721 L 369.5625 243.238909 L 370.513636 244.844527 L 371.464773 244.875073 L 372.415909 244.682119 L 373.367045 246.513251 L 374.318182 246.61647 L 375.269318 244.841723 L 376.220455 249.687625 L 377.171591 247.822725 L 378.122727 248.76715 L 379.073864 248.28214 L 380.025 248.164783 L 380.976136 249.471817 L 381.927273 248.803145 L 383.829545 251.461592 L 384.780682 250.306363 L 385.731818 251.76714 L 386.682955 252.113578 L 387.634091 252.734679 L 388.585227 252.050176 L 389.536364 253.150216 L 390.4875 254.426463 L 391.438636 254.964949 L 392.389773 254.000149 L 393.340909 255.805491 L 394.292045 255.959595 L 395.243182 255.721824 L 396.194318 254.452338 L 397.145455 256.773715 L 398.096591 257.445396 L 399.047727 256.682395 L 399.998864 258.536493 L 400.95 257.643594 L 401.901136 259.691537 L 402.852273 257.985389 L 403.803409 259.095209 L 404.754545 259.708231 L 405.705682 260.796316 L 406.656818 260.106807 L 407.607955 260.681238 L 408.559091 260.610882 L 409.510227 264.149803 L 410.461364 261.803278 L 411.4125 262.666345 L 412.363636 263.840708 L 413.314773 262.027596 L 414.265909 265.229155 L 415.217045 264.832049 L 416.168182 263.301478 L 417.119318 263.924603 L 418.070455 267.046046 L 419.021591 263.702878 L 419.972727 266.386324 L 420.923864 266.809309 L 421.875 266.376917 L 423.777273 268.086741 L 424.728409 268.999536 L 425.679545 267.147213 L 426.630682 267.033722 L 427.581818 270.739865 L 428.532955 269.538699 L 429.484091 270.630541 L 430.435227 270.087241 L 431.386364 269.923306 L 432.3375 270.227063 L 433.288636 273.268173 L 434.239773 274.093862 L 435.190909 272.802726 L 436.142045 273.452404 L 437.093182 271.175281 L 438.044318 274.655327 L 439.946591 273.698821 L 440.897727 274.438972 L 441.848864 273.809399 L 442.8 274.497708 L 443.751136 275.939058 L 444.702273 276.700352 L 445.653409 277.249461 L 446.604545 275.400089 L 447.555682 280.040933 L 448.506818 278.745534 L 449.457955 277.056748 L 450.409091 277.20748 L 451.360227 276.895565 L 452.311364 280.889321 L 453.2625 281.825114 L 454.213636 280.309353 L 455.164773 282.377012 L 456.115909 280.302116 L 457.067045 282.725014 L 458.018182 283.796589 L 458.969318 284.622531 L 459.920455 281.950158 L 460.871591 284.902816 L 461.822727 283.341145 L 462.773864 282.757095 L 463.725 283.922009 L 464.676136 281.769957 L 465.627273 285.869359 L 466.578409 281.94819 L 467.529545 286.440979 L 468.480682 285.32702 L 469.431818 284.546645 L 470.382955 280.855141 L 471.334091 289.404808 L 472.285227 288.703694 L 473.236364 286.939072 L 474.1875 290.026104 L 475.138636 284.537283 L 476.089773 285.953167 L 477.040909 295.940033 L 477.992045 288.976213 L 478.943182 295.679593 L 479.894318 277.975606 L 480.845455 357.970227 L 481.796591 281.056931 L 482.747727 290.422507 L 484.65 289.505142 L 485.601136 297.669387 L 487.503409 292.690179 L 488.454545 289.704563 L 489.405682 296.627485 L 490.356818 294.268018 L 491.307955 295.436922 L 492.259091 291.851446 L 493.210227 294.992728 L 494.161364 296.656122 L 495.1125 294.850574 L 496.063636 299.73324 L 497.014773 291.616303 L 497.965909 301.247503 L 498.917045 297.5754 L 499.868182 301.942597 L 500.819318 300.251391 L 501.770455 298.830705 L 502.721591 299.704003 L 503.672727 298.789244 L 504.623864 303.1389 L 506.526136 300.912658 L 507.477273 302.376452 L 508.428409 302.213311 L 509.379545 302.635106 L 510.330682 301.560716 L 511.281818 307.373387 L 512.232955 301.680283 L 513.184091 305.585781 L 514.135227 305.99746 L 515.086364 305.119131 L 516.0375 304.868632 L 516.988636 305.032016 L 517.939773 307.456235 L 518.890909 308.32292 L 519.842045 307.404227 L 521.744318 308.262789 L 522.695455 306.716652 L 523.646591 309.852163 L 524.597727 309.297253 L 525.548864 310.091488 L 526.5 311.215923 L 527.451136 309.613121 L 528.402273 310.702078 L 529.353409 311.079907 L 530.304545 310.228796 L 531.255682 312.086357 L 532.206818 314.661058 L 533.157955 314.169916 L 535.060227 311.965935 L 536.011364 315.476879 L 536.9625 316.698235 L 537.913636 316.099601 L 538.864773 316.668746 L 539.815909 314.752484 L 540.767045 316.968832 L 541.718182 318.16997 L 542.669318 317.942761 L 543.620455 318.85018 L 544.571591 318.729855 L 545.522727 320.012652 L 546.473864 318.549371 L 547.425 320.73113 L 548.376136 320.138956 L 549.327273 319.985216 L 550.278409 323.274178 L 551.229545 320.986226 L 552.180682 320.705004 L 553.131818 321.644109 L 554.082955 323.990666 L 555.034091 325.31375 L 555.985227 323.909207 L 556.936364 325.125081 L 557.8875 325.723028 L 558.838636 327.091111 L 559.789773 323.840879 L 560.740909 327.397761 L 561.692045 326.492665 L 562.643182 327.458163 L 565.496591 327.774965 L 566.447727 329.187766 L 568.35 330.221099 L 569.301136 331.684258 L 571.203409 331.443787 L 572.154545 330.499117 L 573.105682 331.398965 L 574.056818 333.188485 L 575.007955 332.032679 L 575.959091 334.957201 L 576.910227 334.69241 L 577.861364 333.949026 L 578.8125 335.886865 L 579.763636 335.866701 L 580.714773 337.021303 L 581.665909 337.227655 L 582.617045 338.241139 L 583.568182 334.631898 L 584.519318 338.245319 L 585.470455 340.230645 L 586.421591 340.340306 L 587.372727 338.975502 L 588.323864 338.404076 L 589.275 341.567152 L 590.226136 343.661889 L 591.177273 342.135828 L 592.128409 344.367703 L 593.079545 343.699829 L 594.030682 344.360657 L 594.981818 345.799962 L 595.932955 344.696415 L 596.884091 344.67406 L 597.835227 346.335115 L 598.786364 347.681511 L 599.7375 345.851397 L 600.688636 347.712226 L 601.639773 348.576457 L 602.590909 348.615864 L 604.493182 349.186355 L 605.444318 351.52431 L 606.395455 350.147719 L 607.346591 350.934324 L 608.297727 351.387756 L 609.248864 353.577831 L 610.2 352.062419 L 611.151136 353.682195 L 612.102273 353.596632 L 614.004545 355.738364 L 614.955682 355.622662 L 615.906818 357.993978 L 616.857955 356.014326 L 617.809091 356.945009 L 618.760227 360.464673 L 619.711364 361.330159 L 620.6625 359.596122 L 621.613636 360.371269 L 622.564773 358.641888 L 623.515909 361.398965 L 624.467045 361.816345 L 625.418182 360.856336 L 626.369318 361.491492 L 627.320455 364.922701 L 628.271591 362.863124 L 629.222727 362.667879 L 630.173864 364.883003 L 631.125 364.269481 L 632.076136 368.876194 L 633.027273 367.036473 L 633.978409 368.842865 L 634.929545 369.514886 L 635.880682 368.384122 L 636.831818 368.528296 L 637.782955 369.995414 L 638.734091 374.589556 L 639.685227 371.361677 L 640.636364 370.666525 L 641.5875 371.802712 L 642.538636 376.284599 L 643.489773 374.166902 L 644.440909 372.746417 L 645.392045 375.539152 L 646.343182 376.530493 L 647.294318 378.785362 L 648.245455 377.637515 L 649.196591 378.314323 L 650.147727 371.791839 L 651.098864 373.883037 L 652.05 364.969093 L 653.001136 377.76058 L 653.952273 377.544015 L 654.903409 376.961355 L 655.854545 384.90157 L 656.805682 384.994685 L 657.756818 388.359079 L 658.707955 385.22502 L 659.659091 383.649568 L 660.610227 384.386329 L 661.561364 385.653679 L 662.5125 389.738435 L 663.463636 389.478857 L 664.414773 388.835233 L 665.365909 387.75976 L 666.317045 391.161916 L 667.268182 391.334534 L 668.219318 391.674458 L 669.170455 393.995474 L 670.121591 393.941424 L 671.072727 396.154808 L 672.023864 395.655458 L 672.975 393.570679 L 673.926136 393.989418 L 674.877273 397.535217 L 676.779545 402.12285 L 677.730682 399.675208 L 678.681818 399.686044 L 679.632955 402.096376 L 680.584091 401.76315 L 681.535227 405.994023 L 682.486364 404.001023 L 683.4375 405.467615 L 684.388636 403.481428 L 685.339773 408.052899 L 686.290909 406.764498 L 687.242045 409.522669 L 688.193182 407.775405 L 689.144318 410.373302 L 690.095455 414.821937 L 691.046591 410.48535 L 691.997727 410.195911 L 692.948864 412.034819 L 693.9 418.521974 L 694.851136 411.339038 L 695.802273 420.26199 L 696.753409 416.233816 L 697.704545 413.833707 L 698.655682 423.650321 L 699.606818 423.553161 L 700.557955 421.63543 L 701.509091 423.661755 L 702.460227 425.306337 L 703.411364 426.027927 L 704.3625 423.223295 L 705.313636 423.421083 L 706.264773 426.937998 L 707.215909 424.982995 L 708.167045 430.319139 L 709.118182 433.583602 L 710.069318 432.696458 L 711.020455 429.263559 L 711.971591 433.022906 L 712.922727 432.274204 L 713.873864 435.3119 L 714.825 442.574339 L 715.776136 432.900563 L 716.727273 439.011962 L 717.678409 437.27687 L 718.629545 441.068974 L 719.580682 442.565099 L 720.531818 447.041606 L 721.482955 443.917467 L 722.434091 448.415994 L 723.385227 451.496315 L 724.336364 444.016769 L 725.2875 452.481321 L 726.238636 450.529176 L 727.189773 456.050252 L 728.140909 452.129717 L 729.092045 448.906036 L 730.043182 460.930393 L 730.994318 452.564438 L 731.945455 454.095064 L 732.896591 465.048099 L 733.847727 463.961775 L 734.798864 463.758055 L 735.75 468.546934 L 736.701136 468.429625 L 737.652273 453.693993 L 738.603409 470.086328 L 739.554545 473.061655 L 740.505682 468.231298 L 741.456818 476.084023 L 742.407955 478.197837 L 743.359091 478.049309 L 744.310227 477.044982 L 745.261364 479.425452 L 746.2125 492.48 L 747.163636 482.400246 L 747.163636 482.400246" clip-path="url(#pe92d518e8f)" style="fill:none;stroke:#fff;stroke-linecap:square;stroke-width:1.5"/><defs><path id="mdcd6f5c277" d="M 0 1.5 C 0.397805 1.5 0.77937 1.341951 1.06066 1.06066 C 1.341951 0.77937 1.5 0.397805 1.5 0 C 1.5 -0.397805 1.341951 -0.77937 1.06066 -1.06066 C 0.77937 -1.341951 0.397805 -1.5 0 -1.5 C -0.397805 -1.5 -0.77937 -1.341951 -1.06066 -1.06066 C -1.341951 -0.77937 -1.5 -0.397805 -1.5 0 C -1.5 0.397805 -1.341951 0.77937 -1.06066 1.06066 C -0.77937 1.341951 -0.397805 1.5 0 1.5 z" style="stroke:#fff"/></defs><g clip-path="url(#pe92d518e8f)"><use style="fill:#fff;stroke:#fff" x="138.436" y="89.28" xlink:href="#mdcd6f5c277"/><use style="fill:#fff;stroke:#fff" x="139.387" y="91.95" xlink:href="#mdcd6f5c277"/><use style="fill:#fff;stroke:#fff" x="140.339" y="93.66" xlink:href="#mdcd6f5c277"/><use style="fill:#fff;stroke:#fff" x="141.29" y="93.515" xlink:href="#mdcd6f5c277"/><use style="fill:#fff;stroke:#fff" x="142.241" y="93.656" xlink:href="#mdcd6f5c277"/><use style="fill:#fff;stroke:#fff" x="143.192" y="94.338" xlink:href="#mdcd6f5c277"/><use style="fill:#fff;stroke:#fff" x="144.143" y="95.453" xlink:href="#mdcd6f5c277"/><use style="fill:#fff;stroke:#fff" x="145.094" y="96.089" xlink:href="#mdcd6f5c277"/><use style="fill:#fff;stroke:#fff" x="146.045" y="96.644" xlink:href="#mdcd6f5c277"/><use style="fill:#fff;stroke:#fff" x="146.997" y="97.371" xlink:href="#mdcd6f5c277"/><use style="fill:#fff;stroke:#fff" x="147.948" y="98.516" xlink:href="#mdcd6f5c277"/><use style="fill:#fff;stroke:#fff" x="148.899" y="98.532" xlink:href="#mdcd6f5c277"/><use style="fill:#fff;stroke:#fff" x="149.85" y="99.234" xlink:href="#mdcd6f5c277"/><use style="fill:#fff;stroke:#fff" x="150.801" y="101.068" xlink:href="#mdcd6f5c277"/><use style="fill:#fff;stroke:#fff" x="151.752" y="100.163" xlink:href="#mdcd6f5c277"/><use style="fill:#fff;stroke:#fff" x="152.703" y="101.888" xlink:href="#mdcd6f5c277"/><use style="fill:#fff;stroke:#fff" x="153.655" y="102.729" xlink:href="#mdcd6f5c277"/><use style="fill:#fff;stroke:#fff" x="154.606" y="103.05" xlink:href="#mdcd6f5c277"/><use style="fill:#fff;stroke:#fff" x="155.557" y="104.147" xlink:href="#mdcd6f5c277"/><use style="fill:#fff;stroke:#fff" x="156.508" y="104.491" xlink:href="#mdcd6f5c277"/><use style="fill:#fff;stroke:#fff" x="157.459" y="105.098" xlink:href="#mdcd6f5c277"/><use style="fill:#fff;stroke:#fff" x="158.41" y="106.148" xlink:href="#mdcd6f5c277"/><use style="fill:#fff;stroke:#fff" x="159.361" y="107.055" xlink:href="#mdcd6f5c277"/><use style="fill:#fff;stroke:#fff" x="160.313" y="108.199" xlink:href="#mdcd6f5c277"/><use style="fill:#fff;stroke:#fff" x="161.264" y="108.19" xlink:href="#mdcd6f5c277"/><use style="fill:#fff;stroke:#fff" x="162.215" y="108.914" xlink:href="#mdcd6f5c277"/><use style="fill:#fff;stroke:#fff" x="163.166" y="109.172" xlink:href="#mdcd6f5c277"/><use style="fill:#fff;stroke:#fff" x="164.117" y="110.808" xlink:href="#mdcd6f5c277"/><use style="fill:#fff;stroke:#fff" x="165.068" y="111.158" xlink:href="#mdcd6f5c277"/><use style="fill:#fff;stroke:#fff" x="166.019" y="111.972" xlink:href="#mdcd6f5c277"/><use style="fill:#fff;stroke:#fff" x="166.97" y="112.217" xlink:href="#mdcd6f5c277"/><use style="fill:#fff;stroke:#fff" x="167.922" y="113.727" xlink:href="#mdcd6f5c277"/><use style="fill:#fff;stroke:#fff" x="168.873" y="113.946" xlink:href="#mdcd6f5c277"/><use style="fill:#fff;stroke:#fff" x="169.824" y="114.125" xlink:href="#mdcd6f5c277"/><use style="fill:#fff;stroke:#fff" x="170.775" y="115.308" xlink:href="#mdcd6f5c277"/><use style="fill:#fff;stroke:#fff" x="171.726" y="116.623" xlink:href="#mdcd6f5c277"/><use style="fill:#fff;stroke:#fff" x="172.677" y="116.992" xlink:href="#mdcd6f5c277"/><use style="fill:#fff;stroke:#fff" x="173.628" y="118.048" xlink:href="#mdcd6f5c277"/><use style="fill:#fff;stroke:#fff" x="174.58" y="117.967" xlink:href="#mdcd6f5c277"/><use style="fill:#fff;stroke:#fff" x="175.531" y="118.001" xlink:href="#mdcd6f5c277"/><use style="fill:#fff;stroke:#fff" x="176.482" y="120.647" xlink:href="#mdcd6f5c277"/><use style="fill:#fff;stroke:#fff" x="177.433" y="120.333" xlink:href="#mdcd6f5c277"/><use style="fill:#fff;stroke:#fff" x="178.384" y="121.705" xlink:href="#mdcd6f5c277"/><use style="fill:#fff;stroke:#fff" x="179.335" y="121.916" xlink:href="#mdcd6f5c277"/><use style="fill:#fff;stroke:#fff" x="180.286" y="122.185" xlink:href="#mdcd6f5c277"/><use style="fill:#fff;stroke:#fff" x="181.238" y="124.073" xlink:href="#mdcd6f5c277"/><use style="fill:#fff;stroke:#fff" x="182.189" y="124.974" xlink:href="#mdcd6f5c277"/><use style="fill:#fff;stroke:#fff" x="183.14" y="124.046" xlink:href="#mdcd6f5c277"/><use style="fill:#fff;stroke:#fff" x="184.091" y="124.901" xlink:href="#mdcd6f5c277"/><use style="fill:#fff;stroke:#fff" x="185.042" y="127.066" xlink:href="#mdcd6f5c277"/><use style="fill:#fff;stroke:#fff" x="185.993" y="126.478" xlink:href="#mdcd6f5c277"/><use style="fill:#fff;stroke:#fff" x="186.944" y="126.912" xlink:href="#mdcd6f5c277"/><use style="fill:#fff;stroke:#fff" x="187.895" y="127.445" xlink:href="#mdcd6f5c277"/><use style="fill:#fff;stroke:#fff" x="188.847" y="129.427" xlink:href="#mdcd6f5c277"/><use style="fill:#fff;stroke:#fff" x="189.798" y="130.577" xlink:href="#mdcd6f5c277"/><use style="fill:#fff;stroke:#fff" x="190.749" y="129.666" xlink:href="#mdcd6f5c277"/><use style="fill:#fff;stroke:#fff" x="191.7" y="131.805" xlink:href="#mdcd6f5c277"/><use style="fill:#fff;stroke:#fff" x="192.651" y="132.322" xlink:href="#mdcd6f5c277"/><use style="fill:#fff;stroke:#fff" x="193.602" y="132.17" xlink:href="#mdcd6f5c277"/><use style="fill:#fff;stroke:#fff" x="194.553" y="133.405" xlink:href="#mdcd6f5c277"/><use style="fill:#fff;stroke:#fff" x="195.505" y="134.204" xlink:href="#mdcd6f5c277"/><use style="fill:#fff;stroke:#fff" x="196.456" y="135.216" xlink:href="#mdcd6f5c277"/><use style="fill:#fff;stroke:#fff" x="197.407" y="135.025" xlink:href="#mdcd6f5c277"/><use style="fill:#fff;stroke:#fff" x="198.358" y="136.422" xlink:href="#mdcd6f5c277"/><use style="fill:#fff;stroke:#fff" x="199.309" y="137.091" xlink:href="#mdcd6f5c277"/><use style="fill:#fff;stroke:#fff" x="200.26" y="137.326" xlink:href="#mdcd6f5c277"/><use style="fill:#fff;stroke:#fff" x="201.211" y="137.666" xlink:href="#mdcd6f5c277"/><use style="fill:#fff;stroke:#fff" x="202.162" y="138.957" xlink:href="#mdcd6f5c277"/><use style="fill:#fff;stroke:#fff" x="203.114" y="138.893" xlink:href="#mdcd6f5c277"/><use style="fill:#fff;stroke:#fff" x="204.065" y="141.221" xlink:href="#mdcd6f5c277"/><use style="fill:#fff;stroke:#fff" x="205.016" y="140.881" xlink:href="#mdcd6f5c277"/><use style="fill:#fff;stroke:#fff" x="205.967" y="142.263" xlink:href="#mdcd6f5c277"/><use style="fill:#fff;stroke:#fff" x="206.918" y="141.959" xlink:href="#mdcd6f5c277"/><use style="fill:#fff;stroke:#fff" x="207.869" y="143.533" xlink:href="#mdcd6f5c277"/><use style="fill:#fff;stroke:#fff" x="208.82" y="143.502" xlink:href="#mdcd6f5c277"/><use style="fill:#fff;stroke:#fff" x="209.772" y="143.931" xlink:href="#mdcd6f5c277"/><use style="fill:#fff;stroke:#fff" x="210.723" y="144.777" xlink:href="#mdcd6f5c277"/><use style="fill:#fff;stroke:#fff" x="211.674" y="145.83" xlink:href="#mdcd6f5c277"/><use style="fill:#fff;stroke:#fff" x="212.625" y="147.155" xlink:href="#mdcd6f5c277"/><use style="fill:#fff;stroke:#fff" x="213.576" y="146.176" xlink:href="#mdcd6f5c277"/><use style="fill:#fff;stroke:#fff" x="214.527" y="148.865" xlink:href="#mdcd6f5c277"/><use style="fill:#fff;stroke:#fff" x="215.478" y="148.898" xlink:href="#mdcd6f5c277"/><use style="fill:#fff;stroke:#fff" x="216.43" y="149.726" xlink:href="#mdcd6f5c277"/><use style="fill:#fff;stroke:#fff" x="217.381" y="150.023" xlink:href="#mdcd6f5c277"/><use style="fill:#fff;stroke:#fff" x="218.332" y="150.514" xlink:href="#mdcd6f5c277"/><use style="fill:#fff;stroke:#fff" x="219.283" y="151.765" xlink:href="#mdcd6f5c277"/><use style="fill:#fff;stroke:#fff" x="220.234" y="152.759" xlink:href="#mdcd6f5c277"/><use style="fill:#fff;stroke:#fff" x="221.185" y="153.262" xlink:href="#mdcd6f5c277"/><use style="fill:#fff;stroke:#fff" x="222.136" y="152.693" xlink:href="#mdcd6f5c277"/><use style="fill:#fff;stroke:#fff" x="223.088" y="153.687" xlink:href="#mdcd6f5c277"/><use style="fill:#fff;stroke:#fff" x="224.039" y="155.269" xlink:href="#mdcd6f5c277"/><use style="fill:#fff;stroke:#fff" x="224.99" y="155.765" xlink:href="#mdcd6f5c277"/><use style="fill:#fff;stroke:#fff" x="225.941" y="156.976" xlink:href="#mdcd6f5c277"/><use style="fill:#fff;stroke:#fff" x="226.892" y="156.944" xlink:href="#mdcd6f5c277"/><use style="fill:#fff;stroke:#fff" x="227.843" y="157.894" xlink:href="#mdcd6f5c277"/><use style="fill:#fff;stroke:#fff" x="228.794" y="158.669" xlink:href="#mdcd6f5c277"/><use style="fill:#fff;stroke:#fff" x="229.745" y="159.442" xlink:href="#mdcd6f5c277"/><use style="fill:#fff;stroke:#fff" x="230.697" y="159.085" xlink:href="#mdcd6f5c277"/><use style="fill:#fff;stroke:#fff" x="231.648" y="159.896" xlink:href="#mdcd6f5c277"/><use style="fill:#fff;stroke:#fff" x="232.599" y="161.109" xlink:href="#mdcd6f5c277"/><use style="fill:#fff;stroke:#fff" x="233.55" y="161.819" xlink:href="#mdcd6f5c277"/><use style="fill:#fff;stroke:#fff" x="234.501" y="162.222" xlink:href="#mdcd6f5c277"/><use style="fill:#fff;stroke:#fff" x="235.452" y="162.693" xlink:href="#mdcd6f5c277"/><use style="fill:#fff;stroke:#fff" x="236.403" y="163.729" xlink:href="#mdcd6f5c277"/><use style="fill:#fff;stroke:#fff" x="237.355" y="164.672" xlink:href="#mdcd6f5c277"/><use style="fill:#fff;stroke:#fff" x="238.306" y="164.896" xlink:href="#mdcd6f5c277"/><use style="fill:#fff;stroke:#fff" x="239.257" y="165.669" xlink:href="#mdcd6f5c277"/><use style="fill:#fff;stroke:#fff" x="240.208" y="166.4" xlink:href="#mdcd6f5c277"/><use style="fill:#fff;stroke:#fff" x="241.159" y="166.672" xlink:href="#mdcd6f5c277"/><use style="fill:#fff;stroke:#fff" x="242.11" y="168.276" xlink:href="#mdcd6f5c277"/><use style="fill:#fff;stroke:#fff" x="243.061" y="170.011" xlink:href="#mdcd6f5c277"/><use style="fill:#fff;stroke:#fff" x="244.012" y="169.303" xlink:href="#mdcd6f5c277"/><use style="fill:#fff;stroke:#fff" x="244.964" y="169.264" xlink:href="#mdcd6f5c277"/><use style="fill:#fff;stroke:#fff" x="245.915" y="170.634" xlink:href="#mdcd6f5c277"/><use style="fill:#fff;stroke:#fff" x="246.866" y="171.747" xlink:href="#mdcd6f5c277"/><use style="fill:#fff;stroke:#fff" x="247.817" y="172.418" xlink:href="#mdcd6f5c277"/><use style="fill:#fff;stroke:#fff" x="248.768" y="172.832" xlink:href="#mdcd6f5c277"/><use style="fill:#fff;stroke:#fff" x="249.719" y="172.965" xlink:href="#mdcd6f5c277"/><use style="fill:#fff;stroke:#fff" x="250.67" y="174.134" xlink:href="#mdcd6f5c277"/><use style="fill:#fff;stroke:#fff" x="251.622" y="174.86" xlink:href="#mdcd6f5c277"/><use style="fill:#fff;stroke:#fff" x="252.573" y="174.758" xlink:href="#mdcd6f5c277"/><use style="fill:#fff;stroke:#fff" x="253.524" y="176.106" xlink:href="#mdcd6f5c277"/><use style="fill:#fff;stroke:#fff" x="254.475" y="176.592" xlink:href="#mdcd6f5c277"/><use style="fill:#fff;stroke:#fff" x="255.426" y="177.059" xlink:href="#mdcd6f5c277"/><use style="fill:#fff;stroke:#fff" x="256.377" y="177.557" xlink:href="#mdcd6f5c277"/><use style="fill:#fff;stroke:#fff" x="257.328" y="178.578" xlink:href="#mdcd6f5c277"/><use style="fill:#fff;stroke:#fff" x="258.28" y="178.925" xlink:href="#mdcd6f5c277"/><use style="fill:#fff;stroke:#fff" x="259.231" y="180.161" xlink:href="#mdcd6f5c277"/><use style="fill:#fff;stroke:#fff" x="260.182" y="180.278" xlink:href="#mdcd6f5c277"/><use style="fill:#fff;stroke:#fff" x="261.133" y="181.536" xlink:href="#mdcd6f5c277"/><use style="fill:#fff;stroke:#fff" x="262.084" y="181.488" xlink:href="#mdcd6f5c277"/><use style="fill:#fff;stroke:#fff" x="263.035" y="182.551" xlink:href="#mdcd6f5c277"/><use style="fill:#fff;stroke:#fff" x="263.986" y="182.825" xlink:href="#mdcd6f5c277"/><use style="fill:#fff;stroke:#fff" x="264.938" y="183.212" xlink:href="#mdcd6f5c277"/><use style="fill:#fff;stroke:#fff" x="265.889" y="184.193" xlink:href="#mdcd6f5c277"/><use style="fill:#fff;stroke:#fff" x="266.84" y="185.667" xlink:href="#mdcd6f5c277"/><use style="fill:#fff;stroke:#fff" x="267.791" y="186.385" xlink:href="#mdcd6f5c277"/><use style="fill:#fff;stroke:#fff" x="268.742" y="186.597" xlink:href="#mdcd6f5c277"/><use style="fill:#fff;stroke:#fff" x="269.693" y="187.052" xlink:href="#mdcd6f5c277"/><use style="fill:#fff;stroke:#fff" x="270.644" y="186.621" xlink:href="#mdcd6f5c277"/><use style="fill:#fff;stroke:#fff" x="271.595" y="188.274" xlink:href="#mdcd6f5c277"/><use style="fill:#fff;stroke:#fff" x="272.547" y="189.365" xlink:href="#mdcd6f5c277"/><use style="fill:#fff;stroke:#fff" x="273.498" y="190.004" xlink:href="#mdcd6f5c277"/><use style="fill:#fff;stroke:#fff" x="274.449" y="189.683" xlink:href="#mdcd6f5c277"/><use style="fill:#fff;stroke:#fff" x="275.4" y="191.145" xlink:href="#mdcd6f5c277"/><use style="fill:#fff;stroke:#fff" x="276.351" y="191.616" xlink:href="#mdcd6f5c277"/><use style="fill:#fff;stroke:#fff" x="277.302" y="192.413" xlink:href="#mdcd6f5c277"/><use style="fill:#fff;stroke:#fff" x="278.253" y="192.509" xlink:href="#mdcd6f5c277"/><use style="fill:#fff;stroke:#fff" x="279.205" y="192.981" xlink:href="#mdcd6f5c277"/><use style="fill:#fff;stroke:#fff" x="280.156" y="193.58" xlink:href="#mdcd6f5c277"/><use style="fill:#fff;stroke:#fff" x="281.107" y="194.928" xlink:href="#mdcd6f5c277"/><use style="fill:#fff;stroke:#fff" x="282.058" y="194.469" xlink:href="#mdcd6f5c277"/><use style="fill:#fff;stroke:#fff" x="283.009" y="196.641" xlink:href="#mdcd6f5c277"/><use style="fill:#fff;stroke:#fff" x="283.96" y="195.188" xlink:href="#mdcd6f5c277"/><use style="fill:#fff;stroke:#fff" x="284.911" y="197.19" xlink:href="#mdcd6f5c277"/><use style="fill:#fff;stroke:#fff" x="285.863" y="197.205" xlink:href="#mdcd6f5c277"/><use style="fill:#fff;stroke:#fff" x="286.814" y="197.115" xlink:href="#mdcd6f5c277"/><use style="fill:#fff;stroke:#fff" x="287.765" y="198.671" xlink:href="#mdcd6f5c277"/><use style="fill:#fff;stroke:#fff" x="288.716" y="199.281" xlink:href="#mdcd6f5c277"/><use style="fill:#fff;stroke:#fff" x="289.667" y="200.073" xlink:href="#mdcd6f5c277"/><use style="fill:#fff;stroke:#fff" x="290.618" y="201.188" xlink:href="#mdcd6f5c277"/><use style="fill:#fff;stroke:#fff" x="291.569" y="201.378" xlink:href="#mdcd6f5c277"/><use style="fill:#fff;stroke:#fff" x="292.52" y="202.052" xlink:href="#mdcd6f5c277"/><use style="fill:#fff;stroke:#fff" x="293.472" y="202.522" xlink:href="#mdcd6f5c277"/><use style="fill:#fff;stroke:#fff" x="294.423" y="202.622" xlink:href="#mdcd6f5c277"/><use style="fill:#fff;stroke:#fff" x="295.374" y="203.007" xlink:href="#mdcd6f5c277"/><use style="fill:#fff;stroke:#fff" x="296.325" y="203.942" xlink:href="#mdcd6f5c277"/><use style="fill:#fff;stroke:#fff" x="297.276" y="204.281" xlink:href="#mdcd6f5c277"/><use style="fill:#fff;stroke:#fff" x="298.227" y="204.942" xlink:href="#mdcd6f5c277"/><use style="fill:#fff;stroke:#fff" x="299.178" y="205.932" xlink:href="#mdcd6f5c277"/><use style="fill:#fff;stroke:#fff" x="300.13" y="207.119" xlink:href="#mdcd6f5c277"/><use style="fill:#fff;stroke:#fff" x="301.081" y="207.253" xlink:href="#mdcd6f5c277"/><use style="fill:#fff;stroke:#fff" x="302.032" y="207.671" xlink:href="#mdcd6f5c277"/><use style="fill:#fff;stroke:#fff" x="302.983" y="207.378" xlink:href="#mdcd6f5c277"/><use style="fill:#fff;stroke:#fff" x="303.934" y="208.427" xlink:href="#mdcd6f5c277"/><use style="fill:#fff;stroke:#fff" x="304.885" y="209.24" xlink:href="#mdcd6f5c277"/><use style="fill:#fff;stroke:#fff" x="305.836" y="209.07" xlink:href="#mdcd6f5c277"/><use style="fill:#fff;stroke:#fff" x="306.788" y="210.224" xlink:href="#mdcd6f5c277"/><use style="fill:#fff;stroke:#fff" x="307.739" y="210.098" xlink:href="#mdcd6f5c277"/><use style="fill:#fff;stroke:#fff" x="308.69" y="210.857" xlink:href="#mdcd6f5c277"/><use style="fill:#fff;stroke:#fff" x="309.641" y="214.087" xlink:href="#mdcd6f5c277"/><use style="fill:#fff;stroke:#fff" x="310.592" y="212.399" xlink:href="#mdcd6f5c277"/><use style="fill:#fff;stroke:#fff" x="311.543" y="213.293" xlink:href="#mdcd6f5c277"/><use style="fill:#fff;stroke:#fff" x="312.494" y="213.887" xlink:href="#mdcd6f5c277"/><use style="fill:#fff;stroke:#fff" x="313.445" y="214.705" xlink:href="#mdcd6f5c277"/><use style="fill:#fff;stroke:#fff" x="314.397" y="215.183" xlink:href="#mdcd6f5c277"/><use style="fill:#fff;stroke:#fff" x="315.348" y="215.726" xlink:href="#mdcd6f5c277"/><use style="fill:#fff;stroke:#fff" x="316.299" y="217.105" xlink:href="#mdcd6f5c277"/><use style="fill:#fff;stroke:#fff" x="317.25" y="216.645" xlink:href="#mdcd6f5c277"/><use style="fill:#fff;stroke:#fff" x="318.201" y="217.311" xlink:href="#mdcd6f5c277"/><use style="fill:#fff;stroke:#fff" x="319.152" y="217.836" xlink:href="#mdcd6f5c277"/><use style="fill:#fff;stroke:#fff" x="320.103" y="218.585" xlink:href="#mdcd6f5c277"/><use style="fill:#fff;stroke:#fff" x="321.055" y="218.9" xlink:href="#mdcd6f5c277"/><use style="fill:#fff;stroke:#fff" x="322.006" y="219.152" xlink:href="#mdcd6f5c277"/><use style="fill:#fff;stroke:#fff" x="322.957" y="219.316" xlink:href="#mdcd6f5c277"/><use style="fill:#fff;stroke:#fff" x="323.908" y="219.93" xlink:href="#mdcd6f5c277"/><use style="fill:#fff;stroke:#fff" x="324.859" y="221.888" xlink:href="#mdcd6f5c277"/><use style="fill:#fff;stroke:#fff" x="325.81" y="221.963" xlink:href="#mdcd6f5c277"/><use style="fill:#fff;stroke:#fff" x="326.761" y="221.449" xlink:href="#mdcd6f5c277"/><use style="fill:#fff;stroke:#fff" x="327.712" y="222.825" xlink:href="#mdcd6f5c277"/><use style="fill:#fff;stroke:#fff" x="328.664" y="222.933" xlink:href="#mdcd6f5c277"/><use style="fill:#fff;stroke:#fff" x="329.615" y="222.769" xlink:href="#mdcd6f5c277"/><use style="fill:#fff;stroke:#fff" x="330.566" y="223.729" xlink:href="#mdcd6f5c277"/><use style="fill:#fff;stroke:#fff" x="331.517" y="224.078" xlink:href="#mdcd6f5c277"/><use style="fill:#fff;stroke:#fff" x="332.468" y="225.512" xlink:href="#mdcd6f5c277"/><use style="fill:#fff;stroke:#fff" x="333.419" y="226.009" xlink:href="#mdcd6f5c277"/><use style="fill:#fff;stroke:#fff" x="334.37" y="226.936" xlink:href="#mdcd6f5c277"/><use style="fill:#fff;stroke:#fff" x="335.322" y="225.496" xlink:href="#mdcd6f5c277"/><use style="fill:#fff;stroke:#fff" x="336.273" y="227.995" xlink:href="#mdcd6f5c277"/><use style="fill:#fff;stroke:#fff" x="337.224" y="227.908" xlink:href="#mdcd6f5c277"/><use style="fill:#fff;stroke:#fff" x="338.175" y="228.481" xlink:href="#mdcd6f5c277"/><use style="fill:#fff;stroke:#fff" x="339.126" y="228.673" xlink:href="#mdcd6f5c277"/><use style="fill:#fff;stroke:#fff" x="340.077" y="229.093" xlink:href="#mdcd6f5c277"/><use style="fill:#fff;stroke:#fff" x="341.028" y="229.557" xlink:href="#mdcd6f5c277"/><use style="fill:#fff;stroke:#fff" x="341.98" y="228.502" xlink:href="#mdcd6f5c277"/><use style="fill:#fff;stroke:#fff" x="342.931" y="231.099" xlink:href="#mdcd6f5c277"/><use style="fill:#fff;stroke:#fff" x="343.882" y="231.667" xlink:href="#mdcd6f5c277"/><use style="fill:#fff;stroke:#fff" x="344.833" y="232.34" xlink:href="#mdcd6f5c277"/><use style="fill:#fff;stroke:#fff" x="345.784" y="231.125" xlink:href="#mdcd6f5c277"/><use style="fill:#fff;stroke:#fff" x="346.735" y="232.751" xlink:href="#mdcd6f5c277"/><use style="fill:#fff;stroke:#fff" x="347.686" y="234.405" xlink:href="#mdcd6f5c277"/><use style="fill:#fff;stroke:#fff" x="348.637" y="233.548" xlink:href="#mdcd6f5c277"/><use style="fill:#fff;stroke:#fff" x="349.589" y="234.746" xlink:href="#mdcd6f5c277"/><use style="fill:#fff;stroke:#fff" x="350.54" y="233.936" xlink:href="#mdcd6f5c277"/><use style="fill:#fff;stroke:#fff" x="351.491" y="236.087" xlink:href="#mdcd6f5c277"/><use style="fill:#fff;stroke:#fff" x="352.442" y="235.613" xlink:href="#mdcd6f5c277"/><use style="fill:#fff;stroke:#fff" x="353.393" y="235.988" xlink:href="#mdcd6f5c277"/><use style="fill:#fff;stroke:#fff" x="354.344" y="236.96" xlink:href="#mdcd6f5c277"/><use style="fill:#fff;stroke:#fff" x="355.295" y="236.287" xlink:href="#mdcd6f5c277"/><use style="fill:#fff;stroke:#fff" x="356.247" y="237.4" xlink:href="#mdcd6f5c277"/><use style="fill:#fff;stroke:#fff" x="357.198" y="238.909" xlink:href="#mdcd6f5c277"/><use style="fill:#fff;stroke:#fff" x="358.149" y="238.743" xlink:href="#mdcd6f5c277"/><use style="fill:#fff;stroke:#fff" x="359.1" y="239.029" xlink:href="#mdcd6f5c277"/><use style="fill:#fff;stroke:#fff" x="360.051" y="238.904" xlink:href="#mdcd6f5c277"/><use style="fill:#fff;stroke:#fff" x="361.002" y="239.601" xlink:href="#mdcd6f5c277"/><use style="fill:#fff;stroke:#fff" x="361.953" y="241.456" xlink:href="#mdcd6f5c277"/><use style="fill:#fff;stroke:#fff" x="362.905" y="239.231" xlink:href="#mdcd6f5c277"/><use style="fill:#fff;stroke:#fff" x="363.856" y="240.703" xlink:href="#mdcd6f5c277"/><use style="fill:#fff;stroke:#fff" x="364.807" y="242.4" xlink:href="#mdcd6f5c277"/><use style="fill:#fff;stroke:#fff" x="365.758" y="240.572" xlink:href="#mdcd6f5c277"/><use style="fill:#fff;stroke:#fff" x="366.709" y="242.145" xlink:href="#mdcd6f5c277"/><use style="fill:#fff;stroke:#fff" x="367.66" y="244.059" xlink:href="#mdcd6f5c277"/><use style="fill:#fff;stroke:#fff" x="368.611" y="243.057" xlink:href="#mdcd6f5c277"/><use style="fill:#fff;stroke:#fff" x="369.563" y="243.239" xlink:href="#mdcd6f5c277"/><use style="fill:#fff;stroke:#fff" x="370.514" y="244.845" xlink:href="#mdcd6f5c277"/><use style="fill:#fff;stroke:#fff" x="371.465" y="244.875" xlink:href="#mdcd6f5c277"/><use style="fill:#fff;stroke:#fff" x="372.416" y="244.682" xlink:href="#mdcd6f5c277"/><use style="fill:#fff;stroke:#fff" x="373.367" y="246.513" xlink:href="#mdcd6f5c277"/><use style="fill:#fff;stroke:#fff" x="374.318" y="246.616" xlink:href="#mdcd6f5c277"/><use style="fill:#fff;stroke:#fff" x="375.269" y="244.842" xlink:href="#mdcd6f5c277"/><use style="fill:#fff;stroke:#fff" x="376.22" y="249.688" xlink:href="#mdcd6f5c277"/><use style="fill:#fff;stroke:#fff" x="377.172" y="247.823" xlink:href="#mdcd6f5c277"/><use style="fill:#fff;stroke:#fff" x="378.123" y="248.767" xlink:href="#mdcd6f5c277"/><use style="fill:#fff;stroke:#fff" x="379.074" y="248.282" xlink:href="#mdcd6f5c277"/><use style="fill:#fff;stroke:#fff" x="380.025" y="248.165" xlink:href="#mdcd6f5c277"/><use style="fill:#fff;stroke:#fff" x="380.976" y="249.472" xlink:href="#mdcd6f5c277"/><use style="fill:#fff;stroke:#fff" x="381.927" y="248.803" xlink:href="#mdcd6f5c277"/><use style="fill:#fff;stroke:#fff" x="382.878" y="250.169" xlink:href="#mdcd6f5c277"/><use style="fill:#fff;stroke:#fff" x="383.83" y="251.462" xlink:href="#mdcd6f5c277"/><use style="fill:#fff;stroke:#fff" x="384.781" y="250.306" xlink:href="#mdcd6f5c277"/><use style="fill:#fff;stroke:#fff" x="385.732" y="251.767" xlink:href="#mdcd6f5c277"/><use style="fill:#fff;stroke:#fff" x="386.683" y="252.114" xlink:href="#mdcd6f5c277"/><use style="fill:#fff;stroke:#fff" x="387.634" y="252.735" xlink:href="#mdcd6f5c277"/><use style="fill:#fff;stroke:#fff" x="388.585" y="252.05" xlink:href="#mdcd6f5c277"/><use style="fill:#fff;stroke:#fff" x="389.536" y="253.15" xlink:href="#mdcd6f5c277"/><use style="fill:#fff;stroke:#fff" x="390.488" y="254.426" xlink:href="#mdcd6f5c277"/><use style="fill:#fff;stroke:#fff" x="391.439" y="254.965" xlink:href="#mdcd6f5c277"/><use style="fill:#fff;stroke:#fff" x="392.39" y="254" xlink:href="#mdcd6f5c277"/><use style="fill:#fff;stroke:#fff" x="393.341" y="255.805" xlink:href="#mdcd6f5c277"/><use style="fill:#fff;stroke:#fff" x="394.292" y="255.96" xlink:href="#mdcd6f5c277"/><use style="fill:#fff;stroke:#fff" x="395.243" y="255.722" xlink:href="#mdcd6f5c277"/><use style="fill:#fff;stroke:#fff" x="396.194" y="254.452" xlink:href="#mdcd6f5c277"/><use style="fill:#fff;stroke:#fff" x="397.145" y="256.774" xlink:href="#mdcd6f5c277"/><use style="fill:#fff;stroke:#fff" x="398.097" y="257.445" xlink:href="#mdcd6f5c277"/><use style="fill:#fff;stroke:#fff" x="399.048" y="256.682" xlink:href="#mdcd6f5c277"/><use style="fill:#fff;stroke:#fff" x="399.999" y="258.536" xlink:href="#mdcd6f5c277"/><use style="fill:#fff;stroke:#fff" x="400.95" y="257.644" xlink:href="#mdcd6f5c277"/><use style="fill:#fff;stroke:#fff" x="401.901" y="259.692" xlink:href="#mdcd6f5c277"/><use style="fill:#fff;stroke:#fff" x="402.852" y="257.985" xlink:href="#mdcd6f5c277"/><use style="fill:#fff;stroke:#fff" x="403.803" y="259.095" xlink:href="#mdcd6f5c277"/><use style="fill:#fff;stroke:#fff" x="404.755" y="259.708" xlink:href="#mdcd6f5c277"/><use style="fill:#fff;stroke:#fff" x="405.706" y="260.796" xlink:href="#mdcd6f5c277"/><use style="fill:#fff;stroke:#fff" x="406.657" y="260.107" xlink:href="#mdcd6f5c277"/><use style="fill:#fff;stroke:#fff" x="407.608" y="260.681" xlink:href="#mdcd6f5c277"/><use style="fill:#fff;stroke:#fff" x="408.559" y="260.611" xlink:href="#mdcd6f5c277"/><use style="fill:#fff;stroke:#fff" x="409.51" y="264.15" xlink:href="#mdcd6f5c277"/><use style="fill:#fff;stroke:#fff" x="410.461" y="261.803" xlink:href="#mdcd6f5c277"/><use style="fill:#fff;stroke:#fff" x="411.413" y="262.666" xlink:href="#mdcd6f5c277"/><use style="fill:#fff;stroke:#fff" x="412.364" y="263.841" xlink:href="#mdcd6f5c277"/><use style="fill:#fff;stroke:#fff" x="413.315" y="262.028" xlink:href="#mdcd6f5c277"/><use style="fill:#fff;stroke:#fff" x="414.266" y="265.229" xlink:href="#mdcd6f5c277"/><use style="fill:#fff;stroke:#fff" x="415.217" y="264.832" xlink:href="#mdcd6f5c277"/><use style="fill:#fff;stroke:#fff" x="416.168" y="263.301" xlink:href="#mdcd6f5c277"/><use style="fill:#fff;stroke:#fff" x="417.119" y="263.925" xlink:href="#mdcd6f5c277"/><use style="fill:#fff;stroke:#fff" x="418.07" y="267.046" xlink:href="#mdcd6f5c277"/><use style="fill:#fff;stroke:#fff" x="419.022" y="263.703" xlink:href="#mdcd6f5c277"/><use style="fill:#fff;stroke:#fff" x="419.973" y="266.386" xlink:href="#mdcd6f5c277"/><use style="fill:#fff;stroke:#fff" x="420.924" y="266.809" xlink:href="#mdcd6f5c277"/><use style="fill:#fff;stroke:#fff" x="421.875" y="266.377" xlink:href="#mdcd6f5c277"/><use style="fill:#fff;stroke:#fff" x="422.826" y="267.192" xlink:href="#mdcd6f5c277"/><use style="fill:#fff;stroke:#fff" x="423.777" y="268.087" xlink:href="#mdcd6f5c277"/><use style="fill:#fff;stroke:#fff" x="424.728" y="269" xlink:href="#mdcd6f5c277"/><use style="fill:#fff;stroke:#fff" x="425.68" y="267.147" xlink:href="#mdcd6f5c277"/><use style="fill:#fff;stroke:#fff" x="426.631" y="267.034" xlink:href="#mdcd6f5c277"/><use style="fill:#fff;stroke:#fff" x="427.582" y="270.74" xlink:href="#mdcd6f5c277"/><use style="fill:#fff;stroke:#fff" x="428.533" y="269.539" xlink:href="#mdcd6f5c277"/><use style="fill:#fff;stroke:#fff" x="429.484" y="270.631" xlink:href="#mdcd6f5c277"/><use style="fill:#fff;stroke:#fff" x="430.435" y="270.087" xlink:href="#mdcd6f5c277"/><use style="fill:#fff;stroke:#fff" x="431.386" y="269.923" xlink:href="#mdcd6f5c277"/><use style="fill:#fff;stroke:#fff" x="432.337" y="270.227" xlink:href="#mdcd6f5c277"/><use style="fill:#fff;stroke:#fff" x="433.289" y="273.268" xlink:href="#mdcd6f5c277"/><use style="fill:#fff;stroke:#fff" x="434.24" y="274.094" xlink:href="#mdcd6f5c277"/><use style="fill:#fff;stroke:#fff" x="435.191" y="272.803" xlink:href="#mdcd6f5c277"/><use style="fill:#fff;stroke:#fff" x="436.142" y="273.452" xlink:href="#mdcd6f5c277"/><use style="fill:#fff;stroke:#fff" x="437.093" y="271.175" xlink:href="#mdcd6f5c277"/><use style="fill:#fff;stroke:#fff" x="438.044" y="274.655" xlink:href="#mdcd6f5c277"/><use style="fill:#fff;stroke:#fff" x="438.995" y="274.141" xlink:href="#mdcd6f5c277"/><use style="fill:#fff;stroke:#fff" x="439.947" y="273.699" xlink:href="#mdcd6f5c277"/><use style="fill:#fff;stroke:#fff" x="440.898" y="274.439" xlink:href="#mdcd6f5c277"/><use style="fill:#fff;stroke:#fff" x="441.849" y="273.809" xlink:href="#mdcd6f5c277"/><use style="fill:#fff;stroke:#fff" x="442.8" y="274.498" xlink:href="#mdcd6f5c277"/><use style="fill:#fff;stroke:#fff" x="443.751" y="275.939" xlink:href="#mdcd6f5c277"/><use style="fill:#fff;stroke:#fff" x="444.702" y="276.7" xlink:href="#mdcd6f5c277"/><use style="fill:#fff;stroke:#fff" x="445.653" y="277.249" xlink:href="#mdcd6f5c277"/><use style="fill:#fff;stroke:#fff" x="446.605" y="275.4" xlink:href="#mdcd6f5c277"/><use style="fill:#fff;stroke:#fff" x="447.556" y="280.041" xlink:href="#mdcd6f5c277"/><use style="fill:#fff;stroke:#fff" x="448.507" y="278.746" xlink:href="#mdcd6f5c277"/><use style="fill:#fff;stroke:#fff" x="449.458" y="277.057" xlink:href="#mdcd6f5c277"/><use style="fill:#fff;stroke:#fff" x="450.409" y="277.207" xlink:href="#mdcd6f5c277"/><use style="fill:#fff;stroke:#fff" x="451.36" y="276.896" xlink:href="#mdcd6f5c277"/><use style="fill:#fff;stroke:#fff" x="452.311" y="280.889" xlink:href="#mdcd6f5c277"/><use style="fill:#fff;stroke:#fff" x="453.262" y="281.825" xlink:href="#mdcd6f5c277"/><use style="fill:#fff;stroke:#fff" x="454.214" y="280.309" xlink:href="#mdcd6f5c277"/><use style="fill:#fff;stroke:#fff" x="455.165" y="282.377" xlink:href="#mdcd6f5c277"/><use style="fill:#fff;stroke:#fff" x="456.116" y="280.302" xlink:href="#mdcd6f5c277"/><use style="fill:#fff;stroke:#fff" x="457.067" y="282.725" xlink:href="#mdcd6f5c277"/><use style="fill:#fff;stroke:#fff" x="458.018" y="283.797" xlink:href="#mdcd6f5c277"/><use style="fill:#fff;stroke:#fff" x="458.969" y="284.623" xlink:href="#mdcd6f5c277"/><use style="fill:#fff;stroke:#fff" x="459.92" y="281.95" xlink:href="#mdcd6f5c277"/><use style="fill:#fff;stroke:#fff" x="460.872" y="284.903" xlink:href="#mdcd6f5c277"/><use style="fill:#fff;stroke:#fff" x="461.823" y="283.341" xlink:href="#mdcd6f5c277"/><use style="fill:#fff;stroke:#fff" x="462.774" y="282.757" xlink:href="#mdcd6f5c277"/><use style="fill:#fff;stroke:#fff" x="463.725" y="283.922" xlink:href="#mdcd6f5c277"/><use style="fill:#fff;stroke:#fff" x="464.676" y="281.77" xlink:href="#mdcd6f5c277"/><use style="fill:#fff;stroke:#fff" x="465.627" y="285.869" xlink:href="#mdcd6f5c277"/><use style="fill:#fff;stroke:#fff" x="466.578" y="281.948" xlink:href="#mdcd6f5c277"/><use style="fill:#fff;stroke:#fff" x="467.53" y="286.441" xlink:href="#mdcd6f5c277"/><use style="fill:#fff;stroke:#fff" x="468.481" y="285.327" xlink:href="#mdcd6f5c277"/><use style="fill:#fff;stroke:#fff" x="469.432" y="284.547" xlink:href="#mdcd6f5c277"/><use style="fill:#fff;stroke:#fff" x="470.383" y="280.855" xlink:href="#mdcd6f5c277"/><use style="fill:#fff;stroke:#fff" x="471.334" y="289.405" xlink:href="#mdcd6f5c277"/><use style="fill:#fff;stroke:#fff" x="472.285" y="288.704" xlink:href="#mdcd6f5c277"/><use style="fill:#fff;stroke:#fff" x="473.236" y="286.939" xlink:href="#mdcd6f5c277"/><use style="fill:#fff;stroke:#fff" x="474.188" y="290.026" xlink:href="#mdcd6f5c277"/><use style="fill:#fff;stroke:#fff" x="475.139" y="284.537" xlink:href="#mdcd6f5c277"/><use style="fill:#fff;stroke:#fff" x="476.09" y="285.953" xlink:href="#mdcd6f5c277"/><use style="fill:#fff;stroke:#fff" x="477.041" y="295.94" xlink:href="#mdcd6f5c277"/><use style="fill:#fff;stroke:#fff" x="477.992" y="288.976" xlink:href="#mdcd6f5c277"/><use style="fill:#fff;stroke:#fff" x="478.943" y="295.68" xlink:href="#mdcd6f5c277"/><use style="fill:#fff;stroke:#fff" x="479.894" y="277.976" xlink:href="#mdcd6f5c277"/><use style="fill:#fff;stroke:#fff" x="480.845" y="357.97" xlink:href="#mdcd6f5c277"/><use style="fill:#fff;stroke:#fff" x="481.797" y="281.057" xlink:href="#mdcd6f5c277"/><use style="fill:#fff;stroke:#fff" x="482.748" y="290.423" xlink:href="#mdcd6f5c277"/><use style="fill:#fff;stroke:#fff" x="483.699" y="290.001" xlink:href="#mdcd6f5c277"/><use style="fill:#fff;stroke:#fff" x="484.65" y="289.505" xlink:href="#mdcd6f5c277"/><use style="fill:#fff;stroke:#fff" x="485.601" y="297.669" xlink:href="#mdcd6f5c277"/><use style="fill:#fff;stroke:#fff" x="486.552" y="295.126" xlink:href="#mdcd6f5c277"/><use style="fill:#fff;stroke:#fff" x="487.503" y="292.69" xlink:href="#mdcd6f5c277"/><use style="fill:#fff;stroke:#fff" x="488.455" y="289.705" xlink:href="#mdcd6f5c277"/><use style="fill:#fff;stroke:#fff" x="489.406" y="296.627" xlink:href="#mdcd6f5c277"/><use style="fill:#fff;stroke:#fff" x="490.357" y="294.268" xlink:href="#mdcd6f5c277"/><use style="fill:#fff;stroke:#fff" x="491.308" y="295.437" xlink:href="#mdcd6f5c277"/><use style="fill:#fff;stroke:#fff" x="492.259" y="291.851" xlink:href="#mdcd6f5c277"/><use style="fill:#fff;stroke:#fff" x="493.21" y="294.993" xlink:href="#mdcd6f5c277"/><use style="fill:#fff;stroke:#fff" x="494.161" y="296.656" xlink:href="#mdcd6f5c277"/><use style="fill:#fff;stroke:#fff" x="495.113" y="294.851" xlink:href="#mdcd6f5c277"/><use style="fill:#fff;stroke:#fff" x="496.064" y="299.733" xlink:href="#mdcd6f5c277"/><use style="fill:#fff;stroke:#fff" x="497.015" y="291.616" xlink:href="#mdcd6f5c277"/><use style="fill:#fff;stroke:#fff" x="497.966" y="301.248" xlink:href="#mdcd6f5c277"/><use style="fill:#fff;stroke:#fff" x="498.917" y="297.575" xlink:href="#mdcd6f5c277"/><use style="fill:#fff;stroke:#fff" x="499.868" y="301.943" xlink:href="#mdcd6f5c277"/><use style="fill:#fff;stroke:#fff" x="500.819" y="300.251" xlink:href="#mdcd6f5c277"/><use style="fill:#fff;stroke:#fff" x="501.77" y="298.831" xlink:href="#mdcd6f5c277"/><use style="fill:#fff;stroke:#fff" x="502.722" y="299.704" xlink:href="#mdcd6f5c277"/><use style="fill:#fff;stroke:#fff" x="503.673" y="298.789" xlink:href="#mdcd6f5c277"/><use style="fill:#fff;stroke:#fff" x="504.624" y="303.139" xlink:href="#mdcd6f5c277"/><use style="fill:#fff;stroke:#fff" x="505.575" y="302.055" xlink:href="#mdcd6f5c277"/><use style="fill:#fff;stroke:#fff" x="506.526" y="300.913" xlink:href="#mdcd6f5c277"/><use style="fill:#fff;stroke:#fff" x="507.477" y="302.376" xlink:href="#mdcd6f5c277"/><use style="fill:#fff;stroke:#fff" x="508.428" y="302.213" xlink:href="#mdcd6f5c277"/><use style="fill:#fff;stroke:#fff" x="509.38" y="302.635" xlink:href="#mdcd6f5c277"/><use style="fill:#fff;stroke:#fff" x="510.331" y="301.561" xlink:href="#mdcd6f5c277"/><use style="fill:#fff;stroke:#fff" x="511.282" y="307.373" xlink:href="#mdcd6f5c277"/><use style="fill:#fff;stroke:#fff" x="512.233" y="301.68" xlink:href="#mdcd6f5c277"/><use style="fill:#fff;stroke:#fff" x="513.184" y="305.586" xlink:href="#mdcd6f5c277"/><use style="fill:#fff;stroke:#fff" x="514.135" y="305.997" xlink:href="#mdcd6f5c277"/><use style="fill:#fff;stroke:#fff" x="515.086" y="305.119" xlink:href="#mdcd6f5c277"/><use style="fill:#fff;stroke:#fff" x="516.038" y="304.869" xlink:href="#mdcd6f5c277"/><use style="fill:#fff;stroke:#fff" x="516.989" y="305.032" xlink:href="#mdcd6f5c277"/><use style="fill:#fff;stroke:#fff" x="517.94" y="307.456" xlink:href="#mdcd6f5c277"/><use style="fill:#fff;stroke:#fff" x="518.891" y="308.323" xlink:href="#mdcd6f5c277"/><use style="fill:#fff;stroke:#fff" x="519.842" y="307.404" xlink:href="#mdcd6f5c277"/><use style="fill:#fff;stroke:#fff" x="520.793" y="307.797" xlink:href="#mdcd6f5c277"/><use style="fill:#fff;stroke:#fff" x="521.744" y="308.263" xlink:href="#mdcd6f5c277"/><use style="fill:#fff;stroke:#fff" x="522.695" y="306.717" xlink:href="#mdcd6f5c277"/><use style="fill:#fff;stroke:#fff" x="523.647" y="309.852" xlink:href="#mdcd6f5c277"/><use style="fill:#fff;stroke:#fff" x="524.598" y="309.297" xlink:href="#mdcd6f5c277"/><use style="fill:#fff;stroke:#fff" x="525.549" y="310.091" xlink:href="#mdcd6f5c277"/><use style="fill:#fff;stroke:#fff" x="526.5" y="311.216" xlink:href="#mdcd6f5c277"/><use style="fill:#fff;stroke:#fff" x="527.451" y="309.613" xlink:href="#mdcd6f5c277"/><use style="fill:#fff;stroke:#fff" x="528.402" y="310.702" xlink:href="#mdcd6f5c277"/><use style="fill:#fff;stroke:#fff" x="529.353" y="311.08" xlink:href="#mdcd6f5c277"/><use style="fill:#fff;stroke:#fff" x="530.305" y="310.229" xlink:href="#mdcd6f5c277"/><use style="fill:#fff;stroke:#fff" x="531.256" y="312.086" xlink:href="#mdcd6f5c277"/><use style="fill:#fff;stroke:#fff" x="532.207" y="314.661" xlink:href="#mdcd6f5c277"/><use style="fill:#fff;stroke:#fff" x="533.158" y="314.17" xlink:href="#mdcd6f5c277"/><use style="fill:#fff;stroke:#fff" x="534.109" y="313.099" xlink:href="#mdcd6f5c277"/><use style="fill:#fff;stroke:#fff" x="535.06" y="311.966" xlink:href="#mdcd6f5c277"/><use style="fill:#fff;stroke:#fff" x="536.011" y="315.477" xlink:href="#mdcd6f5c277"/><use style="fill:#fff;stroke:#fff" x="536.962" y="316.698" xlink:href="#mdcd6f5c277"/><use style="fill:#fff;stroke:#fff" x="537.914" y="316.1" xlink:href="#mdcd6f5c277"/><use style="fill:#fff;stroke:#fff" x="538.865" y="316.669" xlink:href="#mdcd6f5c277"/><use style="fill:#fff;stroke:#fff" x="539.816" y="314.752" xlink:href="#mdcd6f5c277"/><use style="fill:#fff;stroke:#fff" x="540.767" y="316.969" xlink:href="#mdcd6f5c277"/><use style="fill:#fff;stroke:#fff" x="541.718" y="318.17" xlink:href="#mdcd6f5c277"/><use style="fill:#fff;stroke:#fff" x="542.669" y="317.943" xlink:href="#mdcd6f5c277"/><use style="fill:#fff;stroke:#fff" x="543.62" y="318.85" xlink:href="#mdcd6f5c277"/><use style="fill:#fff;stroke:#fff" x="544.572" y="318.73" xlink:href="#mdcd6f5c277"/><use style="fill:#fff;stroke:#fff" x="545.523" y="320.013" xlink:href="#mdcd6f5c277"/><use style="fill:#fff;stroke:#fff" x="546.474" y="318.549" xlink:href="#mdcd6f5c277"/><use style="fill:#fff;stroke:#fff" x="547.425" y="320.731" xlink:href="#mdcd6f5c277"/><use style="fill:#fff;stroke:#fff" x="548.376" y="320.139" xlink:href="#mdcd6f5c277"/><use style="fill:#fff;stroke:#fff" x="549.327" y="319.985" xlink:href="#mdcd6f5c277"/><use style="fill:#fff;stroke:#fff" x="550.278" y="323.274" xlink:href="#mdcd6f5c277"/><use style="fill:#fff;stroke:#fff" x="551.23" y="320.986" xlink:href="#mdcd6f5c277"/><use style="fill:#fff;stroke:#fff" x="552.181" y="320.705" xlink:href="#mdcd6f5c277"/><use style="fill:#fff;stroke:#fff" x="553.132" y="321.644" xlink:href="#mdcd6f5c277"/><use style="fill:#fff;stroke:#fff" x="554.083" y="323.991" xlink:href="#mdcd6f5c277"/><use style="fill:#fff;stroke:#fff" x="555.034" y="325.314" xlink:href="#mdcd6f5c277"/><use style="fill:#fff;stroke:#fff" x="555.985" y="323.909" xlink:href="#mdcd6f5c277"/><use style="fill:#fff;stroke:#fff" x="556.936" y="325.125" xlink:href="#mdcd6f5c277"/><use style="fill:#fff;stroke:#fff" x="557.888" y="325.723" xlink:href="#mdcd6f5c277"/><use style="fill:#fff;stroke:#fff" x="558.839" y="327.091" xlink:href="#mdcd6f5c277"/><use style="fill:#fff;stroke:#fff" x="559.79" y="323.841" xlink:href="#mdcd6f5c277"/><use style="fill:#fff;stroke:#fff" x="560.741" y="327.398" xlink:href="#mdcd6f5c277"/><use style="fill:#fff;stroke:#fff" x="561.692" y="326.493" xlink:href="#mdcd6f5c277"/><use style="fill:#fff;stroke:#fff" x="562.643" y="327.458" xlink:href="#mdcd6f5c277"/><use style="fill:#fff;stroke:#fff" x="563.594" y="327.58" xlink:href="#mdcd6f5c277"/><use style="fill:#fff;stroke:#fff" x="564.545" y="327.666" xlink:href="#mdcd6f5c277"/><use style="fill:#fff;stroke:#fff" x="565.497" y="327.775" xlink:href="#mdcd6f5c277"/><use style="fill:#fff;stroke:#fff" x="566.448" y="329.188" xlink:href="#mdcd6f5c277"/><use style="fill:#fff;stroke:#fff" x="567.399" y="329.707" xlink:href="#mdcd6f5c277"/><use style="fill:#fff;stroke:#fff" x="568.35" y="330.221" xlink:href="#mdcd6f5c277"/><use style="fill:#fff;stroke:#fff" x="569.301" y="331.684" xlink:href="#mdcd6f5c277"/><use style="fill:#fff;stroke:#fff" x="570.252" y="331.567" xlink:href="#mdcd6f5c277"/><use style="fill:#fff;stroke:#fff" x="571.203" y="331.444" xlink:href="#mdcd6f5c277"/><use style="fill:#fff;stroke:#fff" x="572.155" y="330.499" xlink:href="#mdcd6f5c277"/><use style="fill:#fff;stroke:#fff" x="573.106" y="331.399" xlink:href="#mdcd6f5c277"/><use style="fill:#fff;stroke:#fff" x="574.057" y="333.188" xlink:href="#mdcd6f5c277"/><use style="fill:#fff;stroke:#fff" x="575.008" y="332.033" xlink:href="#mdcd6f5c277"/><use style="fill:#fff;stroke:#fff" x="575.959" y="334.957" xlink:href="#mdcd6f5c277"/><use style="fill:#fff;stroke:#fff" x="576.91" y="334.692" xlink:href="#mdcd6f5c277"/><use style="fill:#fff;stroke:#fff" x="577.861" y="333.949" xlink:href="#mdcd6f5c277"/><use style="fill:#fff;stroke:#fff" x="578.813" y="335.887" xlink:href="#mdcd6f5c277"/><use style="fill:#fff;stroke:#fff" x="579.764" y="335.867" xlink:href="#mdcd6f5c277"/><use style="fill:#fff;stroke:#fff" x="580.715" y="337.021" xlink:href="#mdcd6f5c277"/><use style="fill:#fff;stroke:#fff" x="581.666" y="337.228" xlink:href="#mdcd6f5c277"/><use style="fill:#fff;stroke:#fff" x="582.617" y="338.241" xlink:href="#mdcd6f5c277"/><use style="fill:#fff;stroke:#fff" x="583.568" y="334.632" xlink:href="#mdcd6f5c277"/><use style="fill:#fff;stroke:#fff" x="584.519" y="338.245" xlink:href="#mdcd6f5c277"/><use style="fill:#fff;stroke:#fff" x="585.47" y="340.231" xlink:href="#mdcd6f5c277"/><use style="fill:#fff;stroke:#fff" x="586.422" y="340.34" xlink:href="#mdcd6f5c277"/><use style="fill:#fff;stroke:#fff" x="587.373" y="338.976" xlink:href="#mdcd6f5c277"/><use style="fill:#fff;stroke:#fff" x="588.324" y="338.404" xlink:href="#mdcd6f5c277"/><use style="fill:#fff;stroke:#fff" x="589.275" y="341.567" xlink:href="#mdcd6f5c277"/><use style="fill:#fff;stroke:#fff" x="590.226" y="343.662" xlink:href="#mdcd6f5c277"/><use style="fill:#fff;stroke:#fff" x="591.177" y="342.136" xlink:href="#mdcd6f5c277"/><use style="fill:#fff;stroke:#fff" x="592.128" y="344.368" xlink:href="#mdcd6f5c277"/><use style="fill:#fff;stroke:#fff" x="593.08" y="343.7" xlink:href="#mdcd6f5c277"/><use style="fill:#fff;stroke:#fff" x="594.031" y="344.361" xlink:href="#mdcd6f5c277"/><use style="fill:#fff;stroke:#fff" x="594.982" y="345.8" xlink:href="#mdcd6f5c277"/><use style="fill:#fff;stroke:#fff" x="595.933" y="344.696" xlink:href="#mdcd6f5c277"/><use style="fill:#fff;stroke:#fff" x="596.884" y="344.674" xlink:href="#mdcd6f5c277"/><use style="fill:#fff;stroke:#fff" x="597.835" y="346.335" xlink:href="#mdcd6f5c277"/><use style="fill:#fff;stroke:#fff" x="598.786" y="347.682" xlink:href="#mdcd6f5c277"/><use style="fill:#fff;stroke:#fff" x="599.737" y="345.851" xlink:href="#mdcd6f5c277"/><use style="fill:#fff;stroke:#fff" x="600.689" y="347.712" xlink:href="#mdcd6f5c277"/><use style="fill:#fff;stroke:#fff" x="601.64" y="348.576" xlink:href="#mdcd6f5c277"/><use style="fill:#fff;stroke:#fff" x="602.591" y="348.616" xlink:href="#mdcd6f5c277"/><use style="fill:#fff;stroke:#fff" x="603.542" y="348.847" xlink:href="#mdcd6f5c277"/><use style="fill:#fff;stroke:#fff" x="604.493" y="349.186" xlink:href="#mdcd6f5c277"/><use style="fill:#fff;stroke:#fff" x="605.444" y="351.524" xlink:href="#mdcd6f5c277"/><use style="fill:#fff;stroke:#fff" x="606.395" y="350.148" xlink:href="#mdcd6f5c277"/><use style="fill:#fff;stroke:#fff" x="607.347" y="350.934" xlink:href="#mdcd6f5c277"/><use style="fill:#fff;stroke:#fff" x="608.298" y="351.388" xlink:href="#mdcd6f5c277"/><use style="fill:#fff;stroke:#fff" x="609.249" y="353.578" xlink:href="#mdcd6f5c277"/><use style="fill:#fff;stroke:#fff" x="610.2" y="352.062" xlink:href="#mdcd6f5c277"/><use style="fill:#fff;stroke:#fff" x="611.151" y="353.682" xlink:href="#mdcd6f5c277"/><use style="fill:#fff;stroke:#fff" x="612.102" y="353.597" xlink:href="#mdcd6f5c277"/><use style="fill:#fff;stroke:#fff" x="613.053" y="354.679" xlink:href="#mdcd6f5c277"/><use style="fill:#fff;stroke:#fff" x="614.005" y="355.738" xlink:href="#mdcd6f5c277"/><use style="fill:#fff;stroke:#fff" x="614.956" y="355.623" xlink:href="#mdcd6f5c277"/><use style="fill:#fff;stroke:#fff" x="615.907" y="357.994" xlink:href="#mdcd6f5c277"/><use style="fill:#fff;stroke:#fff" x="616.858" y="356.014" xlink:href="#mdcd6f5c277"/><use style="fill:#fff;stroke:#fff" x="617.809" y="356.945" xlink:href="#mdcd6f5c277"/><use style="fill:#fff;stroke:#fff" x="618.76" y="360.465" xlink:href="#mdcd6f5c277"/><use style="fill:#fff;stroke:#fff" x="619.711" y="361.33" xlink:href="#mdcd6f5c277"/><use style="fill:#fff;stroke:#fff" x="620.663" y="359.596" xlink:href="#mdcd6f5c277"/><use style="fill:#fff;stroke:#fff" x="621.614" y="360.371" xlink:href="#mdcd6f5c277"/><use style="fill:#fff;stroke:#fff" x="622.565" y="358.642" xlink:href="#mdcd6f5c277"/><use style="fill:#fff;stroke:#fff" x="623.516" y="361.399" xlink:href="#mdcd6f5c277"/><use style="fill:#fff;stroke:#fff" x="624.467" y="361.816" xlink:href="#mdcd6f5c277"/><use style="fill:#fff;stroke:#fff" x="625.418" y="360.856" xlink:href="#mdcd6f5c277"/><use style="fill:#fff;stroke:#fff" x="626.369" y="361.491" xlink:href="#mdcd6f5c277"/><use style="fill:#fff;stroke:#fff" x="627.32" y="364.923" xlink:href="#mdcd6f5c277"/><use style="fill:#fff;stroke:#fff" x="628.272" y="362.863" xlink:href="#mdcd6f5c277"/><use style="fill:#fff;stroke:#fff" x="629.223" y="362.668" xlink:href="#mdcd6f5c277"/><use style="fill:#fff;stroke:#fff" x="630.174" y="364.883" xlink:href="#mdcd6f5c277"/><use style="fill:#fff;stroke:#fff" x="631.125" y="364.269" xlink:href="#mdcd6f5c277"/><use style="fill:#fff;stroke:#fff" x="632.076" y="368.876" xlink:href="#mdcd6f5c277"/><use style="fill:#fff;stroke:#fff" x="633.027" y="367.036" xlink:href="#mdcd6f5c277"/><use style="fill:#fff;stroke:#fff" x="633.978" y="368.843" xlink:href="#mdcd6f5c277"/><use style="fill:#fff;stroke:#fff" x="634.93" y="369.515" xlink:href="#mdcd6f5c277"/><use style="fill:#fff;stroke:#fff" x="635.881" y="368.384" xlink:href="#mdcd6f5c277"/><use style="fill:#fff;stroke:#fff" x="636.832" y="368.528" xlink:href="#mdcd6f5c277"/><use style="fill:#fff;stroke:#fff" x="637.783" y="369.995" xlink:href="#mdcd6f5c277"/><use style="fill:#fff;stroke:#fff" x="638.734" y="374.59" xlink:href="#mdcd6f5c277"/><use style="fill:#fff;stroke:#fff" x="639.685" y="371.362" xlink:href="#mdcd6f5c277"/><use style="fill:#fff;stroke:#fff" x="640.636" y="370.667" xlink:href="#mdcd6f5c277"/><use style="fill:#fff;stroke:#fff" x="641.587" y="371.803" xlink:href="#mdcd6f5c277"/><use style="fill:#fff;stroke:#fff" x="642.539" y="376.285" xlink:href="#mdcd6f5c277"/><use style="fill:#fff;stroke:#fff" x="643.49" y="374.167" xlink:href="#mdcd6f5c277"/><use style="fill:#fff;stroke:#fff" x="644.441" y="372.746" xlink:href="#mdcd6f5c277"/><use style="fill:#fff;stroke:#fff" x="645.392" y="375.539" xlink:href="#mdcd6f5c277"/><use style="fill:#fff;stroke:#fff" x="646.343" y="376.53" xlink:href="#mdcd6f5c277"/><use style="fill:#fff;stroke:#fff" x="647.294" y="378.785" xlink:href="#mdcd6f5c277"/><use style="fill:#fff;stroke:#fff" x="648.245" y="377.638" xlink:href="#mdcd6f5c277"/><use style="fill:#fff;stroke:#fff" x="649.197" y="378.314" xlink:href="#mdcd6f5c277"/><use style="fill:#fff;stroke:#fff" x="650.148" y="371.792" xlink:href="#mdcd6f5c277"/><use style="fill:#fff;stroke:#fff" x="651.099" y="373.883" xlink:href="#mdcd6f5c277"/><use style="fill:#fff;stroke:#fff" x="652.05" y="364.969" xlink:href="#mdcd6f5c277"/><use style="fill:#fff;stroke:#fff" x="653.001" y="377.761" xlink:href="#mdcd6f5c277"/><use style="fill:#fff;stroke:#fff" x="653.952" y="377.544" xlink:href="#mdcd6f5c277"/><use style="fill:#fff;stroke:#fff" x="654.903" y="376.961" xlink:href="#mdcd6f5c277"/><use style="fill:#fff;stroke:#fff" x="655.855" y="384.902" xlink:href="#mdcd6f5c277"/><use style="fill:#fff;stroke:#fff" x="656.806" y="384.995" xlink:href="#mdcd6f5c277"/><use style="fill:#fff;stroke:#fff" x="657.757" y="388.359" xlink:href="#mdcd6f5c277"/><use style="fill:#fff;stroke:#fff" x="658.708" y="385.225" xlink:href="#mdcd6f5c277"/><use style="fill:#fff;stroke:#fff" x="659.659" y="383.65" xlink:href="#mdcd6f5c277"/><use style="fill:#fff;stroke:#fff" x="660.61" y="384.386" xlink:href="#mdcd6f5c277"/><use style="fill:#fff;stroke:#fff" x="661.561" y="385.654" xlink:href="#mdcd6f5c277"/><use style="fill:#fff;stroke:#fff" x="662.513" y="389.738" xlink:href="#mdcd6f5c277"/><use style="fill:#fff;stroke:#fff" x="663.464" y="389.479" xlink:href="#mdcd6f5c277"/><use style="fill:#fff;stroke:#fff" x="664.415" y="388.835" xlink:href="#mdcd6f5c277"/><use style="fill:#fff;stroke:#fff" x="665.366" y="387.76" xlink:href="#mdcd6f5c277"/><use style="fill:#fff;stroke:#fff" x="666.317" y="391.162" xlink:href="#mdcd6f5c277"/><use style="fill:#fff;stroke:#fff" x="667.268" y="391.335" xlink:href="#mdcd6f5c277"/><use style="fill:#fff;stroke:#fff" x="668.219" y="391.674" xlink:href="#mdcd6f5c277"/><use style="fill:#fff;stroke:#fff" x="669.17" y="393.995" xlink:href="#mdcd6f5c277"/><use style="fill:#fff;stroke:#fff" x="670.122" y="393.941" xlink:href="#mdcd6f5c277"/><use style="fill:#fff;stroke:#fff" x="671.073" y="396.155" xlink:href="#mdcd6f5c277"/><use style="fill:#fff;stroke:#fff" x="672.024" y="395.655" xlink:href="#mdcd6f5c277"/><use style="fill:#fff;stroke:#fff" x="672.975" y="393.571" xlink:href="#mdcd6f5c277"/><use style="fill:#fff;stroke:#fff" x="673.926" y="393.989" xlink:href="#mdcd6f5c277"/><use style="fill:#fff;stroke:#fff" x="674.877" y="397.535" xlink:href="#mdcd6f5c277"/><use style="fill:#fff;stroke:#fff" x="675.828" y="399.825" xlink:href="#mdcd6f5c277"/><use style="fill:#fff;stroke:#fff" x="676.78" y="402.123" xlink:href="#mdcd6f5c277"/><use style="fill:#fff;stroke:#fff" x="677.731" y="399.675" xlink:href="#mdcd6f5c277"/><use style="fill:#fff;stroke:#fff" x="678.682" y="399.686" xlink:href="#mdcd6f5c277"/><use style="fill:#fff;stroke:#fff" x="679.633" y="402.096" xlink:href="#mdcd6f5c277"/><use style="fill:#fff;stroke:#fff" x="680.584" y="401.763" xlink:href="#mdcd6f5c277"/><use style="fill:#fff;stroke:#fff" x="681.535" y="405.994" xlink:href="#mdcd6f5c277"/><use style="fill:#fff;stroke:#fff" x="682.486" y="404.001" xlink:href="#mdcd6f5c277"/><use style="fill:#fff;stroke:#fff" x="683.438" y="405.468" xlink:href="#mdcd6f5c277"/><use style="fill:#fff;stroke:#fff" x="684.389" y="403.481" xlink:href="#mdcd6f5c277"/><use style="fill:#fff;stroke:#fff" x="685.34" y="408.053" xlink:href="#mdcd6f5c277"/><use style="fill:#fff;stroke:#fff" x="686.291" y="406.764" xlink:href="#mdcd6f5c277"/><use style="fill:#fff;stroke:#fff" x="687.242" y="409.523" xlink:href="#mdcd6f5c277"/><use style="fill:#fff;stroke:#fff" x="688.193" y="407.775" xlink:href="#mdcd6f5c277"/><use style="fill:#fff;stroke:#fff" x="689.144" y="410.373" xlink:href="#mdcd6f5c277"/><use style="fill:#fff;stroke:#fff" x="690.095" y="414.822" xlink:href="#mdcd6f5c277"/><use style="fill:#fff;stroke:#fff" x="691.047" y="410.485" xlink:href="#mdcd6f5c277"/><use style="fill:#fff;stroke:#fff" x="691.998" y="410.196" xlink:href="#mdcd6f5c277"/><use style="fill:#fff;stroke:#fff" x="692.949" y="412.035" xlink:href="#mdcd6f5c277"/><use style="fill:#fff;stroke:#fff" x="693.9" y="418.522" xlink:href="#mdcd6f5c277"/><use style="fill:#fff;stroke:#fff" x="694.851" y="411.339" xlink:href="#mdcd6f5c277"/><use style="fill:#fff;stroke:#fff" x="695.802" y="420.262" xlink:href="#mdcd6f5c277"/><use style="fill:#fff;stroke:#fff" x="696.753" y="416.234" xlink:href="#mdcd6f5c277"/><use style="fill:#fff;stroke:#fff" x="697.705" y="413.834" xlink:href="#mdcd6f5c277"/><use style="fill:#fff;stroke:#fff" x="698.656" y="423.65" xlink:href="#mdcd6f5c277"/><use style="fill:#fff;stroke:#fff" x="699.607" y="423.553" xlink:href="#mdcd6f5c277"/><use style="fill:#fff;stroke:#fff" x="700.558" y="421.635" xlink:href="#mdcd6f5c277"/><use style="fill:#fff;stroke:#fff" x="701.509" y="423.662" xlink:href="#mdcd6f5c277"/><use style="fill:#fff;stroke:#fff" x="702.46" y="425.306" xlink:href="#mdcd6f5c277"/><use style="fill:#fff;stroke:#fff" x="703.411" y="426.028" xlink:href="#mdcd6f5c277"/><use style="fill:#fff;stroke:#fff" x="704.362" y="423.223" xlink:href="#mdcd6f5c277"/><use style="fill:#fff;stroke:#fff" x="705.314" y="423.421" xlink:href="#mdcd6f5c277"/><use style="fill:#fff;stroke:#fff" x="706.265" y="426.938" xlink:href="#mdcd6f5c277"/><use style="fill:#fff;stroke:#fff" x="707.216" y="424.983" xlink:href="#mdcd6f5c277"/><use style="fill:#fff;stroke:#fff" x="708.167" y="430.319" xlink:href="#mdcd6f5c277"/><use style="fill:#fff;stroke:#fff" x="709.118" y="433.584" xlink:href="#mdcd6f5c277"/><use style="fill:#fff;stroke:#fff" x="710.069" y="432.696" xlink:href="#mdcd6f5c277"/><use style="fill:#fff;stroke:#fff" x="711.02" y="429.264" xlink:href="#mdcd6f5c277"/><use style="fill:#fff;stroke:#fff" x="711.972" y="433.023" xlink:href="#mdcd6f5c277"/><use style="fill:#fff;stroke:#fff" x="712.923" y="432.274" xlink:href="#mdcd6f5c277"/><use style="fill:#fff;stroke:#fff" x="713.874" y="435.312" xlink:href="#mdcd6f5c277"/><use style="fill:#fff;stroke:#fff" x="714.825" y="442.574" xlink:href="#mdcd6f5c277"/><use style="fill:#fff;stroke:#fff" x="715.776" y="432.901" xlink:href="#mdcd6f5c277"/><use style="fill:#fff;stroke:#fff" x="716.727" y="439.012" xlink:href="#mdcd6f5c277"/><use style="fill:#fff;stroke:#fff" x="717.678" y="437.277" xlink:href="#mdcd6f5c277"/><use style="fill:#fff;stroke:#fff" x="718.63" y="441.069" xlink:href="#mdcd6f5c277"/><use style="fill:#fff;stroke:#fff" x="719.581" y="442.565" xlink:href="#mdcd6f5c277"/><use style="fill:#fff;stroke:#fff" x="720.532" y="447.042" xlink:href="#mdcd6f5c277"/><use style="fill:#fff;stroke:#fff" x="721.483" y="443.917" xlink:href="#mdcd6f5c277"/><use style="fill:#fff;stroke:#fff" x="722.434" y="448.416" xlink:href="#mdcd6f5c277"/><use style="fill:#fff;stroke:#fff" x="723.385" y="451.496" xlink:href="#mdcd6f5c277"/><use style="fill:#fff;stroke:#fff" x="724.336" y="444.017" xlink:href="#mdcd6f5c277"/><use style="fill:#fff;stroke:#fff" x="725.288" y="452.481" xlink:href="#mdcd6f5c277"/><use style="fill:#fff;stroke:#fff" x="726.239" y="450.529" xlink:href="#mdcd6f5c277"/><use style="fill:#fff;stroke:#fff" x="727.19" y="456.05" xlink:href="#mdcd6f5c277"/><use style="fill:#fff;stroke:#fff" x="728.141" y="452.13" xlink:href="#mdcd6f5c277"/><use style="fill:#fff;stroke:#fff" x="729.092" y="448.906" xlink:href="#mdcd6f5c277"/><use style="fill:#fff;stroke:#fff" x="730.043" y="460.93" xlink:href="#mdcd6f5c277"/><use style="fill:#fff;stroke:#fff" x="730.994" y="452.564" xlink:href="#mdcd6f5c277"/><use style="fill:#fff;stroke:#fff" x="731.945" y="454.095" xlink:href="#mdcd6f5c277"/><use style="fill:#fff;stroke:#fff" x="732.897" y="465.048" xlink:href="#mdcd6f5c277"/><use style="fill:#fff;stroke:#fff" x="733.848" y="463.962" xlink:href="#mdcd6f5c277"/><use style="fill:#fff;stroke:#fff" x="734.799" y="463.758" xlink:href="#mdcd6f5c277"/><use style="fill:#fff;stroke:#fff" x="735.75" y="468.547" xlink:href="#mdcd6f5c277"/><use style="fill:#fff;stroke:#fff" x="736.701" y="468.43" xlink:href="#mdcd6f5c277"/><use style="fill:#fff;stroke:#fff" x="737.652" y="453.694" xlink:href="#mdcd6f5c277"/><use style="fill:#fff;stroke:#fff" x="738.603" y="470.086" xlink:href="#mdcd6f5c277"/><use style="fill:#fff;stroke:#fff" x="739.555" y="473.062" xlink:href="#mdcd6f5c277"/><use style="fill:#fff;stroke:#fff" x="740.506" y="468.231" xlink:href="#mdcd6f5c277"/><use style="fill:#fff;stroke:#fff" x="741.457" y="476.084" xlink:href="#mdcd6f5c277"/><use style="fill:#fff;stroke:#fff" x="742.408" y="478.198" xlink:href="#mdcd6f5c277"/><use style="fill:#fff;stroke:#fff" x="743.359" y="478.049" xlink:href="#mdcd6f5c277"/><use style="fill:#fff;stroke:#fff" x="744.31" y="477.045" xlink:href="#mdcd6f5c277"/><use style="fill:#fff;stroke:#fff" x="745.261" y="479.425" xlink:href="#mdcd6f5c277"/><use style="fill:#fff;stroke:#fff" x="746.212" y="492.48" xlink:href="#mdcd6f5c277"/><use style="fill:#fff;stroke:#fff" x="747.164" y="482.4" xlink:href="#mdcd6f5c277"/></g></g><g id="patch_3"><path d="M 108 512.64 L 108 69.12" style="fill:none;stroke:#fff;stroke-linecap:square;stroke-linejoin:miter;stroke-width:.8"/></g><g id="patch_4"><path d="M 777.6 512.64 L 777.6 69.12" style="fill:none;stroke:#fff;stroke-linecap:square;stroke-linejoin:miter;stroke-width:.8"/></g><g id="patch_5"><path d="M 108 512.64 L 777.6 512.64" style="fill:none;stroke:#fff;stroke-linecap:square;stroke-linejoin:miter;stroke-width:.8"/></g><g id="patch_6"><path d="M 108 69.12 L 777.6 69.12" style="fill:none;stroke:#fff;stroke-linecap:square;stroke-linejoin:miter;stroke-width:.8"/></g><g id="text_16"><g style="fill:#fff" transform="translate(311.95875 63.12)scale(0.12 -0.12)"><defs><path id="DejaVuSans-66" d="M 2375 4863 L 2375 4384 L 1825 4384 Q 1516 4384 1395 4259 Q 1275 4134 1275 3809 L 1275 3500 L 2222 3500 L 2222 3053 L 1275 3053 L 1275 0 L 697 0 L 697 3053 L 147 3053 L 147 3500 L 697 3500 L 697 3744 Q 697 4328 969 4595 Q 1241 4863 1831 4863 L 2375 4863 z" transform="scale(0.015625)"/><path id="DejaVuSans-5f" d="M 3263 -1063 L 3263 -1509 L -63 -1509 L -63 -1063 L 3263 -1063 z" transform="scale(0.015625)"/><path id="DejaVuSans-42" d="M 1259 2228 L 1259 519 L 2272 519 Q 2781 519 3026 730 Q 3272 941 3272 1375 Q 3272 1813 3026 2020 Q 2781 2228 2272 2228 L 1259 2228 z M 1259 4147 L 1259 2741 L 2194 2741 Q 2656 2741 2882 2914 Q 3109 3088 3109 3444 Q 3109 3797 2882 3972 Q 2656 4147 2194 4147 L 1259 4147 z M 628 4666 L 2241 4666 Q 2963 4666 3353 4366 Q 3744 4066 3744 3513 Q 3744 3084 3544 2831 Q 3344 2578 2956 2516 Q 3422 2416 3680 2098 Q 3938 1781 3938 1306 Q 3938 681 3513 340 Q 3088 0 2303 0 L 628 0 L 628 4666 z" transform="scale(0.015625)"/><path id="DejaVuSans-63" d="M 3122 3366 L 3122 2828 Q 2878 2963 2633 3030 Q 2388 3097 2138 3097 Q 1578 3097 1268 2742 Q 959 2388 959 1747 Q 959 1106 1268 751 Q 1578 397 2138 397 Q 2388 397 2633 464 Q 2878 531 3122 666 L 3122 134 Q 2881 22 2623 -34 Q 2366 -91 2075 -91 Q 1284 -91 818 406 Q 353 903 353 1747 Q 353 2603 823 3093 Q 1294 3584 2113 3584 Q 2378 3584 2631 3529 Q 2884 3475 3122 3366 z" transform="scale(0.015625)"/><path id="DejaVuSans-75" d="M 544 1381 L 544 3500 L 1119 3500 L 1119 1403 Q 1119 906 1312 657 Q 1506 409 1894 409 Q 2359 409 2629 706 Q 2900 1003 2900 1516 L 2900 3500 L 3475 3500 L 3475 0 L 2900 0 L 2900 538 Q 2691 219 2414 64 Q 2138 -91 1772 -91 Q 1169 -91 856 284 Q 544 659 544 1381 z M 1991 3584 L 1991 3584 z" transform="scale(0.015625)"/><path id="DejaVuSans-62" d="M 3116 1747 Q 3116 2381 2855 2742 Q 2594 3103 2138 3103 Q 1681 3103 1420 2742 Q 1159 2381 1159 1747 Q 1159 1113 1420 752 Q 1681 391 2138 391 Q 2594 391 2855 752 Q 3116 1113 3116 1747 z M 1159 2969 Q 1341 3281 1617 3432 Q 1894 3584 2278 3584 Q 2916 3584 3314 3078 Q 3713 2572 3713 1747 Q 3713 922 3314 415 Q 2916 -91 2278 -91 Q 1894 -91 1617 61 Q 1341 213 1159 525 L 1159 0 L 581 0 L 581 4863 L 1159 4863 L 1159 2969 z" transform="scale(0.015625)"/><path id="DejaVuSans-2e" d="M 684 794 L 1344 794 L 1344 0 L 684 0 L 684 794 z" transform="scale(0.015625)"/><path id="DejaVuSans-73" d="M 2834 3397 L 2834 2853 Q 2591 2978 2328 3040 Q 2066 3103 1784 3103 Q 1356 3103 1142 2972 Q 928 2841 928 2578 Q 928 2378 1081 2264 Q 1234 2150 1697 2047 L 1894 2003 Q 2506 1872 2764 1633 Q 3022 1394 3022 966 Q 3022 478 2636 193 Q 2250 -91 1575 -91 Q 1294 -91 989 -36 Q 684 19 347 128 L 347 722 Q 666 556 975 473 Q 1284 391 1588 391 Q 1994 391 2212 530 Q 2431 669 2431 922 Q 2431 1156 2273 1281 Q 2116 1406 1581 1522 L 1381 1569 Q 847 1681 609 1914 Q 372 2147 372 2553 Q 372 3047 722 3315 Q 1072 3584 1716 3584 Q 2034 3584 2315 3537 Q 2597 3491 2834 3397 z" transform="scale(0.015625)"/><path id="DejaVuSans-70" d="M 1159 525 L 1159 -1331 L 581 -1331 L 581 3500 L 1159 3500 L 1159 2969 Q 1341 3281 1617 3432 Q 1894 3584 2278 3584 Q 2916 3584 3314 3078 Q 3713 2572 3713 1747 Q 3713 922 3314 415 Q 2916 -91 2278 -91 Q 1894 -91 1617 61 Q 1341 213 1159 525 z M 3116 1747 Q 3116 2381 2855 2742 Q 2594 3103 2138 3103 Q 1681 3103 1420 2742 Q 1159 2381 1159 1747 Q 1159 1113 1420 752 Q 1681 391 2138 391 Q 2594 391 2855 752 Q 3116 1113 3116 1747 z" transform="scale(0.015625)"/></defs><use xlink:href="#DejaVuSans-66"/><use x="35.205" xlink:href="#DejaVuSans-5f"/><use x="85.205" xlink:href="#DejaVuSans-30"/><use x="148.828" xlink:href="#DejaVuSans-5f"/><use x="198.828" xlink:href="#DejaVuSans-42"/><use x="267.432" xlink:href="#DejaVuSans-69"/><use x="295.215" xlink:href="#DejaVuSans-63"/><use x="350.195" xlink:href="#DejaVuSans-75"/><use x="413.574" xlink:href="#DejaVuSans-62"/><use x="477.051" xlink:href="#DejaVuSans-69"/><use x="504.834" xlink:href="#DejaVuSans-63"/><use x="559.814" xlink:href="#DejaVuSans-5f"/><use x="609.814" xlink:href="#DejaVuSans-62"/><use x="673.291" xlink:href="#DejaVuSans-5f"/><use x="723.291" xlink:href="#DejaVuSans-30"/><use x="786.914" xlink:href="#DejaVuSans-2e"/><use x="818.701" xlink:href="#DejaVuSans-33"/><use x="882.324" xlink:href="#DejaVuSans-33"/><use x="945.947" xlink:href="#DejaVuSans-5f"/><use x="995.947" xlink:href="#DejaVuSans-63"/><use x="1050.928" xlink:href="#DejaVuSans-5f"/><use x="1100.928" xlink:href="#DejaVuSans-30"/><use x="1164.551" xlink:href="#DejaVuSans-2e"/><use x="1196.338" xlink:href="#DejaVuSans-33"/><use x="1259.961" xlink:href="#DejaVuSans-33"/><use x="1323.584" xlink:href="#DejaVuSans-5f"/><use x="1373.584" xlink:href="#DejaVuSans-61"/><use x="1434.863" xlink:href="#DejaVuSans-72"/><use x="1475.977" xlink:href="#DejaVuSans-5f"/><use x="1525.977" xlink:href="#DejaVuSans-31"/><use x="1589.6" xlink:href="#DejaVuSans-2e"/><use x="1621.387" xlink:href="#DejaVuSans-37"/><use x="1685.01" xlink:href="#DejaVuSans-38"/><use x="1748.633" xlink:href="#DejaVuSans-5f"/><use x="1798.633" xlink:href="#DejaVuSans-73"/><use x="1850.732" xlink:href="#DejaVuSans-74"/><use x="1889.941" xlink:href="#DejaVuSans-65"/><use x="1951.465" xlink:href="#DejaVuSans-70"/><use x="2014.941" xlink:href="#DejaVuSans-73"/><use x="2067.041" xlink:href="#DejaVuSans-5f"/><use x="2117.041" xlink:href="#DejaVuSans-31"/></g></g></g></g><defs><clipPath id="pe92d518e8f"><rect width="669.6" height="443.52" x="108" y="69.12"/></clipPath></defs></svg>